<svg xmlns="http://www.w3.org/2000/svg" xml:space="preserve" width="612" height="792" viewBox="0 0 612 792"><path fill="#fff" d="m199.25 471.25-7.83 3.5-2.09-8.87zm22.25 34.33s-12.5-6.83-19.25-15.2l11.83-3.96zm197.17-38.5v8.75l-7.17-2.58zm-21.17 19.75s7.5-.16 12.25 2.75l-19.67 12.5zM282.67 506.5s6.5.17 13.83 3.5c0 0 7.33 6.5 17.5.5 0 0 8.33-4.67 11.83-4s21.37 7.73 20 9.5c-9 11.67-30.5 8.17-30.5 8.17-7-4-21.66 0-21.66 0-21.84 7-35-8.17-35-8.17s9-9 24-9.5m59.5-118.83c-1.84 2.33 0 10.16 0 10.16l-9-8zm34.33-4.34s5.97-5.6 18.17-3.5c0 0-.34 17.5-28.66 23 .32-.47 10.66-15.39 10.49-19.5M268 396s4.17-8.33 3.67-10.83l8.5 3.83zm-34.67-14.67c2.5 10 12.93 19.17 12.93 19.17-13.41.16-22.09-8.67-22.09-8.67-10.24-13.29 9.16-10.5 9.16-10.5M68.75 203s44.75 28.5 75.5 38.5c0 0 28.5 4.5 22.25 32.5 0 0-3.25 14.25-13.25 21.25 0 0-61.75-35.25-84.5-92.25m479.32 2.99c-22.75 57-84.5 92.25-84.5 92.25-10-7-13.25-21.25-13.25-21.25-6.25-28 22.25-32.5 22.25-32.5 30.75-10 75.5-38.5 75.5-38.5"/><path fill="#fff" d="M254.83 522.5s8.34 15.01 25.34 15.01 22.08-4.33 25.87-2.83c0 0 1.46.16 19.29 1.83 0 0 8.17 4 31-22 0 0-11.91-16.13-32-25.51 0 0 6.34-12 27-10.5l9.5 20.67 2.34-20.8s15.5-.04 23.83 5.13c1.13.7-5.17 21.33-30.83 60-25.67 38.67-52 5-53.88 5.83-1.88.84-11.46 23.84-38.46 9.67s-36.5-75.5-36.5-75.5l15-3.5 3.67 20.83s6.17-28.26 27.83-22.46c0 0 5.17 4.38 8.34 12.01 0 0-21.67 3.79-28.34 17.45 0 0-6.66 7.34 1 14.67"/><path fill="#fff" d="M280.82 397.51c-29.7 43.23-70.35 8.431-71.14 7.75.5.92 30.64 55.24 88.32-3.43 0 0 12.83-13 25 1 0 0 48.17 58.33 74.67 0l-.33-.37C359.37 436.48 337 404.5 337 404.5c26 9.33 40 2.67 40 2.67 20-6.17 23-25 23-25 5.67.16 15.67-1.08 15.67-1.08-19.5-18.41-48.34-4.76-48.34-4.76 29.5-48.66 53.34-25.83 53.34-25.83-3-29.33-12.17-40.33-12.17-40.33-22.17 36-57.67 63.33-57.67 63.33-43.83 29.5-24.16-18.67-24.16-18.67-16 11.5-12.17 30.34-12.17 30.34l-14.17-.17c2-21.67-5.16-29-5.16-29 3.16 11.5-2.5 26.5-2.5 26.5-25.67 5.33-85.84-70.33-85.84-70.33-12.33 22.83-15 38-15 38 26.34-15.5 51.67 24 51.67 24-28-3.5-44.25 7.66-44.25 7.66l8.75 2c9.33 2 14.33 13 14.33 13 17.81 21.94 57.67 1.11 58.49.68m-132.99 2.16c3.67 13.16 1.17 14.83 7 25.16 5.84 10.34 20 22.34 19.67 25.34 0 0-31-7.34-31-28.34 0 0-.5-25.83-9.17-45.33 0 0-11.66-20.17-1-39.33 0 0 42.17 25.49 40.67 62.33 0 0-2.67 12.66 6.5 16l17.17 9.17S160.75 336.5 186.25 303c0 0 3.58-3.17 1.25-20.5 0 0-6-61.16 34.5-47.33 0 0 40.67 19.83 74.83 81.5l9.21-163.17 7.46 161.25s48.5-91.5 95.25-74.5c0 0 24.25 2.5 17.75 51.5 0 0-3 7.87 3.5 13.75 0 0 16.75 11.67-.88 67.75l-18.62 56.58s16-14.33 22.17-17.33c0 0 6.83-3.33 7-16.5 0 0-4.34-11 17.66-36.67 0 0 18.34-19.66 23.17-22.33 0 0 2 86.5-42.25 116.75 0 0-1.5-16.5 11.87-29.5 0 0 7-6.75 6.26-19 0 0 .87-33.57 11.65-44.16-1.33 1.18-15.771 14.36-18.03 31.66 0 0 .88 20.5-10.5 29.13 0 0-9.17 8.78-15.5 20.95 0 0-7.33 14.5-11.67 16.67 0 0-12.7 8.92-13.5 8.66-23.66-7.66-48.16-7.49-48.16-7.49C350 442.83 328 442 328 442s32.25 15.17 2.75 29.46c0 0-6.5 4.37-13.75 14.96 0 0-11.5 7.08-25.75-1.17 0 0-9.32-11.62-13.25-13.79-32.71-18.07 1.25-28.21 1.25-28.21s-25.25-4.08-26.92 15.58c0 0-16.75.21-26.66 5-14.04 6.79-22.5-1.66-22.5-1.66S191.5 453.5 186.25 442c0 0-2.13-9.12-17.63-19.62 0 0-9.62-4-8.74-22.38 0 0 3.4-25.54-20.88-41.75 0 0 5.17 28.25 8.83 41.42m159.4 76.16s29.27-5.33 10.6-36.33l-7.94-34.25c-9.37 10.5-8.64 13-2.659 33.75 5.979 20.75-.001 36.83-.001 36.83"/><path fill="#2a458c" d="M366.01 402.83c28.32-5.5 28.66-23 28.66-23-12.2-2.1-18.17 3.5-18.17 3.5.17 4.11-10.17 19.03-10.49 19.5m-141.84-11s8.68 8.83 22.09 8.67c0 0-10.43-9.17-12.93-19.17 0 0-19.4-2.79-9.16 10.5m-17.34-79.66s60.17 75.66 85.84 70.33c0 0 5.66-15 2.5-26.5 0 0 7.16 7.33 5.16 29l14.17.17s-3.83-18.84 12.17-30.34c0 0-19.67 48.17 24.16 18.67 0 0 35.5-27.33 57.67-63.33 0 0 9.17 11 12.17 40.33 0 0-23.84-22.83-53.34 25.83 0 0 28.84-13.65 48.34 4.76 0 0-10 1.24-15.67 1.08 0 0-3 18.83-23 25 0 0-14 6.66-40-2.67 0 0 22.37 31.98 60.34-2.04l.33.37c-26.5 58.33-74.67 0-74.67 0-12.17-14-25-1-25-1-57.68 58.67-87.82 4.35-88.32 3.43.79.681 41.44 35.48 71.14-7.75-.82.431-40.68 21.26-58.49-.68 0 0-5-11-14.33-13l-8.75-2s16.25-11.16 44.25-7.66c0 0-25.33-39.5-51.67-24 0 0 2.67-15.17 15-38m135.34 85.66s-1.84-7.83 0-10.16l-9 2.16zM268 396l12.17-7-8.5-3.83c.5 2.5-3.67 10.83-3.67 10.83"/><path fill="#2a458c" d="M317.83 439.5c18.67 31-10.6 36.33-10.6 36.33s5.979-16.08 0-36.83c-5.98-20.75-6.71-23.25 2.659-33.75z"/><path fill="#2a458c" d="M450.32 276.99s3.25 14.25 13.25 21.25c0 0 61.75-35.25 84.5-92.25 0 0-44.75 28.5-75.5 38.5 0 0-28.5 4.5-22.25 32.5M258.67 516s13.16 15.17 35 8.17c0 0 14.66-4 21.66 0 0 0 21.5 3.5 30.5-8.17 1.37-1.77-16.5-8.83-20-9.5s-11.83 4-11.83 4c-10.17 6-17.5-.5-17.5-.5-7.33-3.33-13.83-3.5-13.83-3.5-15 .5-24 9.5-24 9.5m-31.34-32.5s9.5 61.33 36.5 75.5 36.58-8.83 38.46-9.67c1.88-.83 28.21 32.84 53.88-5.83 25.66-38.67 31.96-59.3 30.83-60-8.33-5.17-23.83-5.13-23.83-5.13l-2.34 20.8-9.5-20.67c-20.66-1.5-27 10.5-27 10.5 20.09 9.38 32 25.51 32 25.51-22.83 26-31 22-31 22-17.83-1.67-19.29-1.83-19.29-1.83-3.79-1.5-8.87 2.83-25.87 2.83s-25.34-15.01-25.34-15.01c-7.66-7.33-1-14.67-1-14.67 6.67-13.66 28.34-17.45 28.34-17.45-3.17-7.63-8.34-12.01-8.34-12.01-21.66-5.8-27.83 22.46-27.83 22.46L242.33 480zm-93-107c8.67 19.5 9.17 45.33 9.17 45.33 0 21 31 28.34 31 28.34.33-3-13.83-15-19.67-25.34-5.83-10.33-3.33-12-7-25.16-3.66-13.17-8.83-41.42-8.83-41.42 24.28 16.21 20.88 41.75 20.88 41.75-.88 18.38 8.74 22.38 8.74 22.38 15.5 10.5 17.63 19.62 17.63 19.62 5.25 11.5 16.92 20.17 16.92 20.17s8.46 8.45 22.5 1.66c9.91-4.79 26.66-5 26.66-5 1.67-19.66 26.92-15.58 26.92-15.58s-33.96 10.14-1.25 28.21c3.93 2.17 13.25 13.79 13.25 13.79 14.25 8.25 25.75 1.17 25.75 1.17 7.25-10.59 13.75-14.96 13.75-14.96C360.25 457.17 328 442 328 442s22 .83 22.67 18.67c0 0 24.5-.17 48.16 7.49.8.26 13.5-8.66 13.5-8.66 4.34-2.17 11.67-16.67 11.67-16.67 6.33-12.17 15.5-20.95 15.5-20.95 11.38-8.63 10.5-29.13 10.5-29.13 2.26-17.3 16.7-30.48 18.03-31.66-10.78 10.59-11.65 44.16-11.65 44.16.74 12.25-6.26 19-6.26 19-13.37 13-11.87 29.5-11.87 29.5C482.5 423.5 480.5 337 480.5 337c-4.83 2.67-23.17 22.33-23.17 22.33-22 25.67-17.66 36.67-17.66 36.67-.17 13.17-7 16.5-7 16.5-6.17 3-22.17 17.33-22.17 17.33l18.62-56.58c17.63-56.08.88-67.75.88-67.75-6.5-5.88-3.5-13.75-3.5-13.75 6.5-49-17.75-51.5-17.75-51.5-46.75-17-95.25 74.5-95.25 74.5l-7.46-161.25-9.21 163.17C262.67 255 222 235.17 222 235.17c-40.5-13.83-34.5 47.33-34.5 47.33 2.33 17.33-1.25 20.5-1.25 20.5-25.5 33.5 11.42 121.67 11.42 121.67l-17.17-9.17c-9.17-3.34-6.5-16-6.5-16 1.5-36.84-40.67-62.33-40.67-62.33-10.66 19.16 1 39.33 1 39.33M68.75 203c22.75 57 84.5 92.25 84.5 92.25 10-7 13.25-21.25 13.25-21.25 6.25-28-22.25-32.5-22.25-32.5-30.75-10-75.5-38.5-75.5-38.5m-18.92-26.17c48.85 36.36 103.7 45.78 107.91 46.46.02.21.12.23.26.04 0 0-.09-.01-.26-.04-.52-4.18 23.89-83.35 148.3-84.54 130.71-1.25 164.29 90.09 164.29 90.09 39.67-10.67 98-52.5 98-52.5-6.16 41.33-17.33 54.99-17.33 54.99l-28.17 37.84s-17.83 21.33-37.66 34.5c-19.84 13.16-15.34 25.58-15.34 25.58l24.56-21.58s.08 30.43-.12 32.71c-.079-2.18-.18-2.79-.1-.88.04.95.07 1.2.1.9.23 5.57.41 21.27-2.5 31.63l-.01.05-.72 2.26-.04.11-15.83 50-.01.03-3.21 10.14c-6.04 14.18-17.521 25.04-27.87 26.55-16.08 2.33-13.58 17.75-13.58 17.75 26.62 2.47 54.34-7.689 55.1-7.97-9.95 12.45-33.1 17.05-33.1 17.05l-31 5s-17.5 1-36.5 27-19 35-45 52.5-37.5 70-37.5 70c-16.75-59.75-34.75-70.88-34.75-70.88-22-10.37-31.63-28.12-31.63-28.12-5.24-11.88-23-24.75-23-24.75C188.25 499.5 189.5 491 189.5 491c-26.62-.12-33-1.38-33-1.38-27.32-5.65-35.9-19.351-36.16-19.78.62.33 20.15 4.311 23.16 4.92.05.01.09.021.13.03.09.01.15.03.19.04.05.01.07.01.07.01 10.67 2.41 38.53-1.17 38.53-1.17-1.5-4.67-16.92-12-16.92-12-1.83-1.59-10.83-4.01-17.83-9.18-7-5.16-9.5-11.33-9.5-11.33s-5.67-7.66-6.67-26.49c-1-18.84-5.67-28.34-5.67-28.34-19.16-55.93-11.16-83.08-11.16-83.08-.59-.83 30.08 25.58 30.08 25.58 2.67-12.33-13.58-23.01-13.58-23.01-72.84-54.69-81.34-128.99-81.34-128.99m368.84 299v-8.75l-7.17 6.17zm-28.59 26.25 19.67-12.5c-4.75-2.91-12.25-2.75-12.25-2.75zm-168.58 3.5-7.42-19.16-11.83 3.96c6.75 8.37 19.25 15.2 19.25 15.2m-30.08-30.83 7.83-3.5-9.92-5.37z"/><g fill="none" stroke="#2a458c"><path d="m143.5 474.76-.33-.09m14.57-251.38c-4.21-.68-59.06-10.1-107.91-46.46 0 0 8.5 74.3 81.34 128.99 0 0 16.25 10.68 13.58 23.01 0 0-30.67-26.41-30.08-25.58 0 0-8 27.15 11.16 83.08 0 0 4.67 9.5 5.67 28.34 1 18.83 6.67 26.49 6.67 26.49s2.5 6.17 9.5 11.33c7 5.17 16 7.59 17.83 9.18 0 0 15.42 7.33 16.92 12 0 0-27.86 3.58-38.53 1.17"/><path d="M157.74 223.29c.02.21.12.23.26.04 0 0-.09-.01-.26-.04z"/><path d="M494.27 340.38c.2-2.28.12-32.71.12-32.71l-24.56 21.58s-4.5-12.42 15.34-25.58c19.83-13.17 37.66-34.5 37.66-34.5L551 231.33s11.17-13.66 17.33-54.99c0 0-58.33 41.83-98 52.5 0 0-33.58-91.34-164.29-90.09-124.41 1.19-148.82 80.36-148.3 84.54"/><path d="M491.77 372.03c2.91-10.36 2.73-26.06 2.5-31.63v-.02c-.079-2.18-.18-2.79-.1-.88.04.95.07 1.2.1.9m-3.23 33.94c.26-.72.5-1.47.72-2.26m-1.04 3.1c.101-.24.19-.48.28-.73m-15.83 50c.01-.03.01-.07.021-.101M485.6 470.95c-.76.28-28.479 10.439-55.1 7.97 0 0-2.5-15.42 13.58-17.75 10.35-1.51 21.83-12.37 27.87-26.55 1.38-3.23 2.47-6.64 3.21-10.14M166.5 274s-3.25 14.25-13.25 21.25c0 0-61.75-35.25-84.5-92.25 0 0 44.75 28.5 75.5 38.5 0 0 28.5 4.5 22.25 32.5zm381.57-68.01s-44.75 28.5-75.5 38.5c0 0-28.5 4.5-22.25 32.5 0 0 3.25 14.25 13.25 21.25 0 0 61.75-35.25 84.5-92.25z"/><path d="M120.34 469.84c.26.43 8.84 14.13 36.16 19.78 0 0 6.38 1.26 33 1.38 0 0-1.25 8.5 23.62 27.75 0 0 17.76 12.87 23 24.75 0 0 9.63 17.75 31.63 28.12 0 0 18 11.13 34.75 70.88 0 0 11.5-52.5 37.5-70s26-26.5 45-52.5 36.5-27 36.5-27l31-5s23.15-4.6 33.1-17.05c0 0 .011-.01.021-.01l.21-.271"/><path d="M143.89 474.84s-.02 0-.07-.01c-.04-.01-.1-.03-.19-.04-.04-.01-.08-.021-.13-.03-3.01-.609-22.54-4.59-23.16-4.92l-.01-.01m69-3.95 2.09 8.87 7.83-3.5zm32.17 39.7s-12.5-6.83-19.25-15.2l11.83-3.96zm188.25-16c-4.75-2.91-12.25-2.75-12.25-2.75l-7.42 15.25zm1.75-16.33 7.17 2.58v-8.75zM345.83 516c1.37-1.77-16.5-8.83-20-9.5s-11.83 4-11.83 4c-10.17 6-17.5-.5-17.5-.5-7.33-3.33-13.83-3.5-13.83-3.5-15 .5-24 9.5-24 9.5s13.16 15.17 35 8.17c0 0 14.66-4 21.66 0 0 0 21.5 3.5 30.5-8.17z"/><path d="M356.17 543.5c-25.67 38.67-52 5-53.88 5.83-1.88.84-11.46 23.84-38.46 9.67s-36.5-75.5-36.5-75.5l15-3.5 3.67 20.83s6.17-28.26 27.83-22.46c0 0 5.17 4.38 8.34 12.01 0 0-21.67 3.79-28.34 17.45 0 0-6.66 7.34 1 14.67 0 0 8.34 15.01 25.34 15.01s22.08-4.33 25.87-2.83c0 0 1.46.16 19.29 1.83 0 0 8.17 4 31-22 0 0-11.91-16.13-32-25.51 0 0 6.34-12 27-10.5l9.5 20.67 2.34-20.8s15.5-.04 23.83 5.13c1.13.7-5.17 21.33-30.83 60zM468.12 361l-.01.01"/><path d="M438.25 453.75C482.5 423.5 480.5 337 480.5 337c-4.83 2.67-23.17 22.33-23.17 22.33-22 25.67-17.66 36.67-17.66 36.67-.17 13.17-7 16.5-7 16.5-6.17 3-22.17 17.33-22.17 17.33l18.62-56.58c17.63-56.08.88-67.75.88-67.75-6.5-5.88-3.5-13.75-3.5-13.75 6.5-49-17.75-51.5-17.75-51.5-46.75-17-95.25 74.5-95.25 74.5l-7.46-161.25-9.21 163.17C262.67 255 222 235.17 222 235.17c-40.5-13.83-34.5 47.33-34.5 47.33 2.33 17.33-1.25 20.5-1.25 20.5-25.5 33.5 11.42 121.67 11.42 121.67l-17.17-9.17c-9.17-3.34-6.5-16-6.5-16 1.5-36.84-40.67-62.33-40.67-62.33-10.66 19.16 1 39.33 1 39.33 8.67 19.5 9.17 45.33 9.17 45.33 0 21 31 28.34 31 28.34.33-3-13.83-15-19.67-25.34-5.83-10.33-3.33-12-7-25.16-3.66-13.17-8.83-41.42-8.83-41.42 24.28 16.21 20.88 41.75 20.88 41.75-.88 18.38 8.74 22.38 8.74 22.38 15.5 10.5 17.63 19.62 17.63 19.62 5.25 11.5 16.92 20.17 16.92 20.17s8.46 8.45 22.5 1.66c9.91-4.79 26.66-5 26.66-5 1.67-19.66 26.92-15.58 26.92-15.58s-33.96 10.14-1.25 28.21c3.93 2.17 13.25 13.79 13.25 13.79 14.25 8.25 25.75 1.17 25.75 1.17 7.25-10.59 13.75-14.96 13.75-14.96C360.25 457.17 328 442 328 442s22 .83 22.67 18.67c0 0 24.5-.17 48.16 7.49.8.26 13.5-8.66 13.5-8.66 4.34-2.17 11.67-16.67 11.67-16.67 6.33-12.17 15.5-20.95 15.5-20.95 11.38-8.63 10.5-29.13 10.5-29.13 2.26-17.3 16.7-30.48 18.03-31.66-10.78 10.59-11.65 44.16-11.65 44.16.74 12.25-6.26 19-6.26 19-13.37 13-11.87 29.5-11.87 29.5zm29.78-92.66.05-.05m0 0 .03-.03"/><path d="M324.04 456.86c.69 15.779-16.81 18.97-16.81 18.97s5.979-16.08 0-36.83c-5.98-20.75-6.71-23.25 2.659-33.75l7.94 34.25c4.231 7.03 6.001 12.74 6.211 17.36z"/><path d="m209.67 405.25.01.01c.5.92 30.64 55.24 88.32-3.43 0 0 12.83-13 25 1 0 0 48.17 58.33 74.67 0"/><path d="M280.83 397.5s0 .01-.01.01c-29.7 43.23-70.35 8.431-71.14 7.75"/><path d="M397.67 402.17c-.11.1-.22.2-.33.29-37.97 34.02-60.34 2.04-60.34 2.04 26 9.33 40 2.67 40 2.67 20-6.17 23-25 23-25 5.67.16 15.67-1.08 15.67-1.08-19.5-18.41-48.34-4.76-48.34-4.76 29.5-48.66 53.34-25.83 53.34-25.83-3-29.33-12.17-40.33-12.17-40.33-22.17 36-57.67 63.33-57.67 63.33-43.83 29.5-24.16-18.67-24.16-18.67-16 11.5-12.17 30.34-12.17 30.34l-14.17-.17c2-21.67-5.16-29-5.16-29 3.16 11.5-2.5 26.5-2.5 26.5-25.67 5.33-85.84-70.33-85.84-70.33-12.33 22.83-15 38-15 38 26.34-15.5 51.67 24 51.67 24-28-3.5-44.25 7.66-44.25 7.66l8.75 2c9.33 2 14.33 13 14.33 13 17.81 21.939 57.67 1.11 58.49.68"/><path d="M268 396s4.17-8.33 3.67-10.83l8.5 3.83zm-21.74 4.5s-10.43-9.17-12.93-19.17c0 0-19.4-2.79-9.16 10.5 0 0 8.68 8.83 22.09 8.67zm95.91-12.83c-1.84 2.33 0 10.16 0 10.16l-9-8zm23.84 15.16c.32-.47 10.66-15.39 10.49-19.5 0 0 5.97-5.6 18.17-3.5 0 0-.34 17.5-28.66 23zm0 0H366m109.17 21.62-.01.03-3.21 10.14m19.82-62.59-.01.05-.72 2.26-.04.11-15.83 50"/></g></svg>