<svg xmlns="http://www.w3.org/2000/svg" width="480" height="480" viewBox="0 0 480 480"><defs><clipPath id="a" clipPathUnits="userSpaceOnUse"><path d="M-298.73 123.078h360v-360h-360Z"/></clipPath><clipPath id="b" clipPathUnits="userSpaceOnUse"><path d="M-295.3 161.917h360v-360h-360Z"/></clipPath><clipPath id="c" clipPathUnits="userSpaceOnUse"><path d="M-275.506 220.311h360v-360h-360Z"/></clipPath><clipPath id="d" clipPathUnits="userSpaceOnUse"><path d="M-268.547 246.36h360v-360h-360Z"/></clipPath><clipPath id="e" clipPathUnits="userSpaceOnUse"><path d="M-158.968 193.32h360v-360h-360Z"/></clipPath><clipPath id="f" clipPathUnits="userSpaceOnUse"><path d="M-210.256 212.876h360v-360h-360Z"/></clipPath><clipPath id="g" clipPathUnits="userSpaceOnUse"><path d="M-172.672 179.539h360v-360h-360Z"/></clipPath></defs><path d="M0 0c0 1.044-.847 1.54-2.54 1.54h-15.077c-.895-2.637-1.346-4.129-1.346-4.378 0-1.045.847-1.593 2.49-1.593h11.394c2.089 0 3.434.746 4.08 2.238Q-.25-.325-.104-.399C-.049-.25 0-.149 0 0m16.271 25.926-3.337-9.358h-24.431c-2.138 0-3.483-.745-4.08-2.237-.097-.25-.451-1.394-1.097-3.386H2.935c2.04 0 3.684-.447 4.975-1.391 1.241-.948 1.894-2.342 1.894-4.083 0-.944-.201-1.94-.597-3.036C8.208-.25 6.765-4.181 4.822-9.309c-.541-1.491-1.144-2.536-1.887-3.184-.944-.847-2.193-1.242-3.782-1.242h-26.227c-1.888 0-3.435.395-4.677 1.242-1.443.947-2.137 2.39-2.137 4.228 0 .847.195 1.843.597 2.988 2.436 7.215 5.571 16.173 9.353 26.772.548 1.544 1.242 2.637 1.992 3.285.894.746 2.136 1.146 3.683 1.146z" clip-path="url(#a)" style="fill:#0033a1;fill-opacity:1;fill-rule:nonzero;stroke:none" transform="matrix(1.33333 0 0 -1.33333 398.306 164.104)"/><path d="M0 0c-1.103-2.588-2.968-4.132-5.586-4.579.584-.15 1.11-.496 1.517-1.146.405-.644.639-1.342.639-2.136 0-.452-.121-.948-.292-1.395l-4.474-10.949c-1.224-2.935-3.429-4.427-6.631-4.427h-32.847l4.013 9.354h20.931c2.553 0 4.126.745 4.766 2.188l.697 1.742c.114.249.17.452.17.698 0 1.345-.867 1.991-2.61 1.991h-21.4l3.785 9.256h21.741c1.338 0 2.27.149 2.789.399.526.246.875.645 1.167 1.294l.575 1.391c.058.149.058.25.058.399 0 1.044-.982 1.592-2.959 1.592h-21.223l3.891 9.357h26.686c2.383 0 4.305-.448 5.821-1.395 1.451-.946 2.205-2.338 2.205-4.079 0-.948-.236-1.944-.698-3.036z" clip-path="url(#b)" style="fill:#0033a1;fill-opacity:1;fill-rule:nonzero;stroke:none" transform="matrix(1.33333 0 0 -1.33333 393.734 215.89)"/><path d="M0 0h-27.865c-1.547 0-2.588-.694-3.087-2.089l-.597-1.692c-.146-.451-.25-.847-.25-1.194 0-1.096.548-1.644 1.693-1.644h27.914l-3.379-9.354h-33.396c-1.839 0-3.184.597-4.024 1.79-.749 1.048-1.096 2.339-1.096 3.879 0 1.048.146 2.04.443 2.942l4.331 12.288c1.047 2.984 3.135 4.475 6.272 4.475h25.624l.749 2.346c.098.298.153.597.153.839 0 1.145-.75 1.742-2.241 1.742h-27.373l3.338 9.36H.847c3.483 0 5.224-1.742 5.224-5.273 0-.951-.152-1.798-.451-2.644z" clip-path="url(#c)" style="fill:#0033a1;fill-opacity:1;fill-rule:nonzero;stroke:none" transform="matrix(1.33333 0 0 -1.33333 367.34 293.748)"/><path d="m0 0-11.997-39.66h-12.934l5.024 14.279h-18.859c-5.821 0-8.756 1.846-8.756 5.475 0 1.048.347 2.588 1.089 4.725L-41.152 0h10.844l-4.579-12.892c-.25-.645-.347-1.144-.347-1.588 0-1.048.645-1.547 1.992-1.547h14.383c1.588 0 2.636.7 3.081 2.094.894 2.887 2.539 7.515 4.926 13.933z" clip-path="url(#d)" style="fill:#0033a1;fill-opacity:1;fill-rule:nonzero;stroke:none" transform="matrix(1.33333 0 0 -1.33333 358.062 328.479)"/><path d="M0 0c.83-6.53 3.031-12.811 3.671-19.363-.101-1.224-.343-2.432-.585-3.638-.432-2.146-.861-4.29-.483-6.51.094.009.186.028.28.04 2.945.426 4.892 3.007 6.154 5.52 1.542 3.988-.441 8.144-1.865 11.857a30 30 0 0 0-.992 2.683 34 34 0 0 0-.248.808C4.588-3.987 4.22.858 3.638 5.614 2.015 4.121.004 2.399 0 0" clip-path="url(#e)" style="fill:#0033a1;fill-opacity:1;fill-rule:nonzero;stroke:none" transform="matrix(1.33333 0 0 -1.33333 211.957 257.76)"/><path d="M0 0c-2.935-2.348-6.082-4.567-9.577-5.995-6.44 1.941-13.04 3.437-19.819 3.431-.42 2.307-.809 4.834-2.561 6.554-1.276 1.287-2.951 1.894-4.672 2.371-.989.276-1.993.508-2.946.804-.13.038-.264.071-.394.118q.267-.27.556-.536c1.146-1.054 2.518-2.056 3.712-3.168 1.745-1.627 3.104-3.493 2.789-6.123-.701-.83-1.502-1.556-2.337-2.246-1.525-1.262-3.168-2.402-4.554-3.82a13 13 0 0 1-.646-.645 23 23 0 0 1-1.543-1.766c-1.363-1.727-2.612-3.563-4.33-4.937a10 10 0 0 0-1.167-.821c-2.582.14-5.761-.542-7.801 1.521-3.197 2.82-5.818 6.245-9.222 8.852-1.965 1.885-5.407 3.589-4.332 6.977 1.362 2.785 4.298 4.197 6.893 5.594-2.885.303-6.113.826-8.725-.779-2.291-1.316-2.678-4.221-3.586-6.438C-80.5-1.573-86.131-4.52-92.13-5.884c-4.491 3.157-8.837 7.1-11.04 12.254-1.622 3.394-3.713 6.605-6.584 9.07-1.851 1.993-4.668 3.467-5.384 6.289-1.085 5.969.257 12.439-2.368 18.11-1.492 3.907-4.571 6.811-7.479 9.68 1.541-10.893 3.861-21.663 6.52-32.328 2.144-5.162 6.232-9.175 9.338-13.754-4.403 1.085-9.138 2.824-11.638 6.844-3.408 4.736-2.048 10.812-3.013 16.235-.553 6.19-3.131 11.882-5.076 17.705-1.625 5.281-.537 10.765 1.097 15.87 7.092-5.22 13.205-12.077 16.721-20.219 2.317-5.497 2.349-11.498 1.376-17.285 3.649-2.223 7.253-4.508 10.95-6.667-3.843 11.741-6.893 23.792-8.402 36.068-.49 6.468-.848 13.134.747 19.486.713 2.838 2.606 5.161 3.58 7.897.378 7.896-1.681 15.937.394 23.723 1.03 3.39 2.816 6.906 6.162 8.495 2.718 1.068 5.88.812 8.492-.482 7.588-3.405 13.057-9.943 18.193-16.251 5.906-7.752 11.095-16.051 15.599-24.708 1.835 27.386 2.092 54.872 4.22 82.227 1.649-27.02 1.685-54.125 3.447-81.126 5.968 11.479 12.328 23.141 22.056 31.91a32 32 0 0 0 1.986 1.654c.185.142.376.279.564.416a29 29 0 0 0 2.956 1.912c4.288 2.402 9.192 3.63 14.111 2.524 4.555-1.19 7.854-5.307 8.87-9.812 1.521-7.28.995-14.868-.531-22.1 2.137-1.35 4.424-2.97 4.843-5.695 1.068-6.008.929-12.22-.114-18.244a64 64 0 0 0-.631-3.162c-.1-.471-.211-.941-.313-1.413a246 246 0 0 0-4.332-17.035 307 307 0 0 0-6.286-19.17c4.174 3.77 8.709 7.201 12.6 11.29 1.427 5.107.38 10.846 3.161 15.613 3.956 7.575 9.826 13.978 15.779 20.03.343-3.911.663-7.852.391-11.779-.792-4.795-2.203-9.452-3.209-14.197-1.54-6.62-2.352-13.429-4.721-19.835C18.554 8.614 14.617 3.717 9.797.148c.028 4.396.47 9.06 3.092 12.747 1.545 2.896 4.362 5.379 4.267 8.947.874 8.835 2.156 17.706 5.871 25.859-7.037-6.709-8.304-16.698-9.408-25.847-1.926-3.973-5.639-6.787-7.845-10.631C3.229 7.812 2.188 3.586 0 0m-2.541-8.982a341 341 0 0 0 3.439 3.47c.042-1.591.081-3.182.13-4.783-1.189.449-2.384.877-3.569 1.313m-9.345-14.253c.99 2.709 2.061 5.396 3.079 8.093 1.948-.586 3.896-1.141 5.859-1.75-2.996-2.093-5.939-4.252-8.938-6.343m-46.676-2.413c3.129-1.104 5.853-3.566 9.4-3.354 3.1.512 5.388 3.272 8.641 3.354a40 40 0 0 0 9.356-4.968c-4.227-2.976-9.565-5.346-14.7-3.272-6 1.867-11.795-1.493-17.791-1.41-2.905 1.138-5.365 3.094-7.882 4.878 3.939 2.35 8.122 5.372 12.976 4.772m31.18-18.73c-2.389-3.176-4.818-6.629-8.366-8.564-5.954-2.124-11.807 1.737-15.636 6.037a68 68 0 0 1-.909-1.093c-1.07-1.31-2.141-2.656-3.37-3.81-.907-.851-1.901-1.598-3.052-2.138-5.915-1.214-11.627 2.141-14.998 6.794-7.405 9.466-9.467 21.661-11.542 33.178 2.224.563 4.443 1.131 6.662 1.716.181-3.58.311-7.297 2.077-10.506a57.5 57.5 0 0 0 5.626 11.685c2.338-.449 4.918.053 7.186-.817 1.132-1.818 1.993-3.78 3.044-5.645-6.874-1.122-12.209-6.347-14.885-12.617 2.465-2.991 4.335-6.496 7.001-9.305.122-.129.236-.264.362-.39a11.5 11.5 0 0 1 2.727-1.15 13.4 13.4 0 0 1 2.217-.423c.019.003.037.014.066.014.258 0 .484-.045.716-.077 1.342-.07 2.699.026 4.065.2 4.094.519 8.266 1.735 12.328 1.27 2.85-.21 5.903-1.752 8.58-.111 4.064 2.786 7.132 6.694 10.486 10.234-3.826 5.349-8.353 10.505-14.606 13.044 1.866 1.906 3.321 4.776 6.419 4.675 1.447.23 4.344.698 5.789.927 1.377-3.721 2.613-7.511 4.429-11.047.487 3.682.838 7.381 1.345 11.063 3.419-.68 6.901-1.264 10.2-2.45-3.648-10.637-7.806-21.238-13.961-30.694m-68.819 27.337a218 218 0 0 0 5.422 1.931c.873-3.357 1.808-6.716 3.014-9.973-3.131 2.307-6.278 4.738-8.436 8.042m-4.931 7.868a147 147 0 0 0-1.307 4.048 647 647 0 0 0 4.42-2.737 475 475 0 0 0-3.113-1.311m-55.515 137.202c10.722-7.36 21.723-14.503 33.765-19.521.1-.041.198-.086.298-.127 1.094-.443 2.207-.856 3.308-1.296 1.775-.71 3.52-1.49 5.108-2.58 1.432-2.11 1.676-4.738 1.851-7.265.043-.62.082-1.234.133-1.833-.131-5.332-3.34-9.823-5.934-14.25-17.531 10.85-30.971 27.746-38.529 46.872m171.94-32.878c.912 4.295 2.851 9.192 7.36 10.702q2.052.923 4.106 1.859a360 360 0 0 1 6.393 2.987c1.417.683 2.828 1.377 4.229 2.092q2.535 1.293 5.015 2.68c6.096 3.411 11.898 7.299 17.061 12.088-1.843-6.033-4.955-11.495-8.564-16.63a115 115 0 0 0-2.088-2.87 195 195 0 0 0-4.713-5.989q-.294-.364-.59-.724a137 137 0 0 0-3.792-4.154c-6.012-6.348-12.656-12.119-19.975-16.909-2.644 4.489-5.792 9.351-4.442 14.868m3.598-106.272c-4.154-.407-8.318-.31-12.482-.298.048 2.113.109 4.225.162 6.341C13.56-2.963 20.186 1.236 23.646 7.853c2.817 4.6 2.784 10.175 3.535 15.319.667 6.547 4.752 12.031 5.999 18.449 3.55 10.817.841 22.298 1.55 33.422-3.646-3.565-7.274-7.151-10.945-10.688.055 2.27.132 4.539.201 6.799 20.392 16.209 38.737 37.499 44.106 63.67v6.975c-13.104-11.201-27.713-21.211-44.206-26.66-4.783 11.302-12.148 21.604-21.893 29.137-9.306 7.396-20.423 11.952-31.954 14.466-3.549 1.201-10.555 2.025-18.618 2.025-3.857 0-11.383-.518-11.383-.518-1.022-.172-2.054-.342-3.077-.53-.26-.038-17.208-3.687-24.618-7.676-13.704-7.178-24.836-19.614-29.511-34.456-17.752 3.704-34.271 12.503-48.088 24.13v-2.705c2.966-10.749 6.221-21.548 11.658-31.344 6.825-13.283 16.504-25.005 28.095-34.377 3.486-1.751 2.66-5.934 3.247-9.076-4.847 4.248-9.308 8.9-14.015 13.295-1.603-15.539 1.966-30.89 5.967-45.794 2.937-9.418.868-20.605 7.622-28.616 5.157-4.903 12.801-6.329 17.307-12.086-9.583-1.876-19.364-.773-28.621 2.094 3.861-3.727 8.013-7.489 13.251-9.079 5.77-2.106 11.98-1.719 17.964-2.58 1.866-1.694 2.901-4.097 4.458-6.048 3.601-5.248 8.968-8.867 13.02-13.714 3.571-3.958 5.364-9.241 9.227-12.967 3.794-4.029 8.866-6.656 12.222-11.129 6.73-9.716 9.394-21.388 12.456-32.607h.369c2.189 10.312 5.158 20.659 10.786 29.642 3.904 6.157 10.537 9.681 14.921 15.4 5.156 5.841 7.225 13.801 12.772 19.343 4.447 4.461 9.071 8.89 14.486 12.164 6.968 1.754 14.896.724 21.203 4.717 3.022 1.768 5.806 3.925 8.431 6.23-4.21-1.268-8.319-2.924-12.679-3.601" clip-path="url(#f)" style="fill:#0033a1;fill-opacity:1;fill-rule:nonzero;stroke:none" transform="matrix(1.33333 0 0 -1.33333 280.34 283.834)"/><path d="M0 0c1.18.277 2.348.557 3.523.828.187-1.602.437-3.246.626-4.86C2.756-2.692 1.367-1.359 0 0m-29.22-2.706c.47 1.737.977 3.473 1.475 5.208 1.14-.72 2.289-1.464 3.42-2.21-1.621-1.005-3.27-1.993-4.895-2.998m-18.204.247c-1.93 1.34-2.697 3.663-3.638 5.689 2.042.551 5.257 2.903 6.651.324 1.88-2.953 3.369-6.135 5.236-9.111-2.84.743-5.741 1.538-8.249 3.098m66.976 6.095c2.55.617 5.139.985 7.738 1.342-.597-2.524-1.065-5.495-3.242-7.21-2.74-2.083-6.029-3.299-9.295-4.281C16.767-3.34 18.326.084 19.552 3.636M22.23-7.409c4.474 2.044 6.519 6.842 7.981 11.241 2.382.025 4.751.287 7.116.642-2.562 1.883-5.17 3.928-8.254 4.849-4.845.989-9.453-1.067-13.882-2.71 3.761 6.31 8.107 13.022 15.209 15.826 3.297 1.302 6.437-.968 8.968-2.85-.711 7.017-2.298 13.98-5.256 20.397-1.666-1.413-2.685-3.407-3.919-5.173-6.895-11.009-15.31-21.301-25.78-29.086-2.274-1.657-6.671-3.635-8.546-.456-2.138 3.974.271 8.533 1.121 12.615-1.3-1.634-2.714-3.193-3.8-4.975C-8.41 9.71-8.202 6.006-8.315 2.516c-2.209-.018-4.433-.02-6.646-.02.624 4.855.302 9.978-2.098 14.337-.048-3.1.083-6.208-.195-9.292-.27-2.142-2.265-4.524-4.622-3.694-5.042 1.605-8.946 5.378-12.809 8.803-8.124 8.25-15.368 17.329-22.113 26.725a41 41 0 0 1-.559-1.029q-.152-.291-.297-.584c-2.793-5.522-4.312-11.587-5.879-17.544 2.195 1.479 4.694 2.875 7.498 2.066 6.923-2.563 11.556-8.693 16.099-14.188-6.958.416-14.583.049-20.477-4.104 2.592-1.172 6.633-.194 7.972-3.248 2.128-3.058 3.731-6.972 7.622-8.153 7.328-2.967 15.212.62 21.696 4.103-2.915-4.753-6.65-9.81-12.389-11.092-7.315-2.387-14.216 2.466-20.057 6.231 3.651-5.484 8.673-11.06 15.584-11.924 5.85-.34 11.347 2.415 15.698 6.086 4.04 3.534 7.527 8.073 12.402 10.448q.564.274 1.155.506c.276.11.552.219.838.314.064-.031.121-.068.184-.099 2.429-1.194 4.463-2.903 6.354-4.796C.83-11.821 4.337-16.888 9.99-19.148c3.391-1.831 7.766-1.297 10.882.845 3.925 3.078 6.304 7.603 8.544 11.948-4.717-3.433-9.441-8.906-15.893-8.087-5.314-.325-9.176 3.838-12.456 7.424 6.617-2.69 14.707-4.458 21.163-.391" clip-path="url(#g)" style="fill:#0033a1;fill-opacity:1;fill-rule:nonzero;stroke:none" transform="matrix(1.33333 0 0 -1.33333 230.229 239.385)"/></svg>