<?xml version="1.0" encoding="utf-8"?>
<!-- Generator: Adobe Illustrator 16.0.0, SVG Export Plug-In . SVG Version: 6.00 Build 0)  -->
<!DOCTYPE svg PUBLIC "-//W3C//DTD SVG 1.1//EN" "http://www.w3.org/Graphics/SVG/1.1/DTD/svg11.dtd">
<svg version="1.1" id="Layer_2" xmlns="http://www.w3.org/2000/svg" xmlns:xlink="http://www.w3.org/1999/xlink" x="0px" y="0px"
	 width="612px" height="792px" viewBox="0 0 612 792" enable-background="new 0 0 612 792" xml:space="preserve">
<g id="XMLID_2_">
	<g>
		<g id="XMLID_1_">
			<g>
				<polygon fill="#FFFFFF" points="199.25,471.25 191.42,474.75 189.33,465.88 				"/>
				<path fill="#FFFFFF" d="M221.5,505.58c0,0-12.5-6.83-19.25-15.2l11.83-3.96L221.5,505.58z"/>
				<polygon fill="#FFFFFF" points="418.67,467.08 418.67,475.83 411.5,473.25 				"/>
				<path fill="#FFFFFF" d="M397.5,486.83c0,0,7.5-0.16,12.25,2.75l-19.67,12.5L397.5,486.83z"/>
				<path fill="#FFFFFF" d="M282.67,506.5c0,0,6.5,0.17,13.83,3.5c0,0,7.33,6.5,17.5,0.5c0,0,8.33-4.67,11.83-4s21.37,7.73,20,9.5
					c-9,11.67-30.5,8.17-30.5,8.17c-7-4-21.66,0-21.66,0c-21.84,7-35-8.17-35-8.17S267.67,507,282.67,506.5z"/>
				<path fill="#FFFFFF" d="M342.17,387.67c-1.84,2.33,0,10.16,0,10.16l-9-8L342.17,387.67z"/>
				<path fill="#FFFFFF" d="M376.5,383.33c0,0,5.97-5.6,18.17-3.5c0,0-0.34,17.5-28.66,23C366.33,402.36,376.67,387.44,376.5,383.33
					z"/>
				<path fill="#FFFFFF" d="M268,396c0,0,4.17-8.33,3.67-10.83l8.5,3.83L268,396z"/>
				<path fill="#FFFFFF" d="M233.33,381.33c2.5,10,12.93,19.17,12.93,19.17c-13.41,0.16-22.09-8.67-22.09-8.67
					C213.93,378.54,233.33,381.33,233.33,381.33z"/>
				<path fill="#FFFFFF" d="M68.75,203c0,0,44.75,28.5,75.5,38.5c0,0,28.5,4.5,22.25,32.5c0,0-3.25,14.25-13.25,21.25
					C153.25,295.25,91.5,260,68.75,203z"/>
				<path fill="#FFFFFF" d="M548.07,205.99c-22.75,57-84.5,92.25-84.5,92.25c-10-7-13.25-21.25-13.25-21.25
					c-6.25-28,22.25-32.5,22.25-32.5C503.32,234.49,548.07,205.99,548.07,205.99z"/>
				<path fill="#FFFFFF" d="M254.83,522.5c0,0,8.34,15.01,25.34,15.01s22.08-4.33,25.87-2.83c0,0,1.46,0.16,19.29,1.83
					c0,0,8.17,4,31-22c0,0-11.91-16.13-32-25.51c0,0,6.34-12,27-10.5l9.5,20.67l2.34-20.8c0,0,15.5-0.04,23.83,5.13
					c1.13,0.7-5.17,21.33-30.83,60c-25.67,38.67-52,5-53.88,5.83c-1.88,0.84-11.46,23.84-38.46,9.67s-36.5-75.5-36.5-75.5l15-3.5
					l3.67,20.83c0,0,6.17-28.26,27.83-22.46c0,0,5.17,4.38,8.34,12.01c0,0-21.67,3.79-28.34,17.45
					C253.83,507.83,247.17,515.17,254.83,522.5z"/>
				<path fill="#FFFFFF" d="M280.82,397.51c-29.7,43.23-70.35,8.431-71.14,7.75c0.5,0.92,30.64,55.24,88.32-3.43c0,0,12.83-13,25,1
					c0,0,48.17,58.33,74.67,0l-0.33-0.37C359.37,436.48,337,404.5,337,404.5c26,9.33,40,2.67,40,2.67c20-6.17,23-25,23-25
					c5.67,0.16,15.67-1.08,15.67-1.08c-19.5-18.41-48.34-4.76-48.34-4.76c29.5-48.66,53.34-25.83,53.34-25.83
					c-3-29.33-12.17-40.33-12.17-40.33c-22.17,36-57.67,63.33-57.67,63.33c-43.83,29.5-24.16-18.67-24.16-18.67
					c-16,11.5-12.17,30.34-12.17,30.34L300.33,385c2-21.67-5.16-29-5.16-29c3.16,11.5-2.5,26.5-2.5,26.5
					c-25.67,5.33-85.84-70.33-85.84-70.33c-12.33,22.83-15,38-15,38c26.34-15.5,51.67,24,51.67,24c-28-3.5-44.25,7.66-44.25,7.66
					l8.75,2c9.33,2,14.33,13,14.33,13C240.14,418.77,280,397.94,280.82,397.51z M147.83,399.67c3.67,13.16,1.17,14.83,7,25.16
					c5.84,10.34,20,22.34,19.67,25.34c0,0-31-7.34-31-28.34c0,0-0.5-25.83-9.17-45.33c0,0-11.66-20.17-1-39.33
					c0,0,42.17,25.49,40.67,62.33c0,0-2.67,12.66,6.5,16l17.17,9.17c0,0-36.92-88.17-11.42-121.67c0,0,3.58-3.17,1.25-20.5
					c0,0-6-61.16,34.5-47.33c0,0,40.67,19.83,74.83,81.5l9.21-163.17l7.46,161.25c0,0,48.5-91.5,95.25-74.5
					c0,0,24.25,2.5,17.75,51.5c0,0-3,7.87,3.5,13.75c0,0,16.75,11.67-0.88,67.75l-18.62,56.58c0,0,16-14.33,22.17-17.33
					c0,0,6.83-3.33,7-16.5c0,0-4.34-11,17.66-36.67c0,0,18.34-19.66,23.17-22.33c0,0,2,86.5-42.25,116.75c0,0-1.5-16.5,11.87-29.5
					c0,0,7-6.75,6.26-19c0,0,0.87-33.57,11.65-44.16c-1.33,1.18-15.771,14.36-18.03,31.66c0,0,0.88,20.5-10.5,29.13
					c0,0-9.17,8.78-15.5,20.95c0,0-7.33,14.5-11.67,16.67c0,0-12.7,8.92-13.5,8.66c-23.66-7.66-48.16-7.49-48.16-7.49
					C350,442.83,328,442,328,442s32.25,15.17,2.75,29.46c0,0-6.5,4.37-13.75,14.96c0,0-11.5,7.08-25.75-1.17
					c0,0-9.32-11.62-13.25-13.79c-32.71-18.07,1.25-28.21,1.25-28.21s-25.25-4.08-26.92,15.58c0,0-16.75,0.21-26.66,5
					c-14.04,6.79-22.5-1.66-22.5-1.66S191.5,453.5,186.25,442c0,0-2.13-9.12-17.63-19.62c0,0-9.62-4-8.74-22.38
					c0,0,3.4-25.54-20.88-41.75C139,358.25,144.17,386.5,147.83,399.67z M307.23,475.83c0,0,29.27-5.33,10.6-36.33l-7.94-34.25
					c-9.37,10.5-8.64,13-2.659,33.75C313.21,459.75,307.23,475.83,307.23,475.83z"/>
				<path fill="#2A458C" d="M366.01,402.83c28.32-5.5,28.66-23,28.66-23c-12.2-2.1-18.17,3.5-18.17,3.5
					C376.67,387.44,366.33,402.36,366.01,402.83z M224.17,391.83c0,0,8.68,8.83,22.09,8.67c0,0-10.43-9.17-12.93-19.17
					C233.33,381.33,213.93,378.54,224.17,391.83z M206.83,312.17c0,0,60.17,75.66,85.84,70.33c0,0,5.66-15,2.5-26.5
					c0,0,7.16,7.33,5.16,29l14.17,0.17c0,0-3.83-18.84,12.17-30.34c0,0-19.67,48.17,24.16,18.67c0,0,35.5-27.33,57.67-63.33
					c0,0,9.17,11,12.17,40.33c0,0-23.84-22.83-53.34,25.83c0,0,28.84-13.65,48.34,4.76c0,0-10,1.24-15.67,1.08c0,0-3,18.83-23,25
					c0,0-14,6.66-40-2.67c0,0,22.37,31.98,60.34-2.04l0.33,0.37c-26.5,58.33-74.67,0-74.67,0c-12.17-14-25-1-25-1
					c-57.68,58.67-87.82,4.35-88.32,3.43c0.79,0.681,41.44,35.48,71.14-7.75c-0.82,0.431-40.68,21.26-58.49-0.68c0,0-5-11-14.33-13
					l-8.75-2c0,0,16.25-11.16,44.25-7.66c0,0-25.33-39.5-51.67-24C191.83,350.17,194.5,335,206.83,312.17z M342.17,397.83
					c0,0-1.84-7.83,0-10.16l-9,2.16L342.17,397.83z M268,396l12.17-7l-8.5-3.83C272.17,387.67,268,396,268,396z"/>
				<path fill="#2A458C" d="M317.83,439.5c18.67,31-10.6,36.33-10.6,36.33s5.979-16.08,0-36.83c-5.98-20.75-6.71-23.25,2.659-33.75
					L317.83,439.5z"/>
				<path fill="#2A458C" d="M450.32,276.99c0,0,3.25,14.25,13.25,21.25c0,0,61.75-35.25,84.5-92.25c0,0-44.75,28.5-75.5,38.5
					C472.57,244.49,444.07,248.99,450.32,276.99z M258.67,516c0,0,13.16,15.17,35,8.17c0,0,14.66-4,21.66,0c0,0,21.5,3.5,30.5-8.17
					c1.37-1.77-16.5-8.83-20-9.5s-11.83,4-11.83,4c-10.17,6-17.5-0.5-17.5-0.5c-7.33-3.33-13.83-3.5-13.83-3.5
					C267.67,507,258.67,516,258.67,516z M227.33,483.5c0,0,9.5,61.33,36.5,75.5s36.58-8.83,38.46-9.67
					c1.88-0.83,28.21,32.84,53.88-5.83c25.66-38.67,31.96-59.3,30.83-60c-8.33-5.17-23.83-5.13-23.83-5.13l-2.34,20.8l-9.5-20.67
					c-20.66-1.5-27,10.5-27,10.5c20.09,9.38,32,25.51,32,25.51c-22.83,26-31,22-31,22c-17.83-1.67-19.29-1.83-19.29-1.83
					c-3.79-1.5-8.87,2.83-25.87,2.83s-25.34-15.01-25.34-15.01c-7.66-7.33-1-14.67-1-14.67c6.67-13.66,28.34-17.45,28.34-17.45
					c-3.17-7.63-8.34-12.01-8.34-12.01c-21.66-5.8-27.83,22.46-27.83,22.46L242.33,480L227.33,483.5z M134.33,376.5
					c8.67,19.5,9.17,45.33,9.17,45.33c0,21,31,28.34,31,28.34c0.33-3-13.83-15-19.67-25.34c-5.83-10.33-3.33-12-7-25.16
					c-3.66-13.17-8.83-41.42-8.83-41.42c24.28,16.21,20.88,41.75,20.88,41.75c-0.88,18.38,8.74,22.38,8.74,22.38
					c15.5,10.5,17.63,19.62,17.63,19.62c5.25,11.5,16.92,20.17,16.92,20.17s8.46,8.45,22.5,1.66c9.91-4.79,26.66-5,26.66-5
					c1.67-19.66,26.92-15.58,26.92-15.58s-33.96,10.14-1.25,28.21c3.93,2.17,13.25,13.79,13.25,13.79
					c14.25,8.25,25.75,1.17,25.75,1.17c7.25-10.59,13.75-14.96,13.75-14.96C360.25,457.17,328,442,328,442s22,0.83,22.67,18.67
					c0,0,24.5-0.17,48.16,7.49c0.8,0.26,13.5-8.66,13.5-8.66c4.34-2.17,11.67-16.67,11.67-16.67c6.33-12.17,15.5-20.95,15.5-20.95
					c11.38-8.63,10.5-29.13,10.5-29.13c2.26-17.3,16.7-30.48,18.03-31.66c-10.78,10.59-11.65,44.16-11.65,44.16
					c0.74,12.25-6.26,19-6.26,19c-13.37,13-11.87,29.5-11.87,29.5C482.5,423.5,480.5,337,480.5,337
					c-4.83,2.67-23.17,22.33-23.17,22.33C435.33,385,439.67,396,439.67,396c-0.17,13.17-7,16.5-7,16.5
					c-6.17,3-22.17,17.33-22.17,17.33l18.62-56.58c17.63-56.08,0.88-67.75,0.88-67.75c-6.5-5.88-3.5-13.75-3.5-13.75
					c6.5-49-17.75-51.5-17.75-51.5c-46.75-17-95.25,74.5-95.25,74.5l-7.46-161.25l-9.21,163.17C262.67,255,222,235.17,222,235.17
					c-40.5-13.83-34.5,47.33-34.5,47.33c2.33,17.33-1.25,20.5-1.25,20.5c-25.5,33.5,11.42,121.67,11.42,121.67l-17.17-9.17
					c-9.17-3.34-6.5-16-6.5-16c1.5-36.84-40.67-62.33-40.67-62.33C122.67,356.33,134.33,376.5,134.33,376.5z M68.75,203
					c22.75,57,84.5,92.25,84.5,92.25c10-7,13.25-21.25,13.25-21.25c6.25-28-22.25-32.5-22.25-32.5C113.5,231.5,68.75,203,68.75,203z
					 M49.83,176.83c48.85,36.36,103.7,45.78,107.91,46.46c0.02,0.21,0.12,0.23,0.26,0.04c0,0-0.09-0.01-0.26-0.04
					c-0.52-4.18,23.89-83.35,148.3-84.54c130.71-1.25,164.29,90.09,164.29,90.09c39.67-10.67,98-52.5,98-52.5
					c-6.16,41.33-17.33,54.99-17.33,54.99l-28.17,37.84c0,0-17.83,21.33-37.66,34.5c-19.84,13.16-15.34,25.58-15.34,25.58
					l24.56-21.58c0,0,0.08,30.43-0.12,32.71c-0.079-2.18-0.18-2.79-0.1-0.88c0.04,0.95,0.07,1.2,0.1,0.9
					c0.23,5.57,0.41,21.27-2.5,31.63l-0.01,0.05l-0.72,2.26l-0.04,0.11l-15.83,50l-0.01,0.03l-3.21,10.14
					c-6.04,14.18-17.521,25.04-27.87,26.55c-16.08,2.33-13.58,17.75-13.58,17.75c26.62,2.47,54.34-7.689,55.1-7.97
					C475.65,483.4,452.5,488,452.5,488l-31,5c0,0-17.5,1-36.5,27s-19,35-45,52.5s-37.5,70-37.5,70
					c-16.75-59.75-34.75-70.88-34.75-70.88c-22-10.37-31.63-28.12-31.63-28.12c-5.24-11.88-23-24.75-23-24.75
					C188.25,499.5,189.5,491,189.5,491c-26.62-0.12-33-1.38-33-1.38c-27.32-5.65-35.9-19.351-36.16-19.78
					c0.62,0.33,20.15,4.311,23.16,4.92c0.05,0.01,0.09,0.021,0.13,0.03c0.09,0.01,0.15,0.03,0.19,0.04
					c0.05,0.01,0.07,0.01,0.07,0.01c10.67,2.41,38.53-1.17,38.53-1.17c-1.5-4.67-16.92-12-16.92-12
					c-1.83-1.59-10.83-4.01-17.83-9.18c-7-5.16-9.5-11.33-9.5-11.33s-5.67-7.66-6.67-26.49c-1-18.84-5.67-28.34-5.67-28.34
					c-19.16-55.93-11.16-83.08-11.16-83.08c-0.59-0.83,30.08,25.58,30.08,25.58c2.67-12.33-13.58-23.01-13.58-23.01
					C58.33,251.13,49.83,176.83,49.83,176.83z M418.67,475.83v-8.75l-7.17,6.17L418.67,475.83z M390.08,502.08l19.67-12.5
					c-4.75-2.91-12.25-2.75-12.25-2.75L390.08,502.08z M221.5,505.58l-7.42-19.16l-11.83,3.96C209,498.75,221.5,505.58,221.5,505.58
					z M191.42,474.75l7.83-3.5l-9.92-5.37L191.42,474.75z"/>
			</g>
			<g>
				<path fill="none" stroke="#2A458C" d="M143.5,474.76c-0.11-0.029-0.22-0.06-0.33-0.09"/>
				<path fill="none" stroke="#2A458C" d="M157.74,223.29c-4.21-0.68-59.06-10.1-107.91-46.46c0,0,8.5,74.3,81.34,128.99
					c0,0,16.25,10.68,13.58,23.01c0,0-30.67-26.41-30.08-25.58c0,0-8,27.15,11.16,83.08c0,0,4.67,9.5,5.67,28.34
					c1,18.83,6.67,26.49,6.67,26.49s2.5,6.17,9.5,11.33c7,5.17,16,7.59,17.83,9.18c0,0,15.42,7.33,16.92,12
					c0,0-27.86,3.58-38.53,1.17"/>
				<path fill="none" stroke="#2A458C" d="M157.74,223.29c0.02,0.21,0.12,0.23,0.26,0.04C158,223.33,157.91,223.32,157.74,223.29z"
					/>
				<path fill="none" stroke="#2A458C" d="M494.27,340.38c0.2-2.28,0.12-32.71,0.12-32.71l-24.56,21.58c0,0-4.5-12.42,15.34-25.58
					c19.83-13.17,37.66-34.5,37.66-34.5L551,231.33c0,0,11.17-13.66,17.33-54.99c0,0-58.33,41.83-98,52.5
					c0,0-33.58-91.34-164.29-90.09c-124.41,1.19-148.82,80.36-148.3,84.54"/>
				<path fill="none" stroke="#2A458C" d="M491.77,372.03c2.91-10.36,2.73-26.06,2.5-31.63c0,0,0-0.01,0-0.02
					c-0.079-2.18-0.18-2.79-0.1-0.88c0.04,0.95,0.07,1.2,0.1,0.9"/>
				<path fill="none" stroke="#2A458C" d="M491.04,374.34c0.26-0.72,0.5-1.47,0.72-2.26"/>
				<path fill="none" stroke="#2A458C" d="M490.72,375.18c0.101-0.24,0.19-0.48,0.28-0.73"/>
				<path fill="none" stroke="#2A458C" d="M475.17,424.45c0.01-0.03,0.01-0.07,0.021-0.101"/>
				<path fill="none" stroke="#2A458C" d="M485.6,470.95c-0.76,0.28-28.479,10.439-55.1,7.97c0,0-2.5-15.42,13.58-17.75
					c10.35-1.51,21.83-12.37,27.87-26.55c1.38-3.23,2.47-6.64,3.21-10.14"/>
				<path fill="none" stroke="#2A458C" d="M166.5,274c0,0-3.25,14.25-13.25,21.25c0,0-61.75-35.25-84.5-92.25
					c0,0,44.75,28.5,75.5,38.5C144.25,241.5,172.75,246,166.5,274z"/>
				<path fill="none" stroke="#2A458C" d="M548.07,205.99c0,0-44.75,28.5-75.5,38.5c0,0-28.5,4.5-22.25,32.5
					c0,0,3.25,14.25,13.25,21.25C463.57,298.24,525.32,262.99,548.07,205.99z"/>
				<path fill="none" stroke="#2A458C" d="M120.34,469.84c0.26,0.43,8.84,14.13,36.16,19.78c0,0,6.38,1.26,33,1.38
					c0,0-1.25,8.5,23.62,27.75c0,0,17.76,12.87,23,24.75c0,0,9.63,17.75,31.63,28.12c0,0,18,11.13,34.75,70.88
					c0,0,11.5-52.5,37.5-70s26-26.5,45-52.5s36.5-27,36.5-27l31-5c0,0,23.15-4.6,33.1-17.05c0,0,0.011-0.01,0.021-0.01
					c0.07-0.091,0.14-0.181,0.21-0.271"/>
				<path fill="none" stroke="#2A458C" d="M143.89,474.84c0,0-0.02,0-0.07-0.01c-0.04-0.01-0.1-0.03-0.19-0.04
					c-0.04-0.01-0.08-0.021-0.13-0.03c-3.01-0.609-22.54-4.59-23.16-4.92c-0.01-0.01-0.01-0.01-0.01-0.01"/>
				<polygon fill="none" stroke="#2A458C" points="189.33,465.88 191.42,474.75 199.25,471.25 				"/>
				<path fill="none" stroke="#2A458C" d="M221.5,505.58c0,0-12.5-6.83-19.25-15.2l11.83-3.96L221.5,505.58z"/>
				<path fill="none" stroke="#2A458C" d="M409.75,489.58c-4.75-2.91-12.25-2.75-12.25-2.75l-7.42,15.25L409.75,489.58z"/>
				<polygon fill="none" stroke="#2A458C" points="411.5,473.25 418.67,475.83 418.67,467.08 				"/>
				<path fill="none" stroke="#2A458C" d="M345.83,516c1.37-1.77-16.5-8.83-20-9.5s-11.83,4-11.83,4c-10.17,6-17.5-0.5-17.5-0.5
					c-7.33-3.33-13.83-3.5-13.83-3.5c-15,0.5-24,9.5-24,9.5s13.16,15.17,35,8.17c0,0,14.66-4,21.66,0
					C315.33,524.17,336.83,527.67,345.83,516z"/>
				<path fill="none" stroke="#2A458C" d="M356.17,543.5c-25.67,38.67-52,5-53.88,5.83c-1.88,0.84-11.46,23.84-38.46,9.67
					s-36.5-75.5-36.5-75.5l15-3.5l3.67,20.83c0,0,6.17-28.26,27.83-22.46c0,0,5.17,4.38,8.34,12.01c0,0-21.67,3.79-28.34,17.45
					c0,0-6.66,7.34,1,14.67c0,0,8.34,15.01,25.34,15.01s22.08-4.33,25.87-2.83c0,0,1.46,0.16,19.29,1.83c0,0,8.17,4,31-22
					c0,0-11.91-16.13-32-25.51c0,0,6.34-12,27-10.5l9.5,20.67l2.34-20.8c0,0,15.5-0.04,23.83,5.13
					C388.13,484.2,381.83,504.83,356.17,543.5z"/>
				<line fill="none" stroke="#2A458C" x1="468.12" y1="361" x2="468.11" y2="361.01"/>
				<path fill="none" stroke="#2A458C" d="M438.25,453.75C482.5,423.5,480.5,337,480.5,337c-4.83,2.67-23.17,22.33-23.17,22.33
					C435.33,385,439.67,396,439.67,396c-0.17,13.17-7,16.5-7,16.5c-6.17,3-22.17,17.33-22.17,17.33l18.62-56.58
					c17.63-56.08,0.88-67.75,0.88-67.75c-6.5-5.88-3.5-13.75-3.5-13.75c6.5-49-17.75-51.5-17.75-51.5
					c-46.75-17-95.25,74.5-95.25,74.5l-7.46-161.25l-9.21,163.17C262.67,255,222,235.17,222,235.17
					c-40.5-13.83-34.5,47.33-34.5,47.33c2.33,17.33-1.25,20.5-1.25,20.5c-25.5,33.5,11.42,121.67,11.42,121.67l-17.17-9.17
					c-9.17-3.34-6.5-16-6.5-16c1.5-36.84-40.67-62.33-40.67-62.33c-10.66,19.16,1,39.33,1,39.33c8.67,19.5,9.17,45.33,9.17,45.33
					c0,21,31,28.34,31,28.34c0.33-3-13.83-15-19.67-25.34c-5.83-10.33-3.33-12-7-25.16c-3.66-13.17-8.83-41.42-8.83-41.42
					c24.28,16.21,20.88,41.75,20.88,41.75c-0.88,18.38,8.74,22.38,8.74,22.38c15.5,10.5,17.63,19.62,17.63,19.62
					c5.25,11.5,16.92,20.17,16.92,20.17s8.46,8.45,22.5,1.66c9.91-4.79,26.66-5,26.66-5c1.67-19.66,26.92-15.58,26.92-15.58
					s-33.96,10.14-1.25,28.21c3.93,2.17,13.25,13.79,13.25,13.79c14.25,8.25,25.75,1.17,25.75,1.17
					c7.25-10.59,13.75-14.96,13.75-14.96C360.25,457.17,328,442,328,442s22,0.83,22.67,18.67c0,0,24.5-0.17,48.16,7.49
					c0.8,0.26,13.5-8.66,13.5-8.66c4.34-2.17,11.67-16.67,11.67-16.67c6.33-12.17,15.5-20.95,15.5-20.95
					c11.38-8.63,10.5-29.13,10.5-29.13c2.26-17.3,16.7-30.48,18.03-31.66c-10.78,10.59-11.65,44.16-11.65,44.16
					c0.74,12.25-6.26,19-6.26,19C436.75,437.25,438.25,453.75,438.25,453.75z"/>
				<path fill="none" stroke="#2A458C" d="M468.03,361.09c0.02-0.02,0.029-0.03,0.05-0.05"/>
				<path fill="none" stroke="#2A458C" d="M468.08,361.04c0.01-0.01,0.02-0.02,0.03-0.03"/>
				<path fill="none" stroke="#2A458C" d="M324.04,456.86c0.69,15.779-16.81,18.97-16.81,18.97s5.979-16.08,0-36.83
					c-5.98-20.75-6.71-23.25,2.659-33.75l7.94,34.25C322.06,446.53,323.83,452.24,324.04,456.86z"/>
				<path fill="none" stroke="#2A458C" d="M209.67,405.25c0,0,0,0,0.01,0.01c0.5,0.92,30.64,55.24,88.32-3.43c0,0,12.83-13,25,1
					c0,0,48.17,58.33,74.67,0"/>
				<path fill="none" stroke="#2A458C" d="M280.83,397.5c0,0,0,0.01-0.01,0.01c-29.7,43.23-70.35,8.431-71.14,7.75"/>
				<path fill="none" stroke="#2A458C" d="M397.67,402.17c-0.11,0.1-0.22,0.2-0.33,0.29C359.37,436.48,337,404.5,337,404.5
					c26,9.33,40,2.67,40,2.67c20-6.17,23-25,23-25c5.67,0.16,15.67-1.08,15.67-1.08c-19.5-18.41-48.34-4.76-48.34-4.76
					c29.5-48.66,53.34-25.83,53.34-25.83c-3-29.33-12.17-40.33-12.17-40.33c-22.17,36-57.67,63.33-57.67,63.33
					c-43.83,29.5-24.16-18.67-24.16-18.67c-16,11.5-12.17,30.34-12.17,30.34L300.33,385c2-21.67-5.16-29-5.16-29
					c3.16,11.5-2.5,26.5-2.5,26.5c-25.67,5.33-85.84-70.33-85.84-70.33c-12.33,22.83-15,38-15,38c26.34-15.5,51.67,24,51.67,24
					c-28-3.5-44.25,7.66-44.25,7.66l8.75,2c9.33,2,14.33,13,14.33,13c17.81,21.939,57.67,1.11,58.49,0.68"/>
				<path fill="none" stroke="#2A458C" d="M268,396c0,0,4.17-8.33,3.67-10.83l8.5,3.83L268,396z"/>
				<path fill="none" stroke="#2A458C" d="M246.26,400.5c0,0-10.43-9.17-12.93-19.17c0,0-19.4-2.79-9.16,10.5
					C224.17,391.83,232.85,400.66,246.26,400.5z"/>
				<path fill="none" stroke="#2A458C" d="M342.17,387.67c-1.84,2.33,0,10.16,0,10.16l-9-8L342.17,387.67z"/>
				<path fill="none" stroke="#2A458C" d="M366.01,402.83c0.32-0.47,10.66-15.39,10.49-19.5c0,0,5.97-5.6,18.17-3.5
					C394.67,379.83,394.33,397.33,366.01,402.83z"/>
				<line fill="none" stroke="#2A458C" x1="366.01" y1="402.83" x2="366" y2="402.83"/>
				<polyline fill="none" stroke="#2A458C" points="475.17,424.45 475.16,424.48 471.95,434.62 				"/>
				<polyline fill="none" stroke="#2A458C" points="491.77,372.03 491.76,372.08 491.04,374.34 491,374.45 475.17,424.45 				"/>
			</g>
		</g>
	</g>
</g>
</svg>
