<svg xmlns="http://www.w3.org/2000/svg" data-name="Autostore Logo" viewBox="0 0 840.8 186.75"><path fill="currentColor" d="M264.19 142.38h-46.07l-11 29.05h-15.41l41.38-104h16.58l41.38 104h-15.56ZM223.26 129h35.8L241 82.36Zm100.41 44.61c-16.44 0-26.41-12.33-26.41-28.32v-44.44h13.79v42.41c0 9.68 4.4 18.19 16 18.19 11.15 0 16.73-7.34 16.73-18v-42.6h13.79v57.52a117 117 0 0 0 .74 13.06h-13.22a63 63 0 0 1-.59-8.51c-3.81 7.33-12.62 10.71-20.83 10.71Zm74.39-72.78h15.26v12.47h-15.26V150c0 6.45 2.64 9.68 9.83 9.68a27.4 27.4 0 0 0 5.43-.59v11.74a30.1 30.1 0 0 1-9.39 1.32c-12 0-19.66-7.33-19.66-20.1v-38.73h-13.5v-12.47h3.82c7.63 0 10.85-4.69 10.85-10.86V78.55h12.62Zm97.73 35.22c0 21.57-15 37.56-36.1 37.56s-36.09-16-36.09-37.56 15-37.42 36.09-37.42 36.1 16.01 36.1 37.44Zm-14.09 0c0-16.29-10.27-25.09-22-25.09s-22 8.8-22 25.09 10.27 25.23 22 25.23 22-8.78 22-25.21Zm85.11-40.5c-1.18-7.48-7.49-17.76-22-17.76-11.74 0-20.1 7.63-20.1 17.32 0 7.48 4.54 13.2 13.35 15.11l15.55 3.38c17.32 3.81 27 14.67 27 29.2 0 16.14-13.79 30.81-36 30.81-25.09 0-37-16.14-38.88-31l13.79-4.4c1 11.59 9.24 22.3 24.94 22.3 14.38 0 21.43-7.48 21.43-16.58 0-7.48-5.14-13.94-15.56-16.14l-14.82-3.23c-14.82-3.23-25.38-12.91-25.38-28.46 0-16.29 15.11-31 34.33-31 23.54.1 32.91 14.62 35.26 25.9Zm47.68 5.28h15.26v12.47h-15.26V150c0 6.45 2.65 9.68 9.84 9.68a27.3 27.3 0 0 0 5.42-.59v11.74a30.1 30.1 0 0 1-9.39 1.32c-12 0-19.66-7.33-19.66-20.1v-38.73h-13.5v-12.47h3.8c7.63 0 10.86-4.69 10.86-10.86V78.55h12.61Zm97.73 35.22c0 21.57-15 37.56-36.1 37.56S640 157.64 640 136.07s15-37.42 36.09-37.42 36.13 15.99 36.13 37.42Zm-14.09 0c0-16.29-10.27-25.09-22-25.09s-22 8.8-22 25.09 10.28 25.23 22 25.23 22-8.78 22-25.21Zm68.28-21.28a43.6 43.6 0 0 0-6-.44c-11.59 0-19.36 6.16-19.36 21.72v35.36h-13.8v-70.56h13.5v12.33c5.14-10.86 13.94-13.5 21.13-13.5a25.6 25.6 0 0 1 4.55.44Zm74 36.54c-4 12.47-15.26 22.3-31.69 22.3-18.93 0-35.51-13.79-35.51-37.71 0-22.16 16-37.27 33.75-37.27 21.71 0 33.89 15 33.89 37a30.6 30.6 0 0 1-.29 4.4h-53.17c.3 12.62 9.39 21.42 21.28 21.42 11.44 0 17.17-6.31 19.81-14.23Zm-13.94-22.45c-.29-10.13-6.89-18-19.37-18-11.59 0-18.63 9-19.22 18Z"/><path fill="#e11b22" d="M82.52 15.2A15.2 15.2 0 1 1 67.32 0a15.2 15.2 0 0 1 15.2 15.2M15.2 52.12a15.2 15.2 0 1 0 15.2 15.2 15.2 15.2 0 0 0-15.2-15.2m104.23 0a15.2 15.2 0 1 0 15.2 15.2 15.2 15.2 0 0 0-15.2-15.2m-52.11 52.11a15.2 15.2 0 1 0 15.2 15.2 15.2 15.2 0 0 0-15.2-15.2M15.2 156.35a15.2 15.2 0 1 0 15.2 15.2 15.2 15.2 0 0 0-15.2-15.2m104.23 0a15.2 15.2 0 1 0 15.2 15.2 15.2 15.2 0 0 0-15.2-15.2m-104.23 0a15.2 15.2 0 1 0 15.2 15.2 15.2 15.2 0 0 0-15.2-15.2m104.23 0a15.2 15.2 0 1 0 15.2 15.2 15.2 15.2 0 0 0-15.2-15.2"/></svg>