<svg xmlns="http://www.w3.org/2000/svg" width="155" height="24" fill="none" viewBox="0 0 155 24"><g clip-path="url(#a)"><path fill="#ed1a3b" d="M155 0H0v24h155z" style="fill:#ed1a3b;fill:color(display-p3 .9294 .102 .2314);fill-opacity:1"/><path fill="#fff" fill-rule="evenodd" d="M136.56 14.416c.631 2.57 2.822 3.602 5.291 3.602s5.237-1.138 5.237-3.983c0-1.296-.597-2.4-1.742-3.023-1.026-.534-2.212-.724-3.327-.944-.437-.106-1.295-.225-1.295-.847s.681-.758 1.165-.758c.908 0 1.56.314 1.901 1.19l2.978-.914c-.719-2.054-2.683-2.896-4.723-2.896-1.166 0-2.419.224-3.374.897-.942.67-1.506 1.808-1.506 2.964 0 2.81 2.617 3.412 4.833 3.844.526.106 1.435.241 1.435.965 0 .656-.922.724-1.384.724-1.043 0-1.834-.381-2.141-1.43l-3.34.604m-3.601-8.391h-4.744l-1.611 6.27-1.716-6.27h-4.703v11.82h2.705V9.396l2.246 8.446h2.292l2.141-8.446.03 8.446h3.36zm-17.207 8.997h-5.292v-1.914h4.286v-2.637h-4.286V8.743h5.292V6.02h-8.817v11.82h8.817zm-15.189-6.156h2.414v-2.84h-8.303v2.84h2.47v8.98h3.419zm-19.656 5.555c.635 2.57 2.827 3.602 5.292 3.602s5.236-1.138 5.236-3.983c0-1.296-.597-2.4-1.745-3.023-1.035-.534-2.208-.724-3.323-.944-.446-.106-1.3-.225-1.3-.847s.686-.758 1.161-.758c.909 0 1.556.314 1.901 1.19l2.978-.914c-.719-2.054-2.683-2.896-4.727-2.896-1.166 0-2.41.224-3.374.897-.942.67-1.506 1.808-1.506 2.964 0 2.81 2.62 3.412 4.825 3.844.53.106 1.443.241 1.443.965 0 .656-.926.724-1.393.724-1.039 0-1.83-.381-2.14-1.43l-3.336.604M78.846 6.02H75.69l-1.969 3.891-2.052-3.89h-3.958l3.958 6.824v4.996h3.495v-4.996zm-24.131 8.396c.635 2.57 2.826 3.602 5.291 3.602s5.241-1.138 5.241-3.983c0-1.296-.597-2.4-1.75-3.023-1.026-.534-2.204-.724-3.318-.944-.446-.106-1.3-.225-1.3-.847s.685-.758 1.165-.758c.904 0 1.556.314 1.901 1.19l2.974-.914c-.711-2.054-2.688-2.896-4.72-2.896-1.16 0-2.418.224-3.369.897-.946.67-1.51 1.808-1.51 2.964 0 2.81 2.62 3.412 4.829 3.844.53.106 1.438.241 1.438.965 0 .656-.929.724-1.388.724-1.043 0-1.833-.381-2.14-1.43l-3.34.604m-8.985.606h-5.291v-1.914h4.278v-2.637h-4.278V8.743h5.291V6.02H36.91v11.82h8.824zM25.607 6.02l-3.642 11.825h2.932l.715-2.324h3.137l.67 2.324h3.675L29.418 6.02zm.602 6.914.955-3.433.963 3.433zM16.4 11.723c1.199-.305 1.99-1.359 1.99-2.603 0-.966-.463-1.931-1.25-2.502-.74-.534-1.649-.602-2.54-.602H8.862v11.825h5.384c1.06 0 2.326-.017 3.23-.674.842-.6 1.208-1.74 1.208-2.756 0-1.413-.93-2.45-2.284-2.688m-4.232-3.17h1.405c.69 0 1.405.118 1.405 1.003 0 .27-.118.571-.34.774-.257.242-.67.229-1.01.229h-1.455V8.556zm2.604 6.43c-.29.241-.686.224-1.043.224h-1.556V13.07h1.421c.32 0 .732 0 1.043.157a1.03 1.03 0 0 1 .135 1.757" clip-rule="evenodd" style="fill:#fff;fill-opacity:1"/></g><defs><clipPath id="a"><path fill="#fff" d="M0 0h155v24H0z" style="fill:#fff;fill-opacity:1"/></clipPath></defs></svg>