<svg xmlns="http://www.w3.org/2000/svg" viewBox="42 97.27 737.15 207.4"><path fill="#aaa" d="M202 187v111L43 244zM42 104v111l158-54z"/><path fill="#1c4e90" d="M321 106v17c-5.1-1.7-9.892-3.633-14.805-5.781-12.91-4.925-27.23-5.175-40.066.105-9.678 5.184-16.257 13.002-19.442 23.489-2.338 11.33-.848 22.742 5.438 32.5 5.459 7.24 12.382 10.952 20.875 13.687l1.73.559c15.185 2.953 29.148-1.033 42.434-8.133C320 178 320 178 322 178v17c-18.021 8.89-38.706 11.904-58.219 6.031-13.725-5.235-24.324-14.348-30.656-27.656-5.748-13.063-6.286-29.01-1.125-42.375 6.534-14.174 17.018-23.6 31-30 19.475-7.167 39.392-2.194 58 5m102 1c11.084 8.496 18.983 19.225 22 33 1.293 15.89.197 30.116-10 43l-2.324 2.969c-8.642 10.258-21.955 15.873-34.988 17.844L394 204l-2.172.152c-14.87.608-28.944-3.795-40.203-13.527-11.363-10.908-16.774-22.794-17.582-38.472-.308-15.429 5.15-27.524 15.332-38.778C369.355 95.298 400.105 91.419 423 107m-64.75 19.688c-7.468 9.965-8.867 21.268-7.25 33.312 2.58 10.613 8.858 18.61 18 24.438 9.793 5.34 21.405 6.322 32.27 3.804 11.381-3.955 20.01-11.594 25.777-22.16 3.789-9.24 3.443-21.404-.11-30.644-4.881-9.996-12.62-16.999-22.875-21.313-17.444-5.12-33.197.234-45.812 12.563M462 99c48.195 0 48.195 0 58 9 6.553 8.715 7.894 16.21 7 27-2.025 8.069-5.959 14.343-13.125 18.75C502.148 159.69 490.198 158 477 158v45h-15zm15 14v31l10 .188 3.102.082c6.022.054 10.437-.678 15.898-3.27 3.722-3.818 5.14-7.024 5.25-12.312-.07-4.28-.75-7.106-3.25-10.688-5.01-3.944-8.727-5.136-14.984-5.098l-2.554.008-3.212.028zm62-14h16q.034 20.119.052 40.237.007 9.34.023 18.681.016 9.006.02 18.012.003 3.445.01 6.89.01 4.805.009 9.611l.01 2.908-.004 2.63.003 2.3C555 202 555 202 554 203c-2.332.1-4.666.13-7 .125l-3.875.008C540 203 540 203 539 202a56 56 0 0 1-.12-4.03l-.004-2.63.01-2.909v-3.044c0-3.339.009-6.677.016-10.016l.005-6.923q.006-9.132.024-18.264.014-9.31.02-18.62.016-18.282.049-36.564m35 0h16l.06 6.1q.102 10.016.228 20.032.076 6.067.134 12.136.056 5.865.136 11.73.028 2.228.045 4.457c-.201 14.87-.201 14.87 5.854 28.045 5.682 5.523 14.27 7.536 21.98 7.75 8.945-.276 15.615-2.46 22.563-8.25 7.589-8.367 6.326-21.699 6.414-32.293q.028-2.163.059-4.325.073-5.634.128-11.269c.04-3.848.091-7.696.141-11.545q.142-11.283.258-22.568h15c.09 9.31.164 18.621.207 27.932q.03 6.488.095 12.974c.044 4.182.067 8.364.078 12.546q.01 2.38.043 4.76c.165 12.567-.968 23.88-9.454 33.823-9.367 9.348-21.291 12.468-34.235 12.996-13.92-.116-26.457-3.665-36.605-13.52-9.728-11.476-9.433-26.863-9.324-41.12l.008-4.388q.014-5.712.05-11.422c.02-3.902.03-7.804.04-11.706.02-7.625.056-15.25.097-22.875m115.313-.937c4.608.032 7.558.389 10.898 3.566 2.672 2.965 5.043 6.147 7.364 9.391 1.799 2.5 3.701 4.905 5.616 7.315a617 617 0 0 1 4.051 5.177c4.416 5.636 9.094 11.057 13.758 16.488 8.773-10.726 8.773-10.726 17.39-21.577a424 424 0 0 1 2.733-3.451c2.159-2.706 4.142-5.38 6.033-8.288 2.137-3.122 3.864-5.35 6.844-7.684 2.802-.338 5.032-.448 7.797-.29l2.103.064c1.7.054 3.4.137 5.1.226q.034 20.119.052 40.237.007 9.34.023 18.681.016 9.006.02 18.012.003 3.445.01 6.89.01 4.805.009 9.611l.01 2.908-.004 2.63.003 2.3C779 202 779 202 778 203h-15l-1-77c-8.039 9.5-15.879 19.01-23.227 29.04l-2.086 2.773-1.8 2.457C733 162 733 162 730.488 162.512c-3.31-.681-4.02-1.792-5.988-4.512l-2.062-2.75-1.153-1.555c-2.504-3.303-5.158-6.488-7.785-9.695-4.87-5.971-9.686-11.983-14.5-18l-1 77h-15c-1.962-1.962-1.127-4.974-1.136-7.586l.007-2.875-.006-3.01q-.004-4.953.002-9.904l-.003-6.85q-.001-7.187.006-14.375.006-9.236-.004-18.472-.005-7.075 0-14.15l-.002-6.813q-.003-4.752.007-9.504l-.007-2.875c.024-7.295.145-7.813 7.448-8.523"/><path fill="#006b5a" d="m263.063 233.75 3.035.484c3.213.848 5.35 1.618 7.902 3.766.488 2.918.488 2.918.313 6.188l-.137 3.292L274 250l-1.617-1.059c-5.654-3.453-10.677-5.384-17.383-4.941-3.522 1.255-3.522 1.255-6 3-.418 3.29-.418 3.29 0 7 3.41 4.027 7.39 6.641 11.875 9.313 6.587 4.08 11.58 8.371 15.563 15.125 1.413 6.44 1.16 11.947-2.094 17.769-2.944 3.929-6.74 6.258-11.344 7.793-8.395.718-15.553.14-23-4-2-2-2-2-2.195-5.04l.07-3.585.055-3.602L238 285l1.469 1.207c5.76 4.553 11.178 8.294 18.781 7.73 3.976-.993 5.628-1.431 7.75-4.937 0-5.402-1.4-8.104-5-12-2.962-2.052-2.962-2.052-6.25-3.875-14.175-8.357-14.175-8.357-16.75-15.125-.917-6.755-.74-12.766 3.379-18.379 5.893-5.893 13.687-7.233 21.684-5.871M281 234h58v10h-24v60h-10c-1-1-1-1-1.12-3.36l.006-3.17v-3.579l.016-3.895.005-3.964q.006-5.226.024-10.45.014-5.33.02-10.658c.01-6.975.029-13.95.049-20.924h-23zm67 0c27.705 0 27.705 0 35.336 6.309 3.95 4.014 4.827 8.32 5.039 13.754-.2 5.263-1.24 8.878-5.133 12.632A136 136 0 0 1 378 271l1.292 1.17c5.107 4.839 8.798 10.138 12.52 16.08l1.733 2.719q1.58 2.478 3.146 4.966c1.08 1.703 2.19 3.387 3.309 5.065 6.18-12.868 11.749-25.982 17.313-39.125l2.744-6.46q2.498-5.886 4.991-11.771l1-2.36A466 466 0 0 0 429 234h8c5.342 10.412 10.215 20.983 14.938 31.688l2.119 4.784c4.772 10.79 9.46 21.614 13.943 32.528h-11q-1.976-3.871-3.937-7.75l-1.131-2.21-1.084-2.15-1-1.967C449 287 449 287 448 283h-29l-1 5a188 188 0 0 1-3 7.25l-.828 1.93c-2.031 4.68-2.031 4.68-3.172 5.82-2.344.398-4.672.59-7.043.77-2.01.156-4.014.386-6.008.68-3.277.32-5.752.368-8.949-.45-3.516-3.168-5.658-6.921-8-11a1398 1398 0 0 0-3.875-5.937c-2.952-4.662-2.952-4.662-4.07-7.254-1.118-2.297-1.118-2.297-5.055-3.809l-10-2v30h-10zm10 10v20c8.991.555 8.991.555 17-3 2.356-3.738 2.284-6.602 1.645-10.871-.563-2.404-.563-2.404-2.957-4.691-5.377-2.097-9.935-1.694-15.688-1.438m75 7a4100 4100 0 0 0-4.5 10.375l-1.3 2.984-1.231 2.852-1.143 2.634c-.945 2.082-.945 2.082-.826 4.155h19c-.737-3.686-1.354-6.13-2.848-9.426l-1.084-2.412-1.13-2.474-1.143-2.534q-1.39-3.08-2.795-6.154zm36-17q11.123-.034 22.244-.052 5.163-.007 10.328-.023 5.931-.018 11.862-.023l3.762-.015h3.458l3.062-.007C526 234 526 234 527 235c.133 1.813.133 1.813.125 4l.008 2.188C527 243 527 243 526 244a91 91 0 0 1-5.129.098l-3.135-.01-3.298-.025-3.311-.014q-4.064-.018-8.127-.049l.007 2.233q.03 10.397.045 20.793.007 5.346.023 10.691c.013 4.093.018 8.186.023 12.28l.015 3.894v3.58l.007 3.169C503 303 503 303 502 304h-10v-60h-23zm66 0h39v10h-29v20h28v10h-28v20h30v9h-40zm109 5v11a695 695 0 0 1-9.078-3.07c-10.118-3.365-19.053-4.791-28.922.07-6.19 3.927-9.785 9.058-11.531 16.16-1.107 7.129-.068 13.863 3.343 20.215 5.026 6.03 11.329 9.643 19.188 10.625 6.229.374 11.914-.798 18-2v-13h-13v-10h23v30c-13.815 5.024-28.743 8.302-42.812 2.125C592.67 296.231 586.45 289.141 583 279c-2.304-9.41-1.163-18.884 3.29-27.492 5.35-8.498 12.508-14.423 22.206-17.23 12.146-2.663 24.393-.834 35.504 4.722m15-5h10c1.848 1.848 1.128 4.868 1.13 7.34l.005 2.005q.004 3.297-.002 6.593l.003 4.562q.001 4.786-.006 9.573-.006 6.15.004 12.298.005 4.712 0 9.425l.002 4.536q.003 3.165-.007 6.328l-.002 3.645C670 303 670 303 669 304h-10zm25 0h39v10h-29v20h28v10h-28v20h30v9h-40zm83 4c.488 2.918.488 2.918.313 6.188l-.137 3.292L767 250c-2.023-1.003-4.03-2.016-6.008-3.105-5.18-2.648-9.057-3.231-14.828-2.645-2.819.977-3.698 2.19-5.164 4.75-.084 3.94.533 5.507 3.25 8.375 3.216 2.437 6.717 4.388 10.188 6.438 6.635 3.958 11.677 8.172 15 15.25 1.246 6.506.718 11.061-2.438 16.937-3.964 4.714-7.682 7.636-13.922 8.32-7.42.262-13.543-.688-20.078-4.32-2-2-2-2-2.195-5.04l.07-3.585.055-3.602L731 285l1.469 1.207c5.794 4.58 11.199 8.325 18.843 7.668 3.531-.621 3.531-.621 5.625-2.125 1.445-2.379 1.933-3.949 2.063-6.75-2.133-6.338-6.375-8.63-11.812-11.937-6.921-4.238-12.3-8.417-16.625-15.375-1.207-5.763-.699-11.57 2.562-16.563 3.571-4.351 7.617-6.505 13.063-8 6.989-.23 15.264.213 20.812 4.875"/></svg>