<svg
        xmlns="http://www.w3.org/2000/svg"
        width="134"
        height="90"
        viewBox="0 0 134 90"
>
    <g fill-rule="evenodd">
        <path d="M7.36 22.586c0-3.519.022-6.838.066-9.865.041-2.971.129-5.784.258-8.36h.204c1.051-.128 1.875-.204 2.45-.226.57-.02 1.568-.031 3.054-.031 3.567 0 6.568.194 8.923.577 2.337.379 4.564 1.322 6.621 2.802a13.6 13.6 0 0 1 3.29 3.272 16.7 16.7 0 0 1 2.042 3.885 20.7 20.7 0 0 1 1.022 4.05c.198 1.358.298 2.713.298 4.026 0 1.396-.11 2.848-.33 4.314a24 24 0 0 1-1.123 4.437 16.9 16.9 0 0 1-2.273 4.267 14.6 14.6 0 0 1-3.655 3.499 14 14 0 0 1-3.454 1.715 22.5 22.5 0 0 1-3.701.927 30 30 0 0 1-3.343.352c-.997.043-2.07.064-3.186.064-1.498 0-2.76-.033-3.75-.096a90 90 0 0 1-3.217-.274q-.065-3.105-.097-4.457-.034-1.384-.1-3.113zm34.246-9.638c-1.116-2.8-3.034-5.267-5.704-7.332-1.51-1.158-3.1-2.083-4.725-2.752a23 23 0 0 0-5.224-1.423 50 50 0 0 0-5.904-.517C17.972.862 15.04.828 11.33.828 7.746.828 4.078.764.425.634L.256.63l.01.173c.131 2.227.22 3.923.267 5.043Q.6 7.486.665 9.222c.09 2.662.133 6.186.133 10.472a578 578 0 0 1-.2 15.746c-.043 1.558-.12 3.2-.23 4.877-.114 1.7-.238 3.32-.368 4.834v.422l4.618-.2a61 61 0 0 1 2.655-.063q.596 0 2.424.032c1.216.02 2.813.072 4.889.16 2.192.046 3.137.064 3.263.064 3.417 0 6.676-.478 9.69-1.42 3.02-.944 5.756-2.403 8.133-4.334 2.382-1.937 4.265-4.434 5.598-7.42s2.01-6.5 2.01-10.448c0-3.174-.563-6.201-1.674-8.996m33.326 15.014c-.595-1.521-1.64-2.874-3.102-4.02a19 19 0 0 0-1.736-1.274 17 17 0 0 0-1.949-1.05 46 46 0 0 0-2.571-1.096 524 524 0 0 1-4.748-1.916l-.479-.142a38 38 0 0 1-3.073-1.332 13.5 13.5 0 0 1-2.426-1.56 7.2 7.2 0 0 1-1.886-2.293c-.476-.903-.717-1.962-.717-3.147 0-.676.128-1.426.379-2.228.249-.796.7-1.588 1.339-2.355.635-.76 1.547-1.387 2.712-1.862 1.166-.473 2.641-.686 4.389-.632 1.471.046 2.801.27 3.95.669 1.143.399 2.041.982 2.823 1.53 1.994 1.397 3.471 3.801 3.471 3.801.498-1.271 1.235-3.249 2.664-5.417l.083-.133-.137-.088c-1.132-.738-2.82-1.478-5.02-2.2A24.9 24.9 0 0 0 61.906.013c-4.413-.138-8.175.876-11.183 3.015-3.022 2.15-4.556 5.29-4.556 9.331 0 1.584.3 3.153.89 4.66.591 1.523 1.495 2.762 2.677 3.677.473.411.939.771 1.384 1.068.457.305 1.02.623 1.668.944.664.33 1.375.66 2.112.984.753.33 2.477 1.044 5.12 2.117l.777.355c2.823 1.165 4.991 2.41 6.442 3.7 1.43 1.27 2.154 3.098 2.154 5.432 0 2.298-.868 4.287-2.583 5.915-1.713 1.627-4.283 2.398-7.638 2.294-2.624-.081-4.968-.772-6.967-2.053-2.001-1.285-3.735-3.123-5.069-5.351-.56 2.94-1.133 4.38-2.012 6.43l-.034.112.097.07a20.3 20.3 0 0 0 5.942 2.918c2.156.656 4.484 1.028 6.92 1.104 3 .093 5.664-.257 7.916-1.038 2.257-.783 4.14-1.88 5.598-3.259s2.546-2.947 3.23-4.66c.683-1.713 1.03-3.47 1.03-5.222 0-1.535-.3-3.082-.89-4.594"/>
        <g transform="translate(78.969 .679)">
            <path d="M54.358 44.633a11 11 0 0 1-.382-1.702c-.387-2.39-.822-5.347-1.29-8.788a586 586 0 0 1-1.385-11.023 6683 6683 0 0 1-1.29-11.156c-.397-3.462-.829-7.32-1.32-11.795L48.672 0l-.466.093c-.412.042-.718.063-.888.063q-.317 0-.866-.06a.7.7 0 0 0-.294-.068h-.097l-.04.093a56 56 0 0 1-1.317 2.868q-.548 1.087-1.642 3.194c-1.702 3.207-5.52 10.284-11.345 21.033q-1.449 2.68-3.877 7.13c-.972-1.568-2.346-3.944-4.086-7.07-1.808-3.248-3.77-6.83-5.833-10.641a571 571 0 0 1-5.445-10.292C10.919 3.321 9.866 1.227 9.352.118L9.304.016 9.198.03c-.582.083-1.01.126-1.27.126-.297 0-.657-.041-1.067-.125L6.702 0l-.018.17c-.34 3.261-.84 7.271-1.482 11.919a839 839 0 0 1-2.03 13.837A1309 1309 0 0 1 1.24 38.04C.663 41.526.262 43.749.048 44.643L0 44.841l.416-.003c1.145-.252 2.11-.38 2.872-.38.585 0 1.399.126 2.415.38l.184.044v-.2c0-1.658.064-3.87.192-6.575.13-2.744.314-5.613.548-8.53.235-2.947.527-6 .87-9.073.32-2.883.645-5.437.967-7.598a320 320 0 0 1 6.072 10.886c2.234 4.178 4.804 9.06 7.638 14.511.516.983.97 1.894 1.35 2.71.366.786.898 1.973 1.676 3.737l.04.091h.289l.039-.005c.354-.102.524-.123.605-.123q.247 0 .875.125l.125.025.043-.127q.063-.188.19-.505a94 94 0 0 1 1.32-3.221 75 75 0 0 1 1.833-3.86 655 655 0 0 1 13.114-24.776c.66 6.174 1.174 11.206 1.53 14.968.375 3.972.67 7.36.903 10.355.234 3.032.353 5.383.353 6.985v.16l.303-.004a28 28 0 0 1 1.83-.285 18 18 0 0 1 2.014-.095c.462 0 .913.02 1.34.063q.632.062 1.672.256c.439.053.556.064.598.064h.207z"/>
        </g>
        <path d="M0 57.329h133.391V56.18H0z" />
        <path d="M0 90h133.391v-1.149H0z" />
        <path d="M11.185 71.706a4.9 4.9 0 0 1-1.545.582c-.94.187-1.869.188-2.59.144a5 5 0 0 1-.609-.065v-1.245c0-.877.018-1.773.054-2.663l.097-2.525q.36-.039.84-.067c.394-.025.9-.038 1.503-.038.438 0 .89.045 1.346.132q.67.131 1.24.481c.372.23.68.546.914.936.233.388.35.89.35 1.493 0 .7-.15 1.283-.45 1.734a3.5 3.5 0 0 1-1.15 1.1m6.04 9.862a18 18 0 0 1-.955-1.003q-.6-.666-1.277-1.468-.679-.804-1.41-1.681-.731-.879-1.413-1.684-.678-.801-1.225-1.47l-.637-.77c.421-.077.88-.198 1.369-.362a7.2 7.2 0 0 0 1.788-.89 5.3 5.3 0 0 0 1.425-1.465c.395-.6.595-1.323.595-2.151 0-.775-.155-1.434-.458-1.957a3.6 3.6 0 0 0-1.245-1.269c-.512-.316-1.119-.544-1.803-.681-1.134-.227-2.419-.243-3.637-.139-.953.081-1.986.073-2.952.023q-.73-.037-1.487-.085l-.222-.016.01.224q.078 1.632.144 3.203c.043 1.04.065 2.114.065 3.195v4.257c0 1.081-.022 2.16-.065 3.208a347 347 0 0 1-.144 3.115l-.012.228.228-.019a16.6 16.6 0 0 1 2.529 0l.227.02-.012-.229q-.078-1.531-.144-3.115a78 78 0 0 1-.066-3.208v-1.607h.712a31 31 0 0 1 1.774 1.922c.666.78 1.33 1.573 1.97 2.36a99 99 0 0 1 1.76 2.222q.796 1.036 1.189 1.556l.07.094.115-.016q.353-.048.731-.048h1.543q.379 0 .758.048l.607.076z" />
        <path d="M37.424 81.07q0-.167.013-.372.011-.188.057-.338l.096-.318-.326.065c-.413.081-.902.142-1.453.182q-.846.061-1.796.098c-.631.026-1.284.038-1.94.038h-1.638a44 44 0 0 1-.031-1.19q-.013-.913-.014-2.322v-2.45q.001-.39.014-.646a10 10 0 0 0 .01-.292q.429.002 1.069.012l1.699.025c.602.008 1.205.028 1.794.06.617.035 1.13.075 1.571.124l.275.03-.058-.27a3.4 3.4 0 0 1 0-1.426l.055-.263-.267.022q-.574.051-1.21.087-.64.036-1.397.073a73 73 0 0 1-3.528.087 138 138 0 0 0-.013-1.189 147 147 0 0 1-.014-1.878c0-.603.014-1.149.04-1.62q.035-.634.06-1.323a58 58 0 0 1 3.674.123q.77.05 1.462.1.694.05 1.532.1l.261.015-.054-.257a3.4 3.4 0 0 1 0-1.402l.053-.251-.256.01q-1.177.05-2.325.088c-1.522.05-3.113.048-4.652 0q-1.162-.038-2.337-.087l-.219-.01.011.219q.079 1.582.144 3.166a78 78 0 0 1 .065 3.208v4.256c0 1.08-.022 2.155-.065 3.195a390 390 0 0 1-.144 3.154l-.01.217.217-.008a59 59 0 0 1 2.371-.05h4.744c.768 0 1.553.017 2.33.05l.285.012-.087-.271a2 2 0 0 1-.068-.584"/>
        <path d="M57.774 73.827q-.582.02-1.162.028c-.934.018-1.852.022-2.864-.012a43 43 0 0 0-1.109-.023l2.542-5.608zm6.307 7.786c-.224-.392-.516-.97-.866-1.718q-.538-1.137-1.203-2.583-.666-1.448-1.424-3.128a794 794 0 0 1-3.004-6.767l-1.413-3.224h-.754l-.053.117a1196 1196 0 0 1-4.05 8.707 624 624 0 0 1-4.128 8.608l-.16.326.36-.04a9.6 9.6 0 0 1 1.89 0l.166.018.047-.16c.228-.76.569-1.723 1.016-2.866.436-1.123.929-2.318 1.462-3.552q.742-.021 1.464-.032c1.077-.02 2.2-.017 3.313 0q.795.01 1.567.032.32.765.684 1.604l.77 1.78q.38.877.69 1.677c.205.527.372.984.493 1.362l.052.158.165-.021q.351-.048.665-.048h1.386q.314 0 .666.048l.4.053z"/>
        <path d="M84.902 81.65a2 2 0 0 1-.121-.605q0-.272.122-.686l.088-.293-.304.039a36 36 0 0 1-3.639.282 161 161 0 0 1-3.353.038q-.025-1.734-.049-3.898a472 472 0 0 1-.027-5.404c0-1.081.022-2.156.066-3.196q.065-1.57.144-3.203l.012-.242-.24.035q-.337.048-.65.086c-.4.046-.805.046-1.207 0a26 26 0 0 1-.647-.086l-.24-.035.011.242q.079 1.633.144 3.203a75 75 0 0 1 .065 3.196v4.255c0 1.081-.02 2.161-.065 3.21a310 310 0 0 1-.144 3.115l-.01.217.218-.008c.83-.033 1.64-.05 2.409-.05h4.822c.795 0 1.601.017 2.398.05l.289.012z"/>
        <path d="M105.943 66.217a2.6 2.6 0 0 1-.122-.711q0-.273.123-.741l.068-.258-.266.008q-1.725.05-3.37.086c-2.182.05-4.553.05-6.734 0a500 500 0 0 1-3.37-.086l-.267-.008.068.258q.123.471.123.716 0 .317-.122.736l-.085.294.303-.04c.363-.05.778-.09 1.23-.122a57 57 0 0 1 2.916-.137q.637-.009 1.227-.012c.048 1.636.073 3.29.073 4.922v4.257c0 1.062-.022 2.141-.066 3.208a280 280 0 0 1-.144 3.115l-.012.228.228-.019a16.6 16.6 0 0 1 2.53 0l.226.02-.011-.229q-.079-1.531-.144-3.115a76 76 0 0 1-.065-3.208v-4.257c0-1.632.024-3.286.072-4.922q.59.003 1.228.012.741.014 1.482.05.743.037 1.434.087c.452.031.866.072 1.23.122l.304.04z"/>
        <path d="M129.993 64.518c-.416.08-.748.12-.98.12-.235 0-.566-.04-.983-.12l-.15-.028-.067.136a67 67 0 0 1-2.37 4.417q-.653 1.11-1.305 2.173a58 58 0 0 1-1.077 1.688 369 369 0 0 1-2.41-4.059 170 170 0 0 1-2.389-4.227l-.065-.12-.137.018a19 19 0 0 1-.712.086c-.456.049-.94.049-1.397 0q-.349-.035-.711-.086l-.436-.06.241.368q.261.395.757 1.172.495.78 1.11 1.757.613.978 1.295 2.054l1.293 2.054q.614.976 1.123 1.78l.741 1.175q-.001 1.974-.026 3.776c-.018 1.204-.078 2.245-.183 3.096l-.028.244.243-.021a17 17 0 0 1 2.529 0l.239.02-.024-.24a26 26 0 0 1-.09-1.36 92 92 0 0 1-.066-1.853 168 168 0 0 1-.053-3.94c.272-.495.596-1.056.965-1.667q.574-.95 1.33-2.136a106 106 0 0 1 1.749-2.642q.991-1.458 2.245-3.265l.28-.402z"/>
    </g>
</svg>