<svg xmlns="http://www.w3.org/2000/svg" xml:space="preserve" fill="#fff" viewBox="0 0 421.6 64.9"><path d="M85.546 30.36h9.387L92.4 40.014c-3.08.973-7.44 1.613-11.12 1.613-7.067 0-10.414-2.107-10.414-6.587 0-.973.267-2.693.64-4.32.92-3.933 1.787-6.2 3.08-8.04 1.947-2.746 5.827-4 12.36-4 4 0 7.667.427 10.68 1.294l-1.72 6.64c-2.533-.48-4.32-.707-6.426-.707-6.094 0-8.96 2.427-8.96 7.507 0 1.72.813 2.64 2.48 2.64.373 0 .6-.054 1.133-.16zm14.787-10.853h21.373l-1.733 6.747h-12.52l-.653 2.426h12.533L118.2 33h-12.467l-.6 2.267H117.6l-1.454 5.613H94.773zM124.026 19.52h9.814l2.64 12.147 3.026-12.147h9.067l-5.507 21.374h-9.986l-2.8-11.12-2.694 11.12h-9.12zm26.92 0h21.374l-1.72 6.747h-12.467l-.64 2.427h12.467l-1.08 4.32h-12.52l-.534 2.266h12.467l-1.453 5.614h-21.374zM181.493 29.774l1.08-4.107h2.32c2.64 0 3.08.213 3.08 1.453 0 .92-.48 1.894-1.08 2.267-.48.32-1.187.373-3.24.373zm-12.36 11.12h9.507l1.666-6.48 4.16 6.48h20.12l1.827-2.92h7.813v2.92h9.013l-.053-21.374H207.6l-12.666 21.04-5.24-7.986c3.027 0 4.213-.374 5.453-1.72 1.347-1.454 2.214-4.054 2.214-6.694 0-3.293-1.507-4.693-5.067-4.693l-4.373.053h-13.227zm55.013 0h17.973l1.947-7.387h-8.96l3.667-13.973h-9.067zm-14.56-8.307 4.533-7.507.16 7.507zM266.333 32.534l4.6-7.454v7.44zm-14.774 8.306h9.774l1.786-2.853h7.827v2.853h8.8V19.52h-15.653zm29.294-14.186h5.613l-3.667 14.186h9.28l3.667-14.186h5.4l1.893-7.12h-20.293zM310.16 33.107c0-3.773 2.16-6.8 4.906-6.8 1.893 0 2.8.653 2.8 1.947 0 4-2.107 6.96-4.907 6.96-1.826 0-2.8-.76-2.8-2.107m-9.333 1.627c0 5.066 2.973 6.853 11.387 6.853 7.72 0 11.333-1.84 13.333-6.693 1.133-2.814 2.053-6.96 2.053-9.494 0-4.96-2.853-6.586-11.6-6.586-6.96 0-10.253 1.4-12.413 5.346-1.52 2.8-2.76 7.494-2.76 10.574m24.653 6.146h8.907l3.186-12.253.92 12.253h5.067l7.227-12.04-3.187 12.04h8.907l5.56-21.373h-12.414l-6.2 11.547-.706-11.547h-11.707zm33.4 0h9.067l5.56-21.373h-9.28zM381.279 41.747c-6.587 0-9.333-1.893-9.333-6.48 0-4.32 1.24-9.067 3.186-11.867 2.16-3.186 5.507-4.373 12.04-4.373 3.294 0 5.987.267 9.494 1.027l-1.84 7.333c-2.054-.427-3.454-.6-4.854-.6-5.186 0-8.04 2.053-8.04 5.667 0 1.786.974 2.426 3.72 2.426 1.787 0 4.747-.44 7.614-1.133l-1.52 6.533c-2.92.92-6.694 1.467-10.467 1.467m14.027-6.587c3.08.427 5.013.6 7.4.6 3.826 0 5.506-.426 5.506-1.4 0-.426-.32-.64-1.026-.64h-2.8c-4.054-.053-4.8-.16-6.094-.92-1.186-.706-1.773-1.893-1.773-3.666 0-3.88 1.613-7.387 3.987-8.587 2.213-1.133 5.933-1.72 11.013-1.72 1.133 0 2.587.053 4.213.107 2.8.106 3.56.213 5.88.6l-1.666 6.64c-3.774-.32-4.96-.387-7.28-.387-4.107 0-5.774.427-5.774 1.453 0 .6.427.867 1.347.867h4.533c1.187 0 2.16 0 2.854.107 1.946.266 3.186 1.893 3.186 4.093 0 4.16-1.84 7.24-4.973 8.307-2.373.813-5.08 1.133-9.333 1.133-1.24 0-2.48-.053-3.667-.107-2.64-.16-3.88-.32-6.853-.866zM21.907 15.387 31 30.987l9.053-15.6L31 .014z" class="st0"/><path d="m31 0-9.093 15.374L31 30.974l9.053-15.6zM21.907 47.187 31 62.56l9.053-15.373L31 31.587zM0 31.4l15.373 9.094 15.6-9.094-15.6-9.053zM31.027 31.4l15.6-9.053L62 31.4l-15.373 9.094z" class="st0"/></svg>