<svg xmlns="http://www.w3.org/2000/svg" xml:space="preserve" width="327.348" height="305.485" viewBox="0 0 546.652 510.141"><defs><clipPath id="a" clipPathUnits="userSpaceOnUse"><path d="M0 382.606h409.989V0H0Z"/></clipPath></defs><g clip-path="url(#a)" transform="matrix(1.33333 0 0 -1.33333 0 510.141)"><path d="M0 0c-.038 3.205-1.238 6.361-2.963 9.799l-.459.888-.004-.002-.01-.001.012.005-.46.89C-12.88 28.545-24.639 46.21-28.015 50.353l-.047.057-.037.061c-.727 1.246-1.493 3.668-1.788 6.449-.356 2.969-.243 5.951-.409 7.561-.2 1.379-.913 2.318-1.942 3.777-1.008 1.37-2.289 2.953-3.597 4.788a776 776 0 0 0-5.518 7.833 289 289 0 0 0-2.031 2.958c-.546.816-.826 1.221-.944 1.444-.734 1.295-1.444 2.212-1.75 2.906q-.065.142-.126.282l-.127.291.063.308c.232 1.143.521 3.04.523 5.415 0 .063-.002.076-.002.16l-.002.173c-.019 6.612-2.661 17.024-14.726 23.901a250 250 0 0 0-7.967 4.765l-1.078.678.909.887c2.233 2.18 3.576 5.337 3.582 8.539l-.002.122.002.034v.015a12.32 12.32 0 0 1-3.736 8.841l-.439.402c-33.402 32.619-79.335 52.822-129.92 52.822l.041.002c-.079-.004-.081-.002-.135-.004l-.058.002h-.044c-50.597 0-96.523-20.203-130.111-52.992l-.105-.091c-2.429-2.346-3.884-5.511-3.888-8.954v-.092l-.001-.186a12.24 12.24 0 0 1 1.924-6.368l.585-.922-.969-.502c-1.489-.773-3.427-1.817-5.322-3-3.135-2.003-6.142-4.168-7.355-6.798-1.014-2.33-.944-3.396-1.787-5.577-.759-1.998-2.121-4.623-3.393-6.955-1.279-2.355-2.439-4.354-2.893-5.352-.565-1.292-.677-2.772-.687-4.351 0-1.746.19-3.488.346-4.614l.082-.592-.487-.354c-3.823-2.786-12.067-10.41-12.096-24.349 0-1.438.088-2.937.278-4.495l.053-.418-.264-.327c-4.499-5.616-23.952-30.176-29.915-45.382-.343-.905-1.069-1.737-1.779-3.184-.7-1.406-1.343-3.232-1.352-5.571v-.132q-.003-.126-.002-.262c.015-2.9.945-5.912 4.255-9.014l1.189-1.055.222-.168c.187-.123.258-.2.543-.4.309-.223.789-.554 1.546-1.018 4.491-2.752 13.941-9.536 18.54-19.982l.015-.032.012-.036c.034-.095.087-.239.137-.356.24-.452.205-.538.683-.993.397-.263.166-.127.485-.245.404-.11.743-.146 1.335-.226 1.525-.186 3.684-.353 4.191-.394l.264.003c.217.035.409.089.603.164l.639.242.458-.507c.171-.193.307-.35.453-.494 2.178-2.154 6.121-4.35 13.079-4.517h.025c.03 0 .059.027.059.051l.002.011c0 .025-.027.058-.044.058l-1.115.617c-1.22.938-3.247 3.235-5.445 8.825l-.322.825.78.42c4.514 2.437 11.057 5.437 18.652 7.316l.349.087.325-.159c2.096-1.025 4.057-2.185 5.265-3.614l.38-.455-.215-.553c.002-.004-.542-1.37-1.099-3.701-.557-2.333-1.113-5.592-1.113-9.267 0-2.258.208-4.67.755-7.124l.143-.646-.542-.387c0-.001-.257-.181-.704-.552a22 22 0 0 1-1.748-1.613c-1.358-1.385-2.925-3.362-3.804-5.636l-.129-.333-.312-.178-.9-.506-.953-.535-.449.995a46 46 0 0 0-1.081 2.581 57.5 57.5 0 0 0-2.257 7.355l-.01.006-.086.422c-.003.022-.027.045-.067.049a.05.05 0 0 1-.048-.035c-2.279-4.611-3.012-8.642-3.015-11.906v-.013a23 23 0 0 1 .078-1.75l.133-1.605-1.497.593a2.1 2.1 0 0 1-.782.158h-.021a2.5 2.5 0 0 1-.487-.053c-.769-.126-1.32-.757-1.541-1.164-.27-.491-.31-.75-.342-.864l-.008-.04-.001-.009-.001-.013-.002-.014-.009-.04-.028-.15-.096-.575c-.08-.497-.19-1.218-.298-2.101a56 56 0 0 1-.434-6.707c.061-4.626.521-9.937 3.911-13.485 5.219-5.212 14.357-14.633 14.945-15.236l.011-.01.08-.081c.143-.126 1.326-1.235 3.403-2.002l1.212-.443-.732-1.065a12.25 12.25 0 0 1-2.15-6.889l-.002-.053h-.032l.034-.061c0-3.439 1.429-6.62 3.738-8.844l.436-.403c28.817-28.138 66.978-47.032 109.401-51.685l.607-.066.217-.575c2.992-7.898 10.622-13.52 19.569-13.518 8.927-.002 16.543 5.594 19.547 13.468l.22.572.607.066c42.62 4.566 80.963 23.508 109.992 51.844l.081.084c.036.039.991 1.128 1.973 2.77.983 1.673 1.994 3.822 2.009 6.164 0 .069-.002.065-.002.111-.053 2.435-.748 4.803-2.028 6.79l-.721 1.121 1.277.379c2.383.708 3.96 1.998 4.871 3.123.299.374.454.672.75 1.227.93 1.795 2.377 5.155 3.926 8.477 1.546 3.32 3.191 6.568 4.293 7.873 1.319 1.695 5.095 4.339 5.192 8.766 0 .164-.006.304-.011.405-.129 1.758-.812 3.428-1.47 4.805a28 28 0 0 1-.885 1.676l-.188.318-.255.438.198.463c.575 1.351 1.276 3.601 1.278 6.612l-.002.021c0 2.862-.648 6.393-2.64 10.431-.005.016-.031.033-.047.035l-.016-.001c-.018 0-.043-.021-.049-.046l-.001-.007-.009-.033q-.007-.042-.024-.113c-.02-.095-.05-.236-.092-.411a57 57 0 0 0-.375-1.479 52 52 0 0 0-1.561-4.797 37 37 0 0 0-2.21-4.783l-.55-.988-.911.663c-11.195 8.18-12.437 21.456-12.444 27.139.003 1.723.12 2.767.123 2.798l.067.595.555.221c4.05 1.619 8.225 2.216 12.183 2.216 3.318 0 6.485-.418 9.321-1.01l.215-.045.179-.134c.477-.357.959-.715 1.44-1.063.247-.178.498-.35.751-.525l.695-.479-.355-.767c-1.46-3.125-2.881-5.284-4.093-6.745-1.008-1.216-1.866-1.956-2.47-2.391a6 6 0 0 0-.71-.452 4 4 0 0 0-.181-.09l-.086-.039a.07.07 0 0 1-.018-.042h-.074l.077-.016c.004-.023.035-.049.063-.049q-.001.002.004.002c7.166.606 11.949 2.493 15.139 4.586l.36.237.422-.102c.43-.102.839-.17 1.261-.185q.451-.039.879-.042c.07 0 .058.002.131.002l.013.002c2.588 0 5.264 1.088 7.285 3.382 7.358 8.265 18.717 15.94 23.45 21.01C-1.183-5.506-.242-3.319-.042-1.066h-.04z" style="fill:#fccb06;fill-opacity:1;fill-rule:nonzero;stroke:none" transform="translate(404.224 184.078)"/><path d="m0 0 1.751 3.292-12.523 6.658-1.75-3.29 4.464-2.374-13.419-25.236 3.785-2.011L-4.275 2.273zm7.072-17.779 1.396 3.456L2.469-11.9l3.804 9.419 6.715-2.715 1.397 3.456L3.697 2.578-8.406-27.378 2.28-31.697l1.398 3.457-6.715 2.714 4.11 10.171zm15.527 4.156c-.842-3.146-2.453-4.844-5.499-3.805l2.76 10.307.662-.178c3.169-.761 2.875-3.345 2.077-6.324m-.967 9.798-4.968 1.331-8.361-31.208 4.137-1.109 4.094 15.272.081-.022 1.538-16.782 4.304-1.153-1.683 16.732c3.603-.299 5.668 3.937 6.456 6.876 2.096 7.824-2.578 9.253-5.598 10.063m20.395-15.711-.783-12.958-.098-.072-4.049 25.364-4.075.572-4.497-31.995 4.244-.596 1.652 11.754.872 10.824.037 2.116.097.073 4.004-25.704 3.946-.553 4.496 31.993-4.242.596zM-71.367 105.899c-2.51 7.895-8.421 9.92-8.421 9.92 6.592-12.582 1.864-21.09 1.864-21.09s7.008-.828 11.356 2.793c3.443 10.504-4.461 19.379-4.461 19.379 1.039-4.808-.338-11.002-.338-11.002m55.771-92.741-6.611-9.442-6.579-11.19-.121-.02 7.906 24.437-3.37 2.36-18.53-26.466 3.508-2.459 6.808 9.724 5.692 9.25.995 1.867.118.02-8.102-24.717 3.265-2.287L-12.086 10.7zm-15.182 11.851L-52.396.999l3.182-2.868 21.619 24.011zm225.894 89.969c-.139-.709 3.723-1.577 8.638-4.606 4.764-2.936 10.479-7.955 16.881-13.514.57-.397-.081-1.28-.251-1.149-16.94 13.144-33.577 15.101-33.388 12.922.076-.881 3.845-.903 8.569-2.658 6.89-2.56 16.294-7.411 23.245-12.442.485-.306-.065-.814-.355-.749-19.588 6.91-37.334 10.885-37.106 8.492.096-1.004 5.649-1.121 12.472-3.035 9.443-2.651 21.818-7.387 29.997-10.485.241.075 1.362-.308 3.739 1.73 1.902 1.766 1.631 2.681 1.631 2.681-18.434 20.027-33.617 25.144-34.072 22.813M57.087-53.738h-.827v2.783c.287.069.677.116 1.052.116 1.384-.036 1.793-.54 1.826-1.422-.03-1.097-.575-1.433-2.051-1.477m2.299-1.16c1.003.408 1.745 1.288 1.732 2.676-.004 1.876-1.436 3.154-3.816 3.158-.971 0-1.971-.183-2.866-.603l-.162-.075v-9.956h1.986v4.228l.55-.002c.653-.016.934-.239 1.235-.839l1.62-3.387h2.197l-1.872 3.854c-.17.346-.362.67-.604.946M81.265-6.581l6.165-31.716 4.205.819-6.163 31.713zm52.237 14.35 7.76-8.961 3.263-3.451-4.312-2.798-6.782 15.162zm-4.808 4.335 11.703-30.923 3.521 2.288-2.423 5.935 5.389 3.5 4.438-4.63 3.629 2.358-23.418 23.316zM-89.697 141.03c-.826-16.938 13.289-11.293 13.289-11.293-8.967 2.988-13.289 11.293-13.289 11.293M105.801-30.022c-3.22-1.047-5.428 4.228-7.548 10.749-2.118 6.518-3.43 12.084-.211 13.13s5.428-4.228 7.548-10.749c2.118-6.519 3.431-12.086.211-13.13M96.797-2.311c-7.905-2.569-4.664-12.825-2.862-18.367 1.8-5.542 5.206-15.745 13.112-13.176s4.663 12.823 2.862 18.367C108.108-9.944 104.704.257 96.797-2.311M57.438-61.833a7.11 7.11 0 0 0-7.101 7.103 7.11 7.11 0 0 0 7.101 7.099 7.116 7.116 0 0 0 7.098-7.099 7.117 7.117 0 0 0-7.098-7.103m0 16.102a9 9 0 0 1-9.002-8.999c0-4.975 4.026-9 9.002-9a9 9 0 0 1 8.998 9c-.002 4.971-4.034 8.995-8.998 8.999M78.127-7.118 64.05-8.848l.454-3.699 5.018.616 3.484-28.368 4.253.523-3.483 28.369 4.806.59zm-17.94-24.203-5.141-.09 2.284 16.453.086.002 1.832-11.709zM55.636-8.73l-6.464-32.426 4.199.073 1.091 6.319 6.426.112 1.309-6.276 4.327.075L59.02-8.671zm104.69 8.719-18.372 21.893-3.281-2.754 20.768-24.75 8.796 7.382-2.398 2.855zm-268.924 92.668s-2.819-2.275-2.646-3.296c.337-1.992 2.578-.69 3.158-.092 9.794 10.11 27.609 16.48 27.436 17.517s-15.426-3.384-27.948-14.129m220.557-29.358H18.756v12.375h4.156c4.563 0 8.18 3.765 8.18 8.328l-.082 80.047a8.26 8.26 0 0 1-8.27 8.266h-3.906v9.375h54.092v-9.445l-4.326-.008c-4.567 0-8.305-3.781-8.305-8.348l-.039-85.554h27.012c3.678 0 7.033 3.559 6.697 7.288-.107 1.149-.224 2.825-.224 4.012 0 7.129 4.136 13.379 10.304 16.524l6.104-6.106a15.87 15.87 0 0 1-5.18-11.75c0-5.489 2.781-10.328 7.01-13.188zm-54.52 150.332c-52.193 0-94.502-42.308-94.502-94.5S5.246 24.627 57.439 24.627c52.19 0 94.499 42.312 94.499 94.504s-42.309 94.5-94.499 94.5m195.355-108.926-.002-.027a8 8 0 0 0-.097-.657l-3.421 2.79-1.832-1.832c-8.539 7.32-15.553 5.492-15.553 5.492l-8.541-5.492c11.553-.71 14.196-8.873 14.391-15.564l-.032-.028a181 181 0 0 1-2.53-2.185l-.269-.24a132 132 0 0 1-2.325-2.108l-.212-.198a91 91 0 0 1-2.263-2.194q-.238-.24-.475-.482a68 68 0 0 1-2.156-2.285c-1.418-1.561-2.847-2.085-4.548-2.105-2.502-.032-5.596 1.435-8.567 3.359a47 47 0 0 0-2.05 1.399c-3.612 2.562-6.593 5.296-8.875 6.258-2.481.981-8.707 2.533-16.246 2.544q-.71 0-1.433-.021c-.228-.006-.461-.019-.691-.028-.251-.011-.5-.018-.753-.033-.311-.017-.623-.042-.937-.066q-.256-.016-.515-.038-.55-.048-1.106-.11c-.117-.014-.233-.024-.351-.038a46 46 0 0 1-1.242-.165l-.215-.03a48 48 0 0 1-1.362-.229l-.093-.017c-4.935-.913-9.953-2.741-14.399-6.051.509 1.559.988 3.134 1.428 4.722 6.182 3.044 16.298 6.188 30.268 4.64 0 0-8.645 2.738-21.739 1.949l-2.234 2.664s-2.12-1.062-4.791-3.17q.385 1.758.715 3.537c3.281 2.073 6.812 2.958 6.812 2.958l2.436 7.929c-.739.063-3.543 1.437-7.539 3.585.074 1.412.116 2.832.137 4.257 5.544-2.429 10.149-4.485 11.978-5.4 0 0-1.826 5.793 8.541 7.015 0 0-9.582 1.625-20.563 3.79-.026.817-.057 1.632-.101 2.443 13.764-1.689 27.452-1.127 35.912 5.052 0 0-7.318-1.527-15.555-.918 0 0 7.932 2.442 14.334 10.067 0 0-7.316-3.658-18.299-2.742 0 0 10.983 5.486 14.334 10.365 0 0-13.109-5.182-22.259-5.182 0 0 8.541 3.352 12.197 7.014l-11.192-.929 3.012 4.572s-14.695 4.287-17.742 16.486l5.414-.662s-4.488 16.417 5.196 21.141c-1.24 1.24-9.92 3.72-9.92 3.72s10.068.651 14.644-1.181c0 0-.826 1.595-3.07 3.248S171.194 198 171.194 198s11.285.612 14.64-2.744c0 0-3.355 6.098-6.095 8.235 0 0 6.711-2.137 10.672-6.709l2.746.302s-.61 6.407-3.66 11.59c0 0 6.097-4.574 8.843-11.892 0 0 2.196-3.051 8.072-2.427l-.115-.385.179-.453c.017-.038.873-2.22 2.295-4.751 1.358-2.37 3.128-5.066 5.476-6.639a37 37 0 0 1 2.137-4.808c1.398-2.579 3.356-5.538 6.151-7.277v-.157c0-1.562.052-4.715.434-7.919.417-3.218 1.003-6.428 2.65-8.485 2.897-3.461 15.308-22.043 24.232-39.092 1.891-3.596 2.995-6.612 2.981-8.978a8 8 0 0 0-.038-.706m-44.367-33.847c1.379 1.496 3.067 3.86 4.783 7.471 2.144-1.366 4.413-2.554 6.74-3.152-2.481-1.753-6.133-3.41-11.523-4.319m-18.661-20.667c-.214-.202-7.871 1.786-12.168 9.661-4.289 7.861 2.149 8.935-2.855 12.513-5.008 3.584-5.899 8.295-1.785 9.66 2.14.711 3.929.362 7.511-1.786 3.567-2.149 2.856-5.725 3.215-16.098.352-10.377 6.296-13.747 6.082-13.95m11.224-8.137c1.281 0 2.51.101 3.671.323.354-.659.87-1.732 1.414-3.204.838-3.473-.67-3.749-1.512-4.103-8.778-3.537-9.064-15.005-14.193-12.884-6.096 2.524 1.263 19.339 1.263 19.339s-11.9-4.429-14.422-2.535c-2.519 1.895 2.13 7.187 2.13 7.187s-10.345-2.6-12.443-1.131c-2.106 1.473 1.531 6.786 1.531 6.786s-7.067-3.365-10.223-1.685c-3.153 1.684 2.97 7.607 2.97 7.607s-6.748-2.815-8.849-1.131c-.495.396-.621 1.055-.537 1.823a112 112 0 0 1 7.625 13.909l-.011-.066a44 44 0 0 1-.225-1.349h.001c-.228-1.525-.376-3.074-.381-4.567.011-2.799.471-5.501 2.191-7.47 2.518-2.784 8.926-6.805 16.583-10.37 7.644-3.522 16.377-6.462 23.417-6.479m4.657 16.751c.985-2.723 1.323-5.121 1.324-7.15 0-2.385-.471-4.263-.934-5.535a14 14 0 0 0-.16-.413l-.969-.303c-1.044-.327-2.841-.529-3.672-.525s-1.798.183-2.565.37c3.759 3.862 5.928 9.92 6.976 13.556M184.423-4.26c-.234-.297-.75-.922-.931-1.168-29.561-30.61-69.903-47.496-111.373-50.669-.598-7.607-6.931-13.593-14.679-13.63-7.748.037-14.081 6.023-14.679 13.63C1.29-52.924-39.052-36.038-68.612-5.428c-.182.246-.698.871-.932 1.168-.78.997-.99 2.029-.99 3.392 0 2.061 1.538 3.743 2.671 4.918s2.623 2.632 2.623 2.632.587.715.79 1.386c.216.714.088 1.357.016 1.629a21.2 21.2 0 0 0-.704 5.371c-.02 11.905 9.613 21.57 21.517 21.589a21.2 21.2 0 0 0 5.338-.676c.321-.082.677-.146 1.614.009 1.122.187 1.423.745 1.703 1.032s1.829 2.009 3.217 3.263 2.71 2.3 4.643 2.3c2.158 0 3.703-1.22 5.129-2.824C-11.878 29.26.24 21.326 13.389 15.943 26.913 10.164 41.801 6.96 57.438 6.96c15.606 0 30.466 3.189 43.967 8.947 13.182 5.384 25.331 13.329 35.452 23.854 1.426 1.604 2.971 2.824 5.129 2.824 1.933 0 2.983-.832 4.642-2.3s2.806-2.798 3.217-3.263c.411-.466.591-.797 1.703-1.032.723-.152 1.293-.091 1.616-.009 1.705.439 3.492.68 5.337.676 11.903-.019 21.538-9.684 21.516-21.589a21.2 21.2 0 0 0-.703-5.371 3.06 3.06 0 0 1 .016-1.629c.203-.671.791-1.386.791-1.386s1.602-1.572 2.623-2.632c1.02-1.06 2.67-2.857 2.67-4.918 0-1.363-.209-2.395-.991-3.392M-83.57 166.404s.147.052.331.122c.597-.205 1.115-.404 1.464-.531.814-6.096-.319-9.041-2.911-9.774-2.755-.783-7.593 2.34-8.96 9.571.627.214 1.284.412 1.955.6.897-2.784 2.878-7.243 5.609-8.783 0 0 .56.317.509 1.022-.154 2.116-.751 6.629 2.003 7.773m17.557-83.061c.919.971 3.227 1.113 4.203.356 2.303-1.784.586-3.41-1.232-6.841-2.939-5.547.989-9.352-1.874-14.907-2.867-5.557-6.434-7.12-7.728-6.135-1.921 1.467.911 4.536 1.863 6.984 2.043 5.261-2.521 12.835 4.768 20.543m-9.075-44.04s-.601-1.199-.299-3.301c0 0-5.394.902-6.595 3 0 0 .3-5.094 1.201-8.988 0 0-7.19 7.789-8.088 10.183 0 0 .598-9.886 3.594-15.277 0 0-7.024 5.136-6.471 19.172l.001-.001a10 10 0 0 1 2.396-.912l.003-.001a10 10 0 0 1 1.101-.193l.179-.019c.35-.034.696-.056 1.033-.054 3.047.019 5.471 1.242 6.477 1.832a13 13 0 0 1 1.689-.113c3.103-.019 5.206 1.308 6.348 2.661.447.522.767 1.033.995 1.474a18.4 18.4 0 0 1 3.229-.293c4.551-.01 7.803 1.891 9.818 3.772a14.5 14.5 0 0 1 2.593 3.187c8.011 1.882 9.984 8.469 10.019 8.653l.067.236-.017.247c-1.217 18.074-9.236 25.925-9.423 26.091l-.285.275-.382.085c-3.603.815-7.185 1.165-10.684 1.165a54 54 0 0 1-3.067-.098 58 58 0 0 1-2.385-.181l-.02-.002a63 63 0 0 1-2.369-.29l-.592-.086a62 62 0 0 1-2.309-.385 68 68 0 0 1-2.823-.6 69 69 0 0 1-2.149-.532l-.036-.01a70 70 0 0 1-2.131-.607q-.263-.079-.525-.16a74 74 0 0 1-2.002-.643l-.04-.013a74 74 0 0 1-2.458-.881 82 82 0 0 1-3.669-1.479l-.43-.188a79 79 0 0 1-1.642-.736l-.038-.018a80 80 0 0 1-1.975-.947 81 81 0 0 1-1.387-.699l-.076-.038a77 77 0 0 1-1.332-.706l-.363-.197q-.561-.306-1.077-.598l-.111-.062a70 70 0 0 1-4.71-2.904l-5.875.73a38 38 0 0 1-.963 1.905q-.095.181-.192.359a41 41 0 0 1-1.017 1.751c-.063.104-.127.202-.19.304a46 46 0 0 1-1.076 1.641l-.066.098a43 43 0 0 1-1.404 1.91q-.604.781-1.225 1.522-.069.082-.138.16-.623.735-1.256 1.428l-.079.087q-.658.716-1.321 1.385l-.174.176q-.67.671-1.337 1.298l-.004.004 2.288.847c3.002 9.887 13.186 10.188 13.186 10.188-1.198 7.492 1.798 13.484 1.798 13.484l-5.39-4.797c-13.315-1.108-20.912-5.568-25.128-9.522l-.001.001c-.95 1.252-1.505 2.449-1.804 3.581q-.036.135-.068.271a8 8 0 0 0-.151.859c-.013.109-.029.217-.038.325a9 9 0 0 0-.038.738c-.002 1.898.625 3.597 1.271 4.816.323.611.646 1.098.882 1.423.237.327.364.46.36.463l.173.195.092.241c3.034 7.972 10.642 19.505 17.466 28.929 6.827 9.439 12.86 16.807 12.87 16.825l.402.491-.1.627a34 34 0 0 0-.442 5.377c.007 7.93 3.02 13.44 6.039 17.047a25.8 25.8 0 0 0 4.149 3.955c.563.425 1.03.736 1.347.938.318.2.464.275.462.277l.809.435-.637 8.571c4.706 8.214 8.417 18.188 9.288 20.595.815.418 1.594.841 2.349 1.265.244.136.471.272.709.409.502.289.998.577 1.471.865.258.155.502.308.75.463a73 73 0 0 1 1.95 1.249c.402.267.786.525 1.16.782q.296.202.581.4c.394.275.765.538 1.127.798l.414.296c.917.665 1.723 1.268 2.404 1.776l.839-.843a27.3 27.3 0 0 1-.535-5.406l.001-.063a87 87 0 0 0-10.162-4.441l-5.695-11.225s7.188.6 9.285-9.59c0 0 4.413 6.201 11.422 9.812q.461-.664.96-1.297c-3.075-2.188-6.239-5.432-7.585-10.013l2.696-1.199s4.742 3.792 10.272 6.011a27 27 0 0 1 3.287-2.058c-3.399-1.87-7.123-4.257-8.468-6.347l1.799-1.799s8.09 4.496 9.59-4.194c1.496-8.687-7.789-10.187-10.488-10.187 0 0 .3-3.295 3.597-6.59 0 0-7.193-5.693-17.379 0-10.187 5.691-13.683 5.027-22.367 2.93 0 0-3.187-4.512-1.287-9.852-1.953-1.914-2.998-1.715-5.131-7.558-.867-3.793-4.773-6.497-4.773-6.497s10.488-.896 19.176 8.692c0 0 6.591-7.192 16.48 5.094 0 0 7.789-6.895 20.373.898 0 0-5.99-6.592-16.476-6.291 0 0 5.091-4.795 6.886-9.588 0 0-3.892 3.594-13.179 4.494 0 0 1.197-6.892 5.392-11.088 0 0-5.392 4.497-15.281 2.696 0 0 8.691-12.582 21.875-13.782 0 0-5.096-1.796-7.492-4.492 0 0 5.094-3.299 12.881-.599 0 0-8.088-4.494-11.682-5.994 0 0 5.392-1.796 17.072 1.795-.008-.554-.021-1.106-.021-1.663 0-.471.012-.941.018-1.411-.153-2.104-.649-4.988-2.091-7.71 0 0-5.394 4.797-10.787 5.992 0 0 6.293-8.687 2.7-18.578 0 0 2.243-3.479 11.091-3.095.697.03 1.293.035 1.822.023A111.5 111.5 0 0 1-38.87 61.593c-1.95-.686-3.706-1.156-4.759-1.318l5.393-2.996s-8.688-2.996-12.582-3.597c0 0 2.093-2.097 3.894-3.297 0 0-10.486-4.793-14.681-4.491 0 0 2.396-2.4 3.595-2.697 0 0-6.89-1.797-8.99-.601l-.6-4.793s-5.992-.602-7.488 1.5m-13.981 22.194c1.034-3.679 3.178-9.939 6.844-14.448-.899-.492-2.77-1.319-4.808-1.309a7.4 7.4 0 0 0-2.528.456c-.568 1.462-1.19 3.719-1.19 6.657.001 2.438.425 5.34 1.682 8.644m-7.408 10.342c-4.641.652-7.349 2.335-8.966 3.923-.157.154-.135.163-.272.316l.592.429c.004.003 1.082.78 3.082 1.986.436.263.924.55 1.441.847 1.476-3.713 2.915-6.061 4.123-7.501m257.738 47.292c-.002-28.683-11.613-54.614-30.409-73.416-18.8-18.794-44.728-30.407-73.414-30.407-28.683 0-54.616 11.613-73.418 30.407-18.796 18.802-30.409 44.733-30.411 73.416.002 28.687 11.615 54.615 30.411 73.417 18.802 18.796 44.735 30.408 73.418 30.41 28.686-.002 54.614-11.614 73.414-30.41 18.796-18.802 30.407-44.73 30.409-73.417m-3.749 68.914s.257-9.585 6.992-13.377c-2.507.07-11.447-1.357-6.992 13.377m-226.059 55.434.295.27c32.414 31.64 76.731 51.128 125.602 51.128h.171c48.872 0 93.187-19.488 125.599-51.128l.304-.27a5.95 5.95 0 0 0 1.797-4.262 5.83 5.83 0 0 0-1.771-4.222l-3.354-3.328c-.664-.672-1.01-1.594-1.01-2.61 0-.277.034-.551.086-.808l-.007.011c.398-1.652.611-3.375.611-5.144 0-12.051-9.766-21.813-21.809-21.813-1.605 0-3.17.176-4.677.504l-.049.008-.151.039a3.58 3.58 0 0 1-3.49-.992l-.055-.031-2.984-3.02c-1.082-1.148-2.588-1.894-4.297-1.894-1.693 0-3.209.718-4.32 1.91a114.2 114.2 0 0 1-41.459 26.49c-12.16 4.516-25.314 6.988-39.047 6.989-13.708-.001-26.839-2.464-38.981-6.964a114.2 114.2 0 0 1-41.535-26.515c-1.104-1.192-2.615-1.91-4.322-1.91-1.7 0-3.209.746-4.291 1.894l-2.983 3.02-.056.06c-.661.684-1.579 1.08-2.6 1.08-.313 0-.602-.043-.891-.117l-.152-.039-.043-.008a22 22 0 0 0-4.68-.504c-12.043 0-21.812 9.762-21.812 21.813 0 1.769.215 3.492.617 5.144l-.008-.011c.057.257.086.531.086.808 0 1.016-.299 1.881-1.006 2.61l-3.361 3.328a5.84 5.84 0 0 0-1.772 4.222c0 1.668.694 3.18 1.805 4.262m326.205-138.058c-.031 3.774-1.537 7.358-3.53 11.205l-.003-.001.001.002-.014-.002.014.008c-9.097 17.313-21.18 35.492-24.707 39.825-.604 1.015-1.384 3.404-1.654 6.058-.348 2.873-.234 5.802-.413 7.585-.247 1.678-1.118 2.787-2.126 4.223-1.028 1.4-2.302 2.972-3.588 4.777a783 783 0 0 0-5.511 7.824c-1.579 2.268-2.839 4.144-2.928 4.328-.752 1.313-1.518 2.359-1.707 2.821l-.121.27c.243 1.196.541 3.158.543 5.614q-.001.12-.003.16c.047 6.847-2.703 17.812-15.23 24.943a244 244 0 0 0-7.934 4.745c2.431 2.378 3.874 5.779 3.882 9.31l-.002.038.002.063v.015a13.33 13.33 0 0 1-4.06 9.578l-.415.381c-33.58 32.793-79.765 53.106-130.62 53.106h-.009l-.085-.002h-.013l-.089.002c-50.865 0-97.043-20.313-130.773-53.243l-.136-.12c-2.612-2.518-4.191-5.946-4.196-9.673v-.118a13.2 13.2 0 0 1 2.079-7.066c-1.5-.779-3.46-1.835-5.401-3.047-3.146-2.024-6.319-4.231-7.733-7.241-1.069-2.476-1.016-3.614-1.803-5.619-.723-1.904-2.074-4.518-3.337-6.833-1.276-2.348-2.425-4.324-2.931-5.43-.655-1.504-.758-3.131-.771-4.752.001-1.815.196-3.595.355-4.749-3.962-2.874-12.479-10.788-12.511-25.158 0-1.48.092-3.019.287-4.617-4.516-5.654-23.976-30.164-30.081-45.685-.375-1.112-3.17-4.021-3.183-9.074v-.108c-.067-3.215.968-6.682 4.589-10.052l1.249-1.102.234-.178c.141-.077.602-.51 2.159-1.465 4.403-2.687 13.703-9.403 18.146-19.529.038-.11.102-.282.195-.489.175-.333.293-.735.944-1.313.494-.363.633-.342.8-.411.512-.144.921-.186 1.522-.265 1.718-.212 4.284-.401 4.3-.403l.365.006c.321.044.605.126.868.226.16-.179.311-.355.492-.535 2.37-2.35 6.602-4.64 13.784-4.805h.024a1.06 1.06 0 0 1 .203 2.103l.002.003c-.323.114-2.902 1.372-5.815 8.819 4.461 2.409 10.933 5.376 18.416 7.226 2.038-.989 3.917-2.137 4.933-3.356 0 0-3.896-9.89-1.502-20.676 0 0-4.704-3.333-6.609-8.255-.302-.169-.607-.34-.9-.506a45 45 0 0 0-1.059 2.526c-1.594 4.156-2.301 7.623-2.308 7.627a1.062 1.062 0 0 1-1.99.257c-2.349-4.75-3.119-8.948-3.117-12.364 0-.641.032-1.248.08-1.831-.343.135-.736.23-1.17.226a3.3 3.3 0 0 1-.668-.067c-1.185-.217-1.917-1.086-2.231-1.656-.337-.596-.422-1.046-.453-1.171l-.013-.068c0-.011-.883-4.558-.883-9.782.071-4.656.487-10.257 4.206-14.178 5.38-5.376 14.958-15.253 14.964-15.257l.118-.113c.148-.131 1.47-1.365 3.718-2.19A13.27 13.27 0 0 1-77.531-.69v-.116a13.33 13.33 0 0 1 4.063-9.58l.415-.382C-44.082-39.057-5.715-58.053 36.935-62.731c3.132-8.279 11.128-14.166 20.503-14.166 9.354 0 17.335 5.862 20.482 14.111 42.849 4.59 81.401 23.638 110.615 52.154l.105.111c.053.061 1.05 1.198 2.081 2.922 1.015 1.731 2.125 4.038 2.147 6.671 0 .074-.002.121-.002.132-.058 2.61-.801 5.157-2.188 7.309 2.589.769 4.336 2.181 5.366 3.456.368.456.566.844.859 1.393.961 1.858 2.401 5.206 3.946 8.516 1.512 3.273 3.213 6.562 4.193 7.705 1.023 1.404 5.269 4.346 5.382 9.356 0 .19-.007.35-.012.477-.145 1.967-.892 3.748-1.567 5.167a28 28 0 0 1-1.111 2.067c.618 1.452 1.357 3.839 1.358 7.005.003 3.018-.678 6.716-2.745 10.897a1.062 1.062 0 0 1-1.989-.257c0-.006-.625-3.046-2.017-6.687a36 36 0 0 0-2.147-4.651c-14.03 10.211-11.916 29.014-11.916 29.014 7.185 2.874 14.836 2.427 20.927 1.156q.718-.541 1.462-1.079.375-.267.76-.532c-1.426-3.058-2.805-5.145-3.954-6.53-.958-1.155-1.754-1.836-2.287-2.22a5 5 0 0 0-.593-.378q-.093-.05-.126-.063h-.002a1.062 1.062 0 0 1 .467-2.051c7.302.617 12.258 2.551 15.603 4.747a7 7 0 0 1 1.41-.21c.323-.028.64-.044.963-.046.079 0 .115.002.132.002 2.874-.004 5.837 1.207 8.045 3.72 7.238 8.144 18.538 15.772 23.433 20.991 2.096 2.24 3.149 5.045 3.14 7.874v.057h-.001zm-21.439 15.663c7.729-8.367 7.823-3.011 7.823-3.011-1.819-1.27-7.823 3.011-7.823 3.011M-26.347 207.93l20.392 16.698-7.096 8.664-10.398-8.513-21.307 26.02-9.992-8.182.374-.456zm149.097 18.876c1.97-5.339 5.321-10.014 10.059-13.294 3.288-2.276 7.277-3.847 11.404-3.849q.767-.001 1.539.073c4.845.486 8.39 3.749 10.896 7.371 1.59 2.299 2.286 4.559 2.284 6.741-.004 3.613-1.865 6.92-4.362 10.023l-1.86 2.328c-.684.893-1.355 1.78-1.758 2.741-.226.526-.313.977-.313 1.354.01 1.273.974 1.972 2.466 2.01.849.002 1.821-.28 2.706-.891 2.22-1.54 3.505-3.806 4.235-6.428l.197-.708 10.277 5.498-.244.507c-2.043 4.227-5.596 8.468-9.473 11.158h-.002c-3.01 2.084-6.271 3.14-9.442 3.14-4.659.004-9.103-2.295-12.207-6.789-1.826-2.631-2.627-4.958-2.627-7.144.013-3.812 2.38-6.945 5.33-10.542 1.193-1.419 3.192-3.822 3.15-5.596a2.2 2.2 0 0 0-.396-1.293c-.7-.993-1.581-1.359-2.604-1.369-1.022-.004-2.17.42-3.152 1.102-3.066 2.119-4.481 5.56-5.381 9.161l-.181.722-10.72-5.538zm-82.332 46.535q.534.052 1.068.052h.016c5.808 0 10.801-4.427 11.265-9.563h-.002q.059-.66.059-1.296c-.008-6.39-4.462-11.267-10.304-11.815q-.533-.05-1.059-.05c-5.791.007-10.81 4.43-11.43 11.045a9 9 0 0 0-.039.83c-.012 5.177 4.483 10.255 10.426 10.797m.527-35.09h.036q1.323 0 2.686.126c13.268 1.217 22.375 11.06 22.361 24.052a30 30 0 0 1-.126 2.676c-1.178 12.62-12.375 20.698-24.218 20.692q-1.206 0-2.415-.111c-12.04-1.117-22.474-10.575-22.482-23.039q0-1.037.099-2.097c1.224-13.361 11.183-22.298 24.059-22.299m51.474 22.498 10.364-29.829 11.822-4 14.369 42.467-12.239 4.139-7.972-23.568-10.382 29.778-11.822 4-14.369-42.465 12.239-4.144zM2.327 228.368l11.863 5.112-17.74 41.171-11.863-5.111.233-.54ZM-106.458 88.447s-2.516-2.055-2.364-2.976c.296-1.793 2.295-.615 2.812-.075 8.747 9.128 24.628 14.904 24.476 15.838s-13.747-3.081-24.924-12.787m-13.999 47.195c-1.558-2.589-2.894-4.797-4.236-7.292l.016.004c-1.424-2.711-3.687-7.059-4.657-9.047 2.555-.469 5.383.027 8.373 2.192.337 8.433 8.422 25.966 8.422 25.966-2.309-2.871-5.771-8.336-7.925-11.824zM117.824 5.759l4.87-10.446 6.401-11.293-.042-.116-17.211 19.067-3.728-1.739 13.655-29.281 3.883 1.809-5.017 10.759-5.163 9.553-1.121 1.793.042.114 17.356-19.375 3.611 1.685L121.707 7.57ZM-80.95 111.309c-.206 1.108-17.192-3.424-31.054-14.722 0 0-3.122-2.387-2.918-3.479.399-2.124 2.887-.762 3.527-.132 10.826 10.651 30.649 17.229 30.445 18.333m310.095 32.404c-5.186 7.014-7.773 9.51-9.762 22.571-1.785 11.73-27.144 0-27.144 0-12.463-3.117-17.285.134-19.094 2.525 0 .051-.536.42-.234-.246 6.888-15.178 21.942-7.342 21.942-7.342l2.766-2.762c-.653 1.603-.798 4.001-.35 7.362.579.21 1.592.616 2.726.925.675-.899.755-1.504.835-2.901.079-1.38-.74-3.22-.739-4.395.001-1.123.824-1.612.824-1.612 2.885 1.705 5.048 5.84 6.067 8.436.743-.204 1.468-.42 2.158-.656-1.367-7.231-6.201-10.354-8.963-9.571a4 4 0 0 0-.387.136c-8.806-4.016-3.584-5.149-3.584-5.149 7.318 0 13.939 4.965 13.939 4.965 2.438-1.219 4.973-7.1 4.973-7.1 2.742-.303 7.316-2.744 7.316-2.744 4.574-4.27 6.711-2.442 6.711-2.442m2.857-4.332s-.091-3.543-6.947-1.089c0 0 3.344-5.141 7.969-6.133 4.971-1.065 1.703 4.312-1.022 7.222m7.43-11.914s-.724-2.914-8.752 2.367c0 0 4.858-6.253 8.422-7.236 3.559-.982 1.611 3.805.33 4.869" style="fill:#1c4f9c;fill-opacity:1;fill-rule:nonzero;stroke:none" transform="translate(147.566 78.603)"/></g></svg>