<svg xmlns="http://www.w3.org/2000/svg" id="Layer_1" viewBox="0 0 499.43 260"><defs><style>.cls-1{fill:#007ac9}</style></defs><path d="M113.1 258.98h-5.87l10.47-49.3h10.17l3.64 41.38h.14L153 209.68h10.38l-10.47 49.3h-6.28l9.31-43.83h-.14l-23.1 43.83h-5.94l-4.21-43.83h-.14zm50.94 0 10.47-49.3h25.4l-1.16 5.46h-19.12l-3.36 15.84h17.75l-1.16 5.46h-17.75l-3.62 17.07h19.53l-1.16 5.47h-25.81Zm44.75-49.3h15.16c6.28 0 10.31 2.25 11.65 7.51 1.1 4.17-.78 14-1.12 15.57-2.23 10.51-4.48 16.59-7.22 19.87-3.56 4.23-9 6.35-17.6 6.35h-11.33l10.47-49.3Zm-3.02 43.83h5.94c8.74 0 12.65-3.27 15.08-14.74l2.11-9.97c2.12-9.97-.17-13.65-6.73-13.65h-8.26l-8.15 38.37Zm41.25 5.47h-6.28l10.47-49.3h6.28zm41.17-35.71c.66-2.8 1.05-5.6.09-7.17s-3.78-2.11-5.08-2.11c-5.18 0-7.9 3.14-8.25 3.82-.32.55-1.81 1.77-3.6 10.24l-2.8 13.17c-2.57 12.09 1.09 13.52 5.93 13.52 1.92 0 7.86-.68 9.98-10.31h6.48C287.91 260 276.92 260 273.71 260c-6.14 0-15.48-.41-11.42-19.53l2.96-13.93c2.96-13.93 9.94-17.89 19.64-17.89s12.45 5.06 9.8 14.61h-6.48Zm30.27-13.59h7.99l5.58 49.3H325l-1.06-11.74h-19.05l-6.18 11.74h-6.35zm2.6 5.8h-.13l-13.3 26.29h15.77zm17.53 43.5 10.47-49.3h6.28l-9.31 43.83h18.09l-1.16 5.47z"/><path d="M109.32 169.02h-2.11l18.56-87.23h26.5l8.79 51.29 10.92-51.28h19.84l-18.55 87.22h-25.94l-8.7-54.3-11.55 54.3h-17.75m96.56 1.15c-7.61 0-12.92-1.61-16.36-4.9-3.43-3.29-4.6-7.95-4.6-13.21 0-4.54.84-9.64 2.03-15.18 3.21-16.04 9.34-31.21 31.91-31.06 7.78 0 13.14 1.73 16.54 5.04 3.42 3.32 4.53 7.95 4.52 12.94 0 4.27-.79 8.95-1.82 13.79-3.65 18.24-10.06 32.57-31.86 32.57h-.36Zm4.88-46.78c-1.49 2.71-2.63 7.22-3.91 13.27-1.55 7.23-2.33 12.14-2.33 15.18 0 2.25.44 3.32.84 3.72.37.43 1.12.73 2.73.73 2.68-.11 3.73-.49 5.44-3.27 1.62-2.84 3.18-8.19 5.06-17.07 1.08-5.08 1.82-9.09 1.8-11.79-.33-3.8-.48-4.19-3.77-4.49-2.96.08-4.31 1.02-5.87 3.71Zm57.77-16.41h2.11l-.76 3.56c4.19-3.54 9.24-4.77 14.33-4.72h2.1l-3.85 18.13-1.47-.09c-.7-.06-1.37-.08-2.01-.08-11.33.17-12.27 6.4-13.65 11.95l-7.08 33.28h-19.85l13.19-62.03zm39.88 62.04h-2.1l.63-2.96c-3.65 2.91-7.88 4.12-12.57 4.12h-.24c-5.19.02-8.98-1.74-11.2-4.72-2.21-2.96-2.87-6.76-2.88-10.71 0-5.92 1.51-12.38 2.61-17.52 1.27-5.9 2.74-13.55 6.13-19.92 3.33-6.34 9.02-11.53 17.95-11.49 4.7-.09 8.61 1.18 11.3 4.27l6.01-28.3h19.86l-18.55 87.22h-16.95m-2.61-45.14c-1.48 3.2-2.53 8.1-3.77 13.96-1.37 6.39-2.16 11.14-2.15 14.24.31 4.13.58 4.36 3.02 4.6 2.05-.05 3.27-.85 4.91-3.97 1.53-3.09 2.92-8.25 4.48-15.58 1.2-5.67 2.22-10.49 2.21-13.64-.29-3.5-.44-3.93-2.93-4.15-2.79.07-4.19 1.31-5.76 4.54Zm103 46.3c-7.6 0-12.9-1.61-16.35-4.9-3.43-3.29-4.61-7.94-4.61-13.21 0-4.54.86-9.64 2.03-15.18 3.23-16.04 9.33-31.21 31.91-31.07 7.81 0 13.14 1.74 16.56 5.05 3.4 3.32 4.52 7.95 4.52 12.95 0 4.28-.8 8.94-1.82 13.78-3.67 18.24-10.07 32.57-31.89 32.57h-.36Zm4.91-46.78c-1.49 2.71-2.63 7.22-3.91 13.27-1.58 7.25-2.36 12.14-2.33 15.18-.03 2.25.42 3.32.83 3.72.37.43 1.12.73 2.76.73 2.66-.11 3.72-.49 5.41-3.27 1.62-2.84 3.19-8.19 5.07-17.07 1.09-5.08 1.81-9.09 1.8-11.79-.32-3.8-.49-4.19-3.77-4.49-2.98.08-4.29 1.02-5.86 3.71Zm55.23 45.63 9.04-42.47c.32-1.55.53-2.95.53-4.07-.3-2.52-.18-2.88-3.04-3.13-4.04.02-5.22 2.71-6.46 7.92l-8.9 41.75h-19.84l13.2-62.03h19.84l-.59 2.8c1.21-.91 2.47-1.64 3.73-2.18 2.83-1.28 5.86-1.78 9.06-1.78 7.36.02 13.89 4.16 13.9 11.72 0 1-.11 2.03-.33 3.12l-10.29 48.36h-19.86Z" class="cls-1"/><path d="M360.65 5.16C335.59 1.84 309.12 0 281.69 0 126.12 0 0 57.33 0 128.05c0 14.33 5.27 28.1 14.82 40.97h51.33c-9.64-12.83-14.93-26.61-14.93-40.97 0-67.89 116.94-122.93 261.21-122.93 16.32 0 32.27.74 47.78 2.1zm22.38 103.96c-3.56-2.33-8.18-3.28-13.13-3.3-10.82-.02-25.22 3.93-28.28 17.84-.28 1.27-.41 2.5-.41 3.66.04 8.33 6.83 12.15 12.61 14.93 6 2.79 10.88 5.17 10.74 8.45.03.17.02.33.02.52 0 2.56-2.54 4.64-5.66 4.64s-5.63-2.08-5.63-4.64v-.02s-.09-2.27.9-4.4h-17.4l-.34 1.26c-.83 2.99-1.21 5.63-1.21 7.98-.07 5.45 2.39 9.41 6.37 11.47 3.95 2.08 9.11 2.65 15.12 2.67h.07c14.16 0 24.97-8.1 27.34-19.23.29-1.32.41-2.58.41-3.79-.03-8.49-6.75-12.8-12.63-15.78-3.29-1.57-6.24-3.06-8.24-4.39-1.52-.84-2.83-2.28-2.83-4 0-2.55 2.51-4.63 5.65-4.63.48 0 1.18.1 2 .32 2.03.64 3.46 2.21 3.56 4.09 0 0 .09 2.1-.81 4.47h16.46l.35-1.26c.57-2.07.86-3.99.86-5.77.03-4.95-2.31-8.79-5.87-11.08Z" class="cls-1"/></svg>