<svg xmlns="http://www.w3.org/2000/svg" xml:space="preserve" width="1400.012" height="527.217" viewBox="-0.012 41.362 1400.012 527.217"><path fill="#c2c6c9" d="M1354.91 430.805v-9.741h24.771v5.566H1400v7.515h-20.318v13.36H1400v7.515h-20.318v5.566h-24.771v-8.906H554.434s-158.092-1.113-308.946-45.09c-125.805-36.739-172.843-60.119-212.645-89.9C19.205 306.67-.557 283.29 0 262.694c.835-25.05 25.885-56.779 56.779-73.757 52.326-28.39 133.042-59.842 212.087-78.489C347.912 91.8 491.531 67.306 519.919 63.132c28.391-4.175 176.74-20.04 186.481-21.71 9.742-1.67-167.833 32.286-222.664 45.925-57.893 14.195-116.898 28.111-176.739 55.944s-75.706 40.914-99.085 67.912c-25.885 29.781-27.555 62.625 17.813 103.539S440.597 428.3 556.938 431.362z"/><path fill="#ff8136" d="m898.171 226.233 1.948-8.071 20.597 25.885-28.39 15.864 1.67-7.515s-16.979-6.401-33.399-2.783c-16.422 3.618-38.967 16.143-48.986 58.728-1.67-9.186-1.392-18.648 1.113-27.833 3.062-10.854 8.628-20.875 15.865-29.503 15.029-17.814 34.791-27.834 69.582-24.772"/><path fill="#ff8136" d="m976.382 302.216 8.071 1.948-26.163 20.04-15.308-28.668 7.515 1.948s6.68-16.978 3.34-33.399-15.587-39.244-57.614-49.821c9.185-1.67 18.927-1.113 27.833 1.671 10.854 3.34 20.875 8.906 29.225 16.421 16.978 15.587 26.719 35.069 23.101 69.86"/><path fill="#ff8136" d="m899.006 379.035-2.227 8.071-19.762-26.44 28.946-15.03-1.948 7.515s16.979 6.959 33.399 3.896c16.422-3.062 39.523-15.029 50.656-57.058 1.67 9.186.835 18.927-1.948 27.833-3.618 10.855-9.185 20.875-16.699 29.225-15.864 16.7-35.626 26.163-70.417 21.988"/><path fill="#ff8136" d="m823.578 302.494-8.071-2.227 26.441-19.761 15.03 28.668-7.516-1.948s-6.958 16.978-3.618 33.399 15.03 39.244 57.336 50.378c-9.185 1.67-18.926.835-27.833-1.948-10.854-3.619-20.875-9.186-29.225-16.7-16.976-15.586-26.44-35.347-22.544-69.861"/><path fill="#7cbdeb" d="M617.893 316.69c0 23.38-7.515 42.584-22.267 57.614-15.864 15.587-38.966 23.658-69.025 23.658-35.348 0-60.397-6.401-74.871-19.205-1.948-2.505-2.783-5.566-2.505-8.628 0-1.113 0-9.185-.278-24.493s-.278-23.658-.278-24.771c0-1.948 1.113-2.783 3.062-2.783h8.628c1.393-.278 2.784.835 3.063 2.505v.278c.278 1.948.835 6.123 1.392 13.36a50.9 50.9 0 0 0 16.978 37.018 55.9 55.9 0 0 0 21.153 11.411c8.071 2.783 16.422 4.453 24.771 4.731 28.111 0 46.76-9.463 56.223-28.111 4.453-10.02 6.68-21.152 6.401-32.286.278-11.133-4.175-21.987-11.968-29.78-8.907-9.186-24.771-17.813-47.038-25.885-25.328-8.907-43.141-18.092-53.996-27.276-14.194-11.969-21.153-30.616-21.153-55.944 0-23.937 9.742-43.977 28.946-60.398 14.752-12.524 34.235-18.926 58.171-18.926 15.03 0 30.06 2.783 44.255 8.071 6.958 2.505 13.359 6.123 19.205 10.576 1.948 1.392 3.062 3.341 3.34 5.567 1.67 14.194 2.505 28.668 2.227 42.862 0 3.062-.557 4.453-1.392 4.453h-10.021c-1.113 0-1.67-.835-2.227-2.505-.835-4.175-1.948-9.463-3.062-15.864-1.67-8.907-6.958-16.7-14.751-21.153-15.03-8.35-31.729-12.525-48.986-12.247-16.7 0-28.946 3.619-37.018 10.855s-12.525 20.597-12.525 39.244c0 11.134 4.175 21.988 11.69 30.06 3.896 4.175 11.133 8.629 21.987 13.36 9.186 3.618 18.37 7.236 27.276 11.133 18.092 7.793 28.668 12.804 32.008 14.474 10.021 5.288 18.927 12.524 26.72 20.874 10.298 11.968 15.865 28.111 15.865 48.151m181.75 54.274c.557.835.277 1.392-.279 2.227-6.401 6.958-17.256 13.359-32.286 18.648-14.473 4.731-29.503 6.68-44.532 6.401-15.309 0-27.276-1.392-36.184-4.453-10.02-3.618-19.204-9.464-26.72-17.257-14.194-13.916-21.431-34.791-21.431-63.181.278-16.422 4.453-32.843 12.246-47.316 6.958-13.081 17.535-24.214 30.06-32.286 17.535-11.411 40.08-16.978 67.635-16.978 10.298 0 19.761.557 28.39 1.392 10.02 1.113 16.421 2.227 18.926 3.896.557.278.835.835.835 1.392 0 1.392-.557 5.01-1.392 10.854-.557 4.731-.835 8.907-1.392 12.525-.278 1.113-.557 1.67-1.113 1.67s-1.113-.278-1.392-1.113c-.278-1.392-.835-2.505-1.392-3.618-.835-1.67-4.453-4.732-10.854-8.907-9.186-4.731-22.823-6.958-40.915-6.958-23.102 0-41.471 6.958-55.388 21.153-15.586 16.143-23.102 36.183-23.102 60.397 0 26.441 8.072 47.315 24.493 62.067 7.237 6.958 15.587 11.968 25.05 15.308 10.021 2.784 20.318 3.897 30.616 3.619 9.464 0 18.927-1.948 27.555-6.124 8.071-3.34 14.752-8.906 19.762-16.143 2.227-3.34 3.618-6.958 4.453-10.855 0-1.392.278-2.227.835-2.227s.557.278.835 1.113c.557 2.783 1.67 5.567 2.783 8.072 1.671 2.229 2.784 4.456 3.898 6.682m349.303-149.741c-.835 5.566-2.227 11.689-3.896 18.926-.278 1.114-.835 1.949-1.67 1.949s-1.67-.557-2.505-1.949c-2.227-3.896-5.846-6.68-10.299-7.515-8.628-1.948-23.936-2.783-46.48-2.783-1.392 0-2.227.557-2.227 1.67s-.279 21.432-.835 60.676c-.558 37.853-.835 57.893-.835 60.676 0 24.771 2.227 37.019 6.401 37.019h22.545c.557 0 .835.278.835 1.113v4.453c0 .835-.278 1.392-.835 1.392h-71.81c-.835 0-1.392-.557-1.392-1.113v-4.453c0-.835.557-1.392 1.113-1.392h21.153q2.505 0 2.505-3.341c-.278-18.369-.557-28.111-.557-30.06 0-1.392.278-16.143.557-43.976s.557-42.306.557-43.697c0-26.163-1.67-39.245-4.453-39.245-22.545 0-38.132 1.392-47.316 3.896-6.68 1.67-10.854 4.175-12.803 7.237-.835 1.67-1.948 2.227-2.505 2.227-1.113 0-1.67-.278-1.67-1.113q0-1.67.834-3.341c2.506-8.906 4.454-15.308 5.846-19.482.278-1.113 1.67-1.67 2.783-1.392q2.922.417 26.72 1.67c18.647.835 33.956 1.392 45.367 1.392 37.297 0 58.171 0 63.46-.278 2.227 0 4.453-.278 6.68-.557 1.948-.278 3.062-.557 3.062-.557 1.114-.279 1.67.556 1.67 1.948m163.38-.278c-.835 5.566-2.227 11.689-3.896 18.926-.278 1.113-.835 1.949-1.67 1.949s-1.67-.557-2.505-1.949c-2.228-3.896-5.846-6.68-10.299-7.515-8.628-1.948-23.937-2.783-46.481-2.783-1.392 0-2.227.557-2.227 1.67s-.278 21.432-.834 60.676c-.558 37.853-.836 57.893-.836 60.676 0 24.771 2.227 37.019 6.402 37.019h22.545c.557 0 .834.278.834 1.113v4.453c0 .835-.278 1.392-.834 1.392h-71.81c-.835 0-1.392-.557-1.392-1.113v-4.453c0-.835.557-1.392 1.113-1.392h21.153q2.505 0 2.505-3.341c-.278-18.369-.557-28.111-.557-30.06 0-1.392.278-16.143.557-43.976s.557-42.306.557-43.698c0-26.162-1.67-39.244-4.453-39.244-22.545 0-38.132 1.392-47.316 3.896-6.68 1.67-10.854 4.175-12.803 7.236-.836 1.671-1.949 2.228-2.506 2.228-1.113 0-1.67-.278-1.67-1.113q0-1.671.835-3.341c2.505-8.906 4.454-15.308 5.845-19.482.279-1.113 1.671-1.67 2.784-1.392q2.922.417 26.72 1.67c18.647.835 33.956 1.392 45.367 1.392 37.297 0 58.171 0 63.459-.278 2.227 0 4.454-.278 6.681-.557 1.948-.278 3.062-.557 3.062-.557 1.114-.001 1.67.556 1.67 1.948M523.817 557.446c-1.392 2.505-2.783 5.566-4.454 8.906-.277.557-.834.835-1.392.835h-64.572c-.557 0-.557-.278-.557-.835v-2.227c0-.557.278-.557.557-.557h10.021c.835 0 1.392-.557 1.392-1.113v-70.974c0-9.185-.835-13.916-2.784-13.916h-8.35c-.557 0-.557-.278-.557-.557v-2.227c0-.557.278-.557.835-.557h66.521c.557 0 .835.278.557.557-.557 2.505-1.392 5.288-2.505 8.628-.279 1.113-.836 1.67-1.113 1.67l-.836-1.113c-2.227-1.948-5.01-3.062-8.071-3.618a319 319 0 0 0-32.564-1.67c-.557 0-.835.278-1.113.835s-.278 11.968-.278 33.956c0 .835.278 1.392 1.113 1.392h33.399c.557 0 1.113-.278 1.113-.835v-.278c0-.557.278-2.227.557-4.453 0-1.113.278-2.505.557-3.618 0-.835.278-1.392.835-1.392h1.113c.557 0 .835.278.835 1.113 0 .278 0 1.948-.278 5.845s-.278 5.845-.278 6.401v13.917c0 1.113-.278 1.392-.835 1.392h-1.113c-.278 0-.835-.278-.835-.557v-.278c-.278-2.783-.278-6.402-.557-10.299 0-.835-.557-1.392-1.113-1.392h-.278c-.278 0-6.123 0-16.979-.278-10.854-.278-16.421-.278-16.699-.278s-.835.278-.835 1.113v25.885c0 10.854 1.113 16.422 3.618 16.422q32.147 0 42.585-5.011c1.113-.557 2.227-1.113 3.062-1.67.555.001.555.279.276.836m40.079 9.462c0 .278-.278.557-.835.557h-33.956c-.557 0-.835-.278-.835-.557v-2.505c0-.278.278-.835.557-.835h11.411c.835 0 1.392-.557 1.392-1.67v-75.984c0-10.02-.835-15.309-2.783-15.309h-8.35c-.278 0-.835-.278-.835-.557v-2.505c0-.557.278-.835.557-.835h5.288c3.34 0 6.68-.557 10.021-1.392 1.67-.278 3.34-.835 4.731-1.392.835 0 1.113.557 1.113 1.948 0 0 0 13.639-.278 40.637s-.278 40.914-.278 41.749c0 10.021.835 15.309 2.505 15.309h10.02c.557 0 .835.278.835.557zm59.006-8.906v.278c-1.113 1.113-2.227 2.227-3.618 3.062-2.227 1.392-4.453 2.783-6.958 3.618-4.731 1.948-9.742 3.062-15.03 3.062-7.236.278-14.194-2.227-19.204-7.236-5.566-5.566-8.907-13.082-8.629-21.153 0-4.453.278-8.628.835-13.081 1.392-6.124 4.176-11.69 8.351-16.144 4.453-4.731 10.854-7.236 17.256-6.958 2.783 0 5.566.557 8.072 1.67 2.783 1.392 5.288 3.062 7.793 5.01 3.618 2.227 6.68 5.566 8.628 9.463.278.835.557 1.392.557 2.227 0 .557-.278.835-1.113 1.113-1.67.557-6.68 1.67-15.308 3.34-6.402 1.393-12.804 2.228-19.205 2.784h-6.68q-.835 0-.835 3.34c-.278 8.906 3.34 17.534 10.298 23.102 3.618 3.062 9.741 4.731 18.092 4.731 3.618 0 7.236-.278 10.576-1.392 1.392-.278 2.783-1.113 3.896-1.948.278-.278.278-.278.557-.278s.278.278.557.557.834.555 1.112.833M610.1 521.54c-.278-.557-.278-1.113-.557-1.67-1.948-3.34-4.453-6.401-7.516-8.628a17.5 17.5 0 0 0-10.298-3.34c-3.34.278-6.68 2.227-8.35 5.288-1.113 1.948-2.227 3.896-3.062 6.123s-1.392 4.453-1.67 6.958c0 .835.278 1.113.835 1.113q-.835 0 11.689-.835c6.123-.278 11.968-1.392 17.813-3.34.837-.834 1.116-1.112 1.116-1.669m73.478 34.513c0 .557-1.113 1.949-3.34 3.619-6.68 5.566-15.029 8.35-23.658 8.628-4.175 0-8.071-.557-11.968-2.227-4.731-2.783-8.628-6.958-11.411-11.969-2.783-5.566-4.176-11.411-3.896-17.534q0-6.68 1.67-13.36 2.088-7.932 8.35-13.359c5.288-4.175 11.968-6.123 18.648-5.845 6.68-.278 13.359 2.227 18.091 6.958 2.227 1.67 3.618 4.175 3.896 6.958q0 3.34-2.505 3.34c-2.783-.278-5.288-1.392-6.958-3.618-1.948-1.948-3.618-4.453-4.453-7.236-.278-1.113-1.392-1.67-3.062-1.948s-3.619-.278-5.289-.278c-1.948 0-3.618 0-5.566.278-3.34.557-6.68 2.227-8.906 4.731-3.618 4.175-5.566 10.298-5.566 19.205-.278 8.35 3.062 16.421 8.906 22.544 2.505 2.783 6.123 4.732 9.741 5.289 3.063.557 6.124.835 9.186.557 5.01.278 10.298-1.392 14.473-4.176.557-.278 1.113-.835 1.948-1.392h.835c.556 0 .834.557.834.835m50.378 3.062c0 .557-.278 1.113-.557 1.67-2.227 1.67-4.731 3.062-7.236 4.175-4.453 2.227-9.463 3.618-14.474 3.618-9.463 0-14.194-4.731-14.194-14.474 0-.557 0-5.566.278-15.308s.278-14.474.278-15.03v-11.133c0-.835-.557-1.67-1.392-1.948-.557-.278-2.505-1.113-5.288-2.505-.557-.278-.835-1.113-.835-1.67 0-.835.557-1.392 1.113-1.67 4.453-3.896 9.463-8.072 14.473-12.247.557-.278 1.113-.557 1.67-.557.835 0 .835.557.557 1.948a51 51 0 0 0-.835 9.186c0 1.392.278 2.227.557 2.227s4.453 0 11.969-.278 11.411-.278 11.689-.278c.835 0 1.392.557 1.113 1.392 0 1.392-.557 2.783-1.113 3.896-.278.557-.557 1.113-1.113 1.113h-21.988c-.557 0-.835.278-.835.557v37.853c-.278 3.062.278 5.846 1.67 8.629 1.113 1.948 4.732 3.062 10.299 3.062 3.618-.278 7.236-.835 10.854-2.227.835-.557 1.948-.835 3.062-1.113 0-.279.278.278.278 1.112m52.048-48.151c-.557 3.062-1.113 5.845-2.227 8.628-.278.835-.557 1.113-.835 1.113-.557 0-.835-.278-1.113-.557-.835-1.392-1.948-2.505-3.062-3.618a12.2 12.2 0 0 0-6.958-2.227c-4.175-.278-8.351.835-11.69 3.34-.557.278-.557 1.113-.557 1.948V551.6c0 8.072.835 12.247 2.227 12.247h13.36c.278 0 .835.278.835.557v2.226c0 .557-.279.557-.557.557h-35.349c-.557 0-.835-.278-.835-.557v-1.948c0-.278.278-.835.557-.835h8.629c.835 0 1.392-.557 1.392-1.113v-45.09c0-6.123-.835-9.463-2.227-9.463h-8.351c-.557 0-.557-.278-.557-.835v-2.227c0-.557.278-.835.557-.835h9.464c2.227 0 4.175 0 6.401-.278 1.392-.557 2.783-.835 4.175-1.113.557 0 .835.557.835 1.948v8.071c0 1.392.278 1.67.835 1.113 2.227-1.948 4.453-3.896 7.236-6.123s6.124-3.618 9.742-3.618 6.68 1.67 8.628 4.731c-.277.558-.277 1.114-.555 1.949m65.407 24.772c0 5.566-1.113 10.854-3.062 15.864-2.505 5.567-6.958 10.299-12.524 13.082-4.453 2.505-9.464 3.618-14.474 3.618-4.453.278-8.906-.278-13.081-1.67-5.567-2.505-10.021-6.68-12.525-12.247-2.783-5.566-4.175-11.689-4.175-18.091-.278-6.401 1.392-12.804 4.453-18.648 2.783-4.731 6.68-8.628 11.69-11.133 5.288-2.227 10.854-3.34 16.699-3.062 4.732-.278 9.742.835 13.917 3.34 4.453 2.783 8.071 6.958 10.02 11.968 2.227 5.566 3.34 11.134 3.062 16.979m-9.463 3.339c0-9.463-2.227-16.979-6.68-22.267-4.453-5.566-11.134-8.628-18.092-8.35-2.505-.278-5.288 0-7.793.835a9.6 9.6 0 0 0-3.34 3.34c-2.783 3.896-3.896 9.741-3.896 17.535 0 7.515 1.392 15.308 4.175 22.266 1.67 4.176 4.453 7.516 8.071 10.021 3.062 1.67 6.401 2.783 9.741 2.783 3.341.278 6.681-.557 9.464-1.948 3.062-2.227 5.566-5.566 6.68-9.186a69 69 0 0 0 1.67-15.029m87.674 27.555c0 .557-.278.835-.557.835h-28.946c-.557 0-.557-.278-.557-.557v-2.505c0-.557.278-.557.557-.557h7.236c.557 0 1.113-.278 1.113-.835v-.278q.835-7.098.835-31.729c0-7.794-1.113-12.525-3.618-14.752-3.062-2.505-6.958-3.618-10.854-3.34-5.288-.278-10.576 1.113-15.03 4.175-.557.278-.835 1.113-.835 1.67-.278 1.948-.278 12.247-.278 30.895 0 9.464.835 14.195 2.227 14.195h9.464c.557 0 .557.278.557.557v2.505c0 .278-.278.557-.557.557h-31.173c-.278-.278-.278-.278-.278-.557v-2.227c0-.278.278-.557.557-.557h8.628c.557 0 1.113-.835 1.113-1.392 0-.278 0-7.516.278-21.71s.278-21.71.278-22.545c0-6.68-.835-10.298-2.227-10.298h-8.35c-.278 0-.835-.278-.835-.557v-2.226c0-.278.278-.557.557-.557h15.586c.557 0 1.113-.278 2.227-.278.558-.278 1.392-.278 1.948-.278s.836.557.836 1.67v7.236c0 1.392.277 1.948.834 1.392 3.619-2.783 7.237-5.288 11.412-7.236 3.062-1.392 6.68-2.227 10.02-2.227 4.453 0 8.907 1.67 12.247 4.731 3.34 3.34 5.288 9.741 5.288 18.927 0 3.062-.278 8.35-.557 15.586s-.557 10.854-.557 10.576c0 6.681.557 10.021 1.392 10.021h9.463c.557 0 .835 0 .835.278v1.392zm37.296 0c0 .557-.277.557-.834.557h-32.565c-.557 0-.557-.278-.557-.835v-2.227c0-.557.278-.835.557-.835h10.021c.835 0 1.392-.557 1.392-1.113v-34.792c0-4.175 0-8.628-.278-12.803-.557-4.175-1.67-6.401-3.618-6.401h-6.681c-.835 0-1.113-.278-1.113-.557v-2.505c0-.557.278-.835.557-.835h3.896c4.176 0 8.351-.278 12.247-.557 2.783-.278 4.175-.278 3.896-.278 1.113 0 1.67.835 1.67 2.227 0 0-.278 6.958-.557 20.317-.278 13.36-.557 20.597-.557 21.153 0 10.855 1.113 16.422 3.34 16.422h8.351c.557 0 .557.278.557.557zm-11.133-86.56c0 2.505-1.392 5.01-3.34 6.401-1.392 1.392-3.34 2.227-5.288 2.505-2.227.278-4.175-1.113-4.453-3.062v-1.392c.557-4.731 4.175-8.35 8.906-8.628 1.948-.278 3.896 1.113 4.175 3.062zm71.531 75.983c0 .557-1.113 1.949-3.34 3.619-6.681 5.566-15.03 8.35-23.658 8.628-4.176 0-8.072-.557-11.969-2.227-4.731-2.783-8.628-6.958-11.411-11.969-2.783-5.566-4.175-11.411-3.896-17.534q0-6.68 1.67-13.36 2.088-7.932 8.35-13.359c5.288-4.175 11.968-6.123 18.648-5.845 6.68-.278 13.359 2.227 18.091 6.958 2.227 1.67 3.619 4.175 3.897 6.958q0 3.34-2.505 3.34c-2.784-.278-5.289-1.392-6.959-3.618-1.948-1.948-3.618-4.453-4.453-7.236-.278-1.113-1.392-1.67-3.062-1.948s-3.618-.278-5.288-.278c-1.948 0-3.618 0-5.566.278-3.34.557-6.681 2.227-8.907 4.731-3.618 4.175-5.566 10.298-5.566 19.205-.278 8.35 3.062 16.421 8.906 22.544 2.505 2.783 6.124 4.454 9.742 5.289 3.062.557 6.123.835 9.185.557 5.01.278 10.299-1.392 14.474-4.176.557-.278 1.113-.835 1.948-1.392h.835c.556 0 .834.557.834.835m53.718-6.401c.278 4.453-1.392 8.907-4.176 12.525-3.34 4.175-9.185 6.123-17.256 6.123-8.071.278-15.587-2.505-21.988-7.236-.557-.835-1.113-1.948-.835-3.062-.278-3.897-.278-8.072-.278-11.969 0-.835.278-1.392 1.113-1.392s1.392.278 1.392 1.113c0 .278.278.835.557 1.948.278.835.557 1.948.557 2.783 1.392 4.175 3.618 8.351 6.401 11.69.835 1.113 1.671 1.67 2.227 1.67 3.618.278 6.959.557 10.577.557 4.175.278 8.35-1.113 11.689-3.896 2.227-1.948 3.618-5.011 3.34-8.072 0-1.948-.835-3.896-2.505-5.288-2.505-2.227-5.845-3.618-9.185-4.175-1.392-.278-2.505-.835-3.896-1.392s-2.505-1.113-3.896-1.392c-4.175-1.67-8.072-3.896-11.412-6.958s-5.288-7.516-5.01-12.247c0-3.896 1.392-7.793 4.175-10.576 4.175-4.175 10.021-6.123 15.865-5.845 8.35 0 14.751 1.948 18.927 6.123.278.557.557 1.113.557 1.67v9.741c0 1.113-.278 1.392-.557 1.392s-.835-.278-1.113-.835c-1.67-3.896-3.619-7.793-5.846-12.246-.278-.835-.835-1.113-1.67-1.392-3.062-.557-6.401-.835-9.463-.835-3.34 0-6.68.557-9.741 2.227-2.784 1.392-4.454 4.453-4.454 7.515 0 5.288 3.619 9.185 11.134 11.412a70.5 70.5 0 0 1 10.02 3.34c3.618 1.113 6.958 3.062 10.021 5.566a16.26 16.26 0 0 1 4.729 11.413m75.705 17.256c0 .278 0 .557-.278.557h-33.121c-.278 0-.557 0-.835-.278v-2.783c0-.278 0-.557.278-.835h9.742c.557 0 .834-.557.834-1.948v-70.696c0-8.628-.834-12.803-2.505-12.803h-8.628c-.557 0-.835-.278-.835-.557v-2.505c0-.278.278-.557.557-.557h33.121c.278 0 .557.278.557.557v2.505c0 .278-.278.557-.835.557h-9.741c-.835 0-1.113.557-1.113 1.392v75.705c.278 5.567 1.113 8.351 2.783 8.351h9.741c.278 0 .557.278.557.557v2.783h-.279zm78.49-.278c0 .557-.278.835-.557.835h-28.946c-.557 0-.557-.278-.557-.557v-2.505c0-.557.278-.557.557-.557h7.236c.557 0 1.113-.278 1.113-.835v-.278q.835-7.098.835-31.729c0-7.794-1.113-12.525-3.618-14.752-3.062-2.505-6.958-3.618-10.854-3.34-5.288-.278-10.576 1.113-15.03 4.175-.557.278-.835 1.113-.835 1.67-.278 1.948-.278 12.247-.278 30.895 0 9.464.835 14.195 2.227 14.195h9.464c.557 0 .557.278.557.557v2.505c0 .278-.278.557-.557.557h-31.174c-.277-.278-.277-.278-.277-.557v-2.227c0-.278.277-.557.557-.557h8.628c.557 0 1.113-.835 1.113-1.392 0-.278 0-7.516.278-21.71s.278-21.71.278-22.545c0-6.68-.835-10.298-2.227-10.298h-8.35c-.278 0-.835-.278-.835-.557v-2.226c0-.278.278-.557.557-.557h15.586c.557 0 1.113-.278 2.227-.278.557-.278 1.392-.278 1.948-.278s.835.557.835 1.67v7.236c0 1.392.278 1.948.835 1.392 3.618-2.783 7.237-5.288 11.412-7.236 3.062-1.392 6.68-2.227 10.02-2.227 4.453 0 8.907 1.67 12.247 4.731 3.34 3.34 5.288 9.741 5.288 18.927 0 3.062-.278 8.35-.557 15.586s-.557 10.854-.557 10.576c0 6.681.557 10.021 1.392 10.021h9.463c.557 0 .835 0 .835.278zm59.84-10.577c0 .557-1.113 1.949-3.34 3.619-6.68 5.566-15.03 8.35-23.658 8.628-4.175 0-8.071-.557-11.968-2.227-4.731-2.783-8.629-6.958-11.412-11.969-2.783-5.566-4.175-11.411-3.896-17.534q0-6.68 1.67-13.36 2.088-7.932 8.351-13.359c5.288-4.175 11.968-6.123 18.647-5.845 6.68-.278 13.36 2.227 18.092 6.958 2.227 1.67 3.618 4.175 3.896 6.958q0 3.34-2.505 3.34c-2.783-.278-5.288-1.392-6.958-3.618-1.948-1.948-3.618-4.453-4.453-7.236-.278-1.113-1.393-1.67-3.063-1.948s-3.618-.278-5.288-.278c-1.948 0-3.618 0-5.566.278-3.34.557-6.68 2.227-8.906 4.731-3.618 4.175-5.567 10.298-5.567 19.205-.277 8.35 3.063 16.421 8.907 22.544 2.505 2.783 6.123 4.454 9.741 5.289 3.062.557 6.123.835 9.186.557 5.01.278 10.298-1.392 14.473-4.176.557-.278 1.113-.835 1.948-1.392h.835c.556 0 .834.557.834.835m23.937 6.402c0 1.67-.557 3.062-1.948 4.175-1.113 1.113-2.783 1.67-4.453 1.67-4.175 0-6.401-1.948-6.401-5.845q0-6.68 7.515-6.681c3.617.001 5.287 2.228 5.287 6.681"/></svg>