<svg xmlns="http://www.w3.org/2000/svg" viewBox="2.82 70.58 187.19 51.6"><g fill-rule="evenodd" clip-rule="evenodd"><path fill="none" d="M0 0h192.756v192.756H0z"/><path fill="#cc2229" d="M49.278 88.091H30.595l4.21-17.363h18.683zm-1.185 5.13-6.841 28.414H22.57l6.841-28.414z"/><path d="M25.595 104.271H7.044l-4.21 17.364h18.683zm1.317-5.13 6.841-28.413H15.07L8.229 99.141zm43.153 23.019c-8.946 0-10.13-4.34-9.736-10.654h6.578c0 2.631-.395 5.918 3.552 5.918 2.105 0 3.289-1.445 3.289-3.287 0-5.393-13.025-3.553-12.893-12.365.131-4.473 2.105-9.077 10.657-8.945 7.499 0 9.341 4.208 8.815 10.656h-6.71c.131-2.369.395-5.789-3.026-5.789-1.447 0-3.026.922-3.026 2.895-.131 6.051 13.288 3.684 12.894 13.154-.132 6.312-3.816 8.417-10.394 8.417m18.024-.525c-4.342 0-4.868-3.289-4.868-4.736V93.353l5.92.131v5.92h3.947v3.814h-3.947v11.971c0 1.578.131 2.631 2.236 2.631h1.71v3.814h-4.998zm32.891-19.864h.133c1.184-1.973 3.289-2.631 4.998-2.631 3.027 0 5.525 1.973 5.525 5.131v17.363h-6.182v-15.26c0-1.973-.264-3.156-1.711-3.156-1.58 0-2.369 1.184-2.369 3.156v15.26h-6.184v-22.23h5.789zm13.815 5.657c.133-4.209.395-8.287 5.658-8.287 2.236 0 3.289.264 4.998 1.973h.133v-7.76h6.184v28.282h-5.789l-.131-2.5h-.133c-1.314 1.711-3.289 2.762-5.131 2.762-6.314 0-5.789-6.971-5.789-11.443zm10.789 2.894c-.133-4.342.395-7.367-2.5-7.367-2.5 0-2.105 3.025-2.105 7.367 0 6.051.133 7.629 2.105 7.629 2.105 0 2.5-1.183 2.5-7.629m-50.917-2.894c.132-4.209.395-8.287 5.657-8.287 2.238 0 3.289.264 5 1.973h.133v-1.709h6.184v22.23h-5.922v-2.5h-.262c-1.186 1.711-3.291 2.762-5 2.762-6.447 0-5.79-6.971-5.79-11.443zm10.657 2.894c0-4.342.527-7.367-2.367-7.367-2.5 0-2.105 3.025-2.105 7.367 0 6.051.131 7.629 2.105 7.629 2.104 0 2.5-1.183 2.367-7.629"/><path stroke="#fff" stroke-miterlimit="2.613" stroke-width=".046" d="M163.082 121.635c-7.762 0-8.684-4.473-8.684-11.312-.131-6.314.527-11.576 8.553-11.576 7.762 0 8.42 5.262 7.893 13.023h-10.262c0 2.629-.658 6.051 2.631 6.051h9.867l4.08-7.762-5.658-10.654h6.842l2.5 7.104 2.895-7.104h5.789l-5.658 10.654 6.053 11.576h-6.578l-3.158-8.551-3.42 8.551zm1.842-13.682c0-2.367.395-5.523-2.105-5.523-2.895 0-2.105 3.684-2.105 5.523z"/><path fill="#272727" d="M55.987 73.49c0-1.315 1.053-2.368 2.5-2.368a2.36 2.36 0 0 1 2.369 2.368c0 1.447-1.053 2.631-2.369 2.631-1.447 0-2.5-1.184-2.5-2.631m2.5 3.026c1.579 0 3.026-1.184 3.026-3.025 0-1.71-1.447-2.894-3.026-2.894-1.71 0-3.026 1.184-3.026 2.894 0 1.841 1.316 3.025 3.026 3.025m-.658-2.763h.658l.79 1.579h.658l-1.053-1.579c.526 0 .921-.263.921-.921 0-.657-.395-1.052-1.184-1.052h-1.315v3.552h.526v-1.579zm0-.394v-1.052h.658c.395 0 .79 0 .79.526s-.395.526-.79.526z"/></g></svg>