<?xml version="1.0" encoding="UTF-8" standalone="no"?>
<!-- Created with Inkscape (http://www.inkscape.org/) -->

<svg
   version="1.1"
   id="svg1"
   width="480"
   height="480"
   viewBox="0 0 480 480"
   sodipodi:docname="6324_Avatar.ai"
   xmlns:inkscape="http://www.inkscape.org/namespaces/inkscape"
   xmlns:sodipodi="http://sodipodi.sourceforge.net/DTD/sodipodi-0.dtd"
   xmlns="http://www.w3.org/2000/svg"
   xmlns:svg="http://www.w3.org/2000/svg">
  <defs
     id="defs1">
    <clipPath
       clipPathUnits="userSpaceOnUse"
       id="clipPath16">
      <path
         d="M 0,360 H 360 V 0 H 0 Z"
         transform="translate(-298.72931,-236.9221)"
         id="path16" />
    </clipPath>
    <clipPath
       clipPathUnits="userSpaceOnUse"
       id="clipPath18">
      <path
         d="M 0,360 H 360 V 0 H 0 Z"
         transform="translate(-295.30061,-198.0832)"
         id="path18" />
    </clipPath>
    <clipPath
       clipPathUnits="userSpaceOnUse"
       id="clipPath20">
      <path
         d="M 0,360 H 360 V 0 H 0 Z"
         transform="translate(-275.50571,-139.6887)"
         id="path20" />
    </clipPath>
    <clipPath
       clipPathUnits="userSpaceOnUse"
       id="clipPath22">
      <path
         d="M 0,360 H 360 V 0 H 0 Z"
         transform="translate(-268.54671,-113.64081)"
         id="path22" />
    </clipPath>
    <clipPath
       clipPathUnits="userSpaceOnUse"
       id="clipPath24">
      <path
         d="M 0,360 H 360 V 0 H 0 Z"
         transform="translate(-158.9676,-166.67991)"
         id="path24" />
    </clipPath>
    <clipPath
       clipPathUnits="userSpaceOnUse"
       id="clipPath26">
      <path
         d="M 0,360 H 360 V 0 H 0 Z"
         transform="translate(-210.25571,-147.1242)"
         id="path26" />
    </clipPath>
    <clipPath
       clipPathUnits="userSpaceOnUse"
       id="clipPath28">
      <path
         d="M 0,360 H 360 V 0 H 0 Z"
         transform="translate(-172.67171,-180.4611)"
         id="path28" />
    </clipPath>
  </defs>
  <sodipodi:namedview
     id="namedview1"
     pagecolor="#ffffff"
     bordercolor="#000000"
     borderopacity="0.25"
     inkscape:showpageshadow="2"
     inkscape:pageopacity="0.0"
     inkscape:pagecheckerboard="0"
     inkscape:deskcolor="#d1d1d1">
    <inkscape:page
       x="0"
       y="0"
       inkscape:label="2"
       id="page14"
       width="480"
       height="480"
       margin="69.478668 60"
       bleed="0" />
  </sodipodi:namedview>
  <g
     id="layer-MC0"
     inkscape:groupmode="layer"
     inkscape:label="Layer 1"
     transform="translate(-73.333336)">
    <path
       id="path15"
       d="m 0,0 c 0,1.044 -0.847,1.54 -2.54,1.54 h -15.077 c -0.895,-2.637 -1.346,-4.129 -1.346,-4.378 0,-1.045 0.847,-1.593 2.49,-1.593 h 11.394 c 2.089,0 3.434,0.746 4.08,2.238 0.499,1.246 0.798,1.842 0.895,1.794 C -0.049,-0.25 0,-0.149 0,0 m 16.271,25.926 -3.337,-9.358 h -24.431 c -2.138,0 -3.483,-0.745 -4.08,-2.237 -0.097,-0.25 -0.451,-1.394 -1.097,-3.386 H 2.935 c 2.04,0 3.684,-0.447 4.975,-1.391 C 9.151,8.606 9.804,7.212 9.804,5.471 9.804,4.527 9.603,3.531 9.207,2.435 8.208,-0.25 6.765,-4.181 4.822,-9.309 4.281,-10.8 3.678,-11.845 2.935,-12.493 1.991,-13.34 0.742,-13.735 -0.847,-13.735 h -26.227 c -1.888,0 -3.435,0.395 -4.677,1.242 -1.443,0.947 -2.137,2.39 -2.137,4.228 0,0.847 0.195,1.843 0.597,2.988 2.436,7.215 5.571,16.173 9.353,26.772 0.548,1.544 1.242,2.637 1.992,3.285 0.894,0.746 2.136,1.146 3.683,1.146 z"
       style="fill:#0033a1;fill-opacity:1;fill-rule:nonzero;stroke:none"
       transform="matrix(1.3333333,0,0,-1.3333333,471.63907,164.10387)"
       clip-path="url(#clipPath16)" />
    <path
       id="path17"
       d="m 0,0 c -1.103,-2.588 -2.968,-4.132 -5.586,-4.579 0.584,-0.15 1.11,-0.496 1.517,-1.146 0.405,-0.644 0.639,-1.342 0.639,-2.136 0,-0.452 -0.121,-0.948 -0.292,-1.395 l -4.474,-10.949 c -1.224,-2.935 -3.429,-4.427 -6.631,-4.427 h -32.847 l 4.013,9.354 h 20.931 c 2.553,0 4.126,0.745 4.766,2.188 l 0.697,1.742 c 0.114,0.249 0.17,0.452 0.17,0.698 0,1.345 -0.867,1.991 -2.61,1.991 h -21.4 l 3.785,9.256 h 21.741 c 1.338,0 2.27,0.149 2.789,0.399 0.526,0.246 0.875,0.645 1.167,1.294 l 0.575,1.391 c 0.058,0.149 0.058,0.25 0.058,0.399 0,1.044 -0.982,1.592 -2.959,1.592 h -21.223 l 3.891,9.357 h 26.686 c 2.383,0 4.305,-0.448 5.821,-1.395 1.451,-0.946 2.205,-2.338 2.205,-4.079 0,-0.948 -0.236,-1.944 -0.698,-3.036 z"
       style="fill:#0033a1;fill-opacity:1;fill-rule:nonzero;stroke:none"
       transform="matrix(1.3333333,0,0,-1.3333333,467.06747,215.88907)"
       clip-path="url(#clipPath18)" />
    <path
       id="path19"
       d="m 0,0 h -27.865 c -1.547,0 -2.588,-0.694 -3.087,-2.089 l -0.597,-1.692 c -0.146,-0.451 -0.25,-0.847 -0.25,-1.194 0,-1.096 0.548,-1.644 1.693,-1.644 h 27.914 l -3.379,-9.354 h -33.396 c -1.839,0 -3.184,0.597 -4.024,1.79 -0.749,1.048 -1.096,2.339 -1.096,3.879 0,1.048 0.146,2.04 0.443,2.942 l 4.331,12.288 c 1.047,2.984 3.135,4.475 6.272,4.475 h 25.624 l 0.749,2.346 c 0.098,0.298 0.153,0.597 0.153,0.839 0,1.145 -0.75,1.742 -2.241,1.742 h -27.373 l 3.338,9.36 H 0.847 c 3.483,0 5.224,-1.742 5.224,-5.273 0,-0.951 -0.152,-1.798 -0.451,-2.644 z"
       style="fill:#0033a1;fill-opacity:1;fill-rule:nonzero;stroke:none"
       transform="matrix(1.3333333,0,0,-1.3333333,440.67427,293.7484)"
       clip-path="url(#clipPath20)" />
    <path
       id="path21"
       d="m 0,0 -11.997,-39.66 h -12.934 l 5.024,14.279 h -18.859 c -5.821,0 -8.756,1.846 -8.756,5.475 0,1.048 0.347,2.588 1.089,4.725 L -41.152,0 h 10.844 l -4.579,-12.892 c -0.25,-0.645 -0.347,-1.144 -0.347,-1.588 0,-1.048 0.645,-1.547 1.992,-1.547 h 14.383 c 1.588,0 2.636,0.7 3.081,2.094 0.894,2.887 2.539,7.515 4.926,13.933 z"
       style="fill:#0033a1;fill-opacity:1;fill-rule:nonzero;stroke:none"
       transform="matrix(1.3333333,0,0,-1.3333333,431.3956,328.47893)"
       clip-path="url(#clipPath22)" />
    <path
       id="path23"
       d="m 0,0 c 0.83,-6.53 3.031,-12.811 3.671,-19.363 -0.101,-1.224 -0.343,-2.432 -0.585,-3.638 -0.432,-2.146 -0.861,-4.29 -0.483,-6.51 0.094,0.009 0.186,0.028 0.28,0.04 2.945,0.426 4.892,3.007 6.154,5.52 1.542,3.988 -0.441,8.144 -1.865,11.857 -0.379,0.883 -0.703,1.779 -0.992,2.683 C 6.094,-9.142 6.011,-8.873 5.932,-8.603 4.588,-3.987 4.22,0.858 3.638,5.614 2.015,4.121 0.004,2.399 0,0"
       style="fill:#0033a1;fill-opacity:1;fill-rule:nonzero;stroke:none"
       transform="matrix(1.3333333,0,0,-1.3333333,285.29013,257.76013)"
       clip-path="url(#clipPath24)" />
    <path
       id="path25"
       d="m 0,0 c -2.935,-2.348 -6.082,-4.567 -9.577,-5.995 -6.44,1.941 -13.04,3.437 -19.819,3.431 -0.42,2.307 -0.809,4.834 -2.561,6.554 -1.276,1.287 -2.951,1.894 -4.672,2.371 -0.989,0.276 -1.993,0.508 -2.946,0.804 -0.13,0.038 -0.264,0.071 -0.394,0.118 0.179,-0.18 0.362,-0.358 0.556,-0.536 1.146,-1.054 2.518,-2.056 3.712,-3.168 1.745,-1.627 3.104,-3.493 2.789,-6.123 -0.701,-0.83 -1.502,-1.556 -2.337,-2.246 -1.525,-1.262 -3.168,-2.402 -4.554,-3.82 -0.225,-0.207 -0.436,-0.422 -0.646,-0.645 -0.541,-0.554 -1.056,-1.151 -1.543,-1.766 -1.363,-1.727 -2.612,-3.563 -4.33,-4.937 -0.368,-0.295 -0.75,-0.575 -1.167,-0.821 -2.582,0.14 -5.761,-0.542 -7.801,1.521 -3.197,2.82 -5.818,6.245 -9.222,8.852 -1.965,1.885 -5.407,3.589 -4.332,6.977 1.362,2.785 4.298,4.197 6.893,5.594 -2.885,0.303 -6.113,0.826 -8.725,-0.779 -2.291,-1.316 -2.678,-4.221 -3.586,-6.438 -6.238,-0.521 -11.869,-3.468 -17.868,-4.832 -4.491,3.157 -8.837,7.1 -11.04,12.254 -1.622,3.394 -3.713,6.605 -6.584,9.07 -1.851,1.993 -4.668,3.467 -5.384,6.289 -1.085,5.969 0.257,12.439 -2.368,18.11 -1.492,3.907 -4.571,6.811 -7.479,9.68 1.541,-10.893 3.861,-21.663 6.52,-32.328 2.144,-5.162 6.232,-9.175 9.338,-13.754 -4.403,1.085 -9.138,2.824 -11.638,6.844 -3.408,4.736 -2.048,10.812 -3.013,16.235 -0.553,6.19 -3.131,11.882 -5.076,17.705 -1.625,5.281 -0.537,10.765 1.097,15.87 7.092,-5.22 13.205,-12.077 16.721,-20.219 2.317,-5.497 2.349,-11.498 1.376,-17.285 3.649,-2.223 7.253,-4.508 10.95,-6.667 -3.843,11.741 -6.893,23.792 -8.402,36.068 -0.49,6.468 -0.848,13.134 0.747,19.486 0.713,2.838 2.606,5.161 3.58,7.897 0.378,7.896 -1.681,15.937 0.394,23.723 1.03,3.39 2.816,6.906 6.162,8.495 2.718,1.068 5.88,0.812 8.492,-0.482 7.588,-3.405 13.057,-9.943 18.193,-16.251 5.906,-7.752 11.095,-16.051 15.599,-24.708 1.835,27.386 2.092,54.872 4.22,82.227 1.649,-27.02 1.685,-54.125 3.447,-81.126 5.968,11.479 12.328,23.141 22.056,31.91 0.337,0.306 0.684,0.605 1.036,0.898 0.311,0.257 0.627,0.509 0.95,0.756 0.185,0.142 0.376,0.279 0.564,0.416 0.946,0.693 1.932,1.338 2.956,1.912 4.288,2.402 9.192,3.63 14.111,2.524 4.555,-1.19 7.854,-5.307 8.87,-9.812 1.521,-7.28 0.995,-14.868 -0.531,-22.1 2.137,-1.35 4.424,-2.97 4.843,-5.695 C 9.645,66.05 9.506,59.838 8.463,53.814 8.278,52.754 8.07,51.699 7.832,50.652 7.732,50.181 7.621,49.711 7.519,49.239 6.898,46.381 6.231,43.534 5.509,40.702 4.783,37.856 4.007,35.023 3.187,32.204 1.309,25.744 -0.802,19.353 -3.099,13.034 c 4.174,3.77 8.709,7.201 12.6,11.29 1.427,5.107 0.38,10.846 3.161,15.613 3.956,7.575 9.826,13.978 15.779,20.03 0.343,-3.911 0.663,-7.852 0.391,-11.779 C 28.04,43.393 26.629,38.736 25.623,33.991 24.083,27.371 23.271,20.562 20.902,14.156 18.554,8.614 14.617,3.717 9.797,0.148 c 0.028,4.396 0.47,9.06 3.092,12.747 1.545,2.896 4.362,5.379 4.267,8.947 0.874,8.835 2.156,17.706 5.871,25.859 C 15.99,40.992 14.723,31.003 13.619,21.854 11.693,17.881 7.98,15.067 5.774,11.223 3.229,7.812 2.188,3.586 0,0 m -2.541,-8.982 c 1.137,1.167 2.284,2.318 3.439,3.47 0.042,-1.591 0.081,-3.182 0.13,-4.783 -1.189,0.449 -2.384,0.877 -3.569,1.313 m -9.345,-14.253 c 0.99,2.709 2.061,5.396 3.079,8.093 1.948,-0.586 3.896,-1.141 5.859,-1.75 -2.996,-2.093 -5.939,-4.252 -8.938,-6.343 m -46.676,-2.413 c 3.129,-1.104 5.853,-3.566 9.4,-3.354 3.1,0.512 5.388,3.272 8.641,3.354 3.315,-1.221 6.469,-2.907 9.356,-4.968 -4.227,-2.976 -9.565,-5.346 -14.7,-3.272 -6,1.867 -11.795,-1.493 -17.791,-1.41 -2.905,1.138 -5.365,3.094 -7.882,4.878 3.939,2.35 8.122,5.372 12.976,4.772 m 31.18,-18.73 c -2.389,-3.176 -4.818,-6.629 -8.366,-8.564 -5.954,-2.124 -11.807,1.737 -15.636,6.037 -0.305,-0.357 -0.607,-0.724 -0.909,-1.093 -1.07,-1.31 -2.141,-2.656 -3.37,-3.81 -0.907,-0.851 -1.901,-1.598 -3.052,-2.138 -5.915,-1.214 -11.627,2.141 -14.998,6.794 -7.405,9.466 -9.467,21.661 -11.542,33.178 2.224,0.563 4.443,1.131 6.662,1.716 0.181,-3.58 0.311,-7.297 2.077,-10.506 1.43,4.087 3.31,8.013 5.626,11.685 2.338,-0.449 4.918,0.053 7.186,-0.817 1.132,-1.818 1.993,-3.78 3.044,-5.645 -6.874,-1.122 -12.209,-6.347 -14.885,-12.617 2.465,-2.991 4.335,-6.496 7.001,-9.305 0.122,-0.129 0.236,-0.264 0.362,-0.39 0.632,-0.37 1.272,-0.662 1.916,-0.894 0.27,-0.097 0.539,-0.181 0.811,-0.256 0.732,-0.206 1.472,-0.344 2.217,-0.423 0.019,0.003 0.037,0.014 0.066,0.014 0.258,0 0.484,-0.045 0.716,-0.077 1.342,-0.07 2.699,0.026 4.065,0.2 4.094,0.519 8.266,1.735 12.328,1.27 2.85,-0.21 5.903,-1.752 8.58,-0.111 4.064,2.786 7.132,6.694 10.486,10.234 -3.826,5.349 -8.353,10.505 -14.606,13.044 1.866,1.906 3.321,4.776 6.419,4.675 1.447,0.23 4.344,0.698 5.789,0.927 1.377,-3.721 2.613,-7.511 4.429,-11.047 0.487,3.682 0.838,7.381 1.345,11.063 3.419,-0.68 6.901,-1.264 10.2,-2.45 -3.648,-10.637 -7.806,-21.238 -13.961,-30.694 m -68.819,27.337 c 1.798,0.666 3.605,1.312 5.422,1.931 0.873,-3.357 1.808,-6.716 3.014,-9.973 -3.131,2.307 -6.278,4.738 -8.436,8.042 m -4.931,7.868 c -0.454,1.346 -0.893,2.692 -1.307,4.048 1.472,-0.905 2.947,-1.815 4.42,-2.737 -1.036,-0.442 -2.073,-0.876 -3.113,-1.311 m -55.515,137.202 c 10.722,-7.36 21.723,-14.503 33.765,-19.521 0.1,-0.041 0.198,-0.086 0.298,-0.127 1.094,-0.443 2.207,-0.856 3.308,-1.296 1.775,-0.71 3.52,-1.49 5.108,-2.58 1.432,-2.11 1.676,-4.738 1.851,-7.265 0.043,-0.62 0.082,-1.234 0.133,-1.833 -0.131,-5.332 -3.34,-9.823 -5.934,-14.25 -17.531,10.85 -30.971,27.746 -38.529,46.872 M 15.293,95.151 c 0.912,4.295 2.851,9.192 7.36,10.702 1.368,0.615 2.737,1.235 4.106,1.859 1.507,0.686 3.012,1.383 4.512,2.091 0.628,0.297 1.255,0.595 1.881,0.896 1.417,0.683 2.828,1.377 4.229,2.092 1.689,0.862 3.362,1.755 5.015,2.68 6.096,3.411 11.898,7.299 17.061,12.088 -1.843,-6.033 -4.955,-11.495 -8.564,-16.63 -0.681,-0.968 -1.378,-1.924 -2.088,-2.87 -1.531,-2.038 -3.117,-4.029 -4.713,-5.989 -0.196,-0.242 -0.393,-0.484 -0.59,-0.724 C 42.271,99.934 41,98.554 39.71,97.192 33.698,90.844 27.054,85.073 19.735,80.283 c -2.644,4.489 -5.792,9.351 -4.442,14.868 m 3.598,-106.272 c -4.154,-0.407 -8.318,-0.31 -12.482,-0.298 0.048,2.113 0.109,4.225 0.162,6.341 6.989,2.115 13.615,6.314 17.075,12.931 2.817,4.6 2.784,10.175 3.535,15.319 0.667,6.547 4.752,12.031 5.999,18.449 3.55,10.817 0.841,22.298 1.55,33.422 -3.646,-3.565 -7.274,-7.151 -10.945,-10.688 0.055,2.27 0.132,4.539 0.201,6.799 20.392,16.209 38.737,37.499 44.106,63.67 v 6.975 c -13.104,-11.201 -27.713,-21.211 -44.206,-26.66 -4.783,11.302 -12.148,21.604 -21.893,29.137 -9.306,7.396 -20.423,11.952 -31.954,14.466 -3.549,1.201 -10.555,2.025 -18.618,2.025 -3.857,0 -11.383,-0.518 -11.383,-0.518 -1.022,-0.172 -2.054,-0.342 -3.077,-0.53 -0.26,-0.038 -17.208,-3.687 -24.618,-7.676 -13.704,-7.178 -24.836,-19.614 -29.511,-34.456 -17.752,3.704 -34.271,12.503 -48.088,24.13 v -2.705 c 2.966,-10.749 6.221,-21.548 11.658,-31.344 6.825,-13.283 16.504,-25.005 28.095,-34.377 3.486,-1.751 2.66,-5.934 3.247,-9.076 -4.847,4.248 -9.308,8.9 -14.015,13.295 -1.603,-15.539 1.966,-30.89 5.967,-45.794 2.937,-9.418 0.868,-20.605 7.622,-28.616 5.157,-4.903 12.801,-6.329 17.307,-12.086 -9.583,-1.876 -19.364,-0.773 -28.621,2.094 3.861,-3.727 8.013,-7.489 13.251,-9.079 5.77,-2.106 11.98,-1.719 17.964,-2.58 1.866,-1.694 2.901,-4.097 4.458,-6.048 3.601,-5.248 8.968,-8.867 13.02,-13.714 3.571,-3.958 5.364,-9.241 9.227,-12.967 3.794,-4.029 8.866,-6.656 12.222,-11.129 6.73,-9.716 9.394,-21.388 12.456,-32.607 h 0.369 c 2.189,10.312 5.158,20.659 10.786,29.642 3.904,6.157 10.537,9.681 14.921,15.4 5.156,5.841 7.225,13.801 12.772,19.343 4.447,4.461 9.071,8.89 14.486,12.164 6.968,1.754 14.896,0.724 21.203,4.717 3.022,1.768 5.806,3.925 8.431,6.23 -4.21,-1.268 -8.319,-2.924 -12.679,-3.601"
       style="fill:#0033a1;fill-opacity:1;fill-rule:nonzero;stroke:none"
       transform="matrix(1.3333333,0,0,-1.3333333,353.67427,283.8344)"
       clip-path="url(#clipPath26)" />
    <path
       id="path27"
       d="M 0,0 C 1.18,0.277 2.348,0.557 3.523,0.828 3.71,-0.774 3.96,-2.418 4.149,-4.032 2.756,-2.692 1.367,-1.359 0,0 m -29.22,-2.706 c 0.47,1.737 0.977,3.473 1.475,5.208 1.14,-0.72 2.289,-1.464 3.42,-2.21 -1.621,-1.005 -3.27,-1.993 -4.895,-2.998 m -18.204,0.247 c -1.93,1.34 -2.697,3.663 -3.638,5.689 2.042,0.551 5.257,2.903 6.651,0.324 1.88,-2.953 3.369,-6.135 5.236,-9.111 -2.84,0.743 -5.741,1.538 -8.249,3.098 m 66.976,6.095 c 2.55,0.617 5.139,0.985 7.738,1.342 -0.597,-2.524 -1.065,-5.495 -3.242,-7.21 -2.74,-2.083 -6.029,-3.299 -9.295,-4.281 2.014,3.173 3.573,6.597 4.799,10.149 M 22.23,-7.409 c 4.474,2.044 6.519,6.842 7.981,11.241 2.382,0.025 4.751,0.287 7.116,0.642 -2.562,1.883 -5.17,3.928 -8.254,4.849 -4.845,0.989 -9.453,-1.067 -13.882,-2.71 3.761,6.31 8.107,13.022 15.209,15.826 3.297,1.302 6.437,-0.968 8.968,-2.85 -0.711,7.017 -2.298,13.98 -5.256,20.397 C 32.446,38.573 31.427,36.579 30.193,34.813 23.298,23.804 14.883,13.512 4.413,5.727 2.139,4.07 -2.258,2.092 -4.133,5.271 c -2.138,3.974 0.271,8.533 1.121,12.615 -1.3,-1.634 -2.714,-3.193 -3.8,-4.975 C -8.41,9.71 -8.202,6.006 -8.315,2.516 c -2.209,-0.018 -4.433,-0.02 -6.646,-0.02 0.624,4.855 0.302,9.978 -2.098,14.337 -0.048,-3.1 0.083,-6.208 -0.195,-9.292 -0.27,-2.142 -2.265,-4.524 -4.622,-3.694 -5.042,1.605 -8.946,5.378 -12.809,8.803 -8.124,8.25 -15.368,17.329 -22.113,26.725 -0.192,-0.341 -0.378,-0.685 -0.559,-1.029 -0.102,-0.194 -0.2,-0.389 -0.297,-0.584 -2.793,-5.522 -4.312,-11.587 -5.879,-17.544 2.195,1.479 4.694,2.875 7.498,2.066 6.923,-2.563 11.556,-8.693 16.099,-14.188 -6.958,0.416 -14.583,0.049 -20.477,-4.104 2.592,-1.172 6.633,-0.194 7.972,-3.248 2.128,-3.058 3.731,-6.972 7.622,-8.153 7.328,-2.967 15.212,0.62 21.696,4.103 -2.915,-4.753 -6.65,-9.81 -12.389,-11.092 -7.315,-2.387 -14.216,2.466 -20.057,6.231 3.651,-5.484 8.673,-11.06 15.584,-11.924 5.85,-0.34 11.347,2.415 15.698,6.086 4.04,3.534 7.527,8.073 12.402,10.448 0.376,0.183 0.761,0.351 1.155,0.506 0.276,0.11 0.552,0.219 0.838,0.314 0.064,-0.031 0.121,-0.068 0.184,-0.099 2.429,-1.194 4.463,-2.903 6.354,-4.796 4.184,-4.189 7.691,-9.256 13.344,-11.516 3.391,-1.831 7.766,-1.297 10.882,0.845 3.925,3.078 6.304,7.603 8.544,11.948 -4.717,-3.433 -9.441,-8.906 -15.893,-8.087 -5.314,-0.325 -9.176,3.838 -12.456,7.424 6.617,-2.69 14.707,-4.458 21.163,-0.391"
       style="fill:#0033a1;fill-opacity:1;fill-rule:nonzero;stroke:none"
       transform="matrix(1.3333333,0,0,-1.3333333,303.56227,239.3852)"
       clip-path="url(#clipPath28)" />
  </g>
</svg>
